G75*
%MOIN*%
%OFA0B0*%
%FSLAX25Y25*%
%IPPOS*%
%LPD*%
%AMOC8*
5,1,8,0,0,1.08239X$1,22.5*
%
%ADD10C,0.04737*%
%ADD11R,0.05524X0.08674*%
%ADD12R,0.03162X0.06115*%
%ADD13C,0.08200*%
%ADD14R,0.04816X0.08162*%
%ADD15C,0.04816*%
%ADD16C,0.07887*%
%ADD17R,0.05131X0.04737*%
%ADD18R,0.04737X0.05131*%
%ADD19R,0.05524X0.02965*%
%ADD20C,0.03900*%
D10*
X0118333Y0073333D03*
X0118333Y0166333D03*
X0118333Y0259333D03*
X0118333Y0351680D03*
X0303333Y0306680D03*
X0326333Y0351680D03*
X0326333Y0259333D03*
X0303333Y0214333D03*
X0326333Y0166333D03*
X0303333Y0121333D03*
X0326333Y0073333D03*
X0303333Y0028333D03*
X0511333Y0028333D03*
X0511333Y0121333D03*
X0511333Y0214333D03*
X0511333Y0306680D03*
D11*
X0477360Y0302212D03*
X0455313Y0302212D03*
X0442357Y0302211D03*
X0420310Y0302211D03*
X0407357Y0302211D03*
X0385310Y0302211D03*
X0372357Y0302211D03*
X0350310Y0302211D03*
X0269360Y0302212D03*
X0247313Y0302212D03*
X0234357Y0302211D03*
X0212310Y0302211D03*
X0199357Y0302211D03*
X0177310Y0302211D03*
X0164357Y0302211D03*
X0142310Y0302211D03*
X0142310Y0209865D03*
X0164357Y0209865D03*
X0177310Y0209865D03*
X0199357Y0209865D03*
X0212310Y0209865D03*
X0234357Y0209865D03*
X0247313Y0209865D03*
X0269360Y0209865D03*
X0350310Y0209865D03*
X0372357Y0209865D03*
X0385310Y0209865D03*
X0407357Y0209865D03*
X0420310Y0209865D03*
X0442357Y0209865D03*
X0455313Y0209865D03*
X0477360Y0209865D03*
X0477360Y0116865D03*
X0455313Y0116865D03*
X0442357Y0116865D03*
X0420310Y0116865D03*
X0407357Y0116865D03*
X0385310Y0116865D03*
X0372357Y0116865D03*
X0350310Y0116865D03*
X0269360Y0116865D03*
X0247313Y0116865D03*
X0234357Y0116865D03*
X0212310Y0116865D03*
X0199357Y0116865D03*
X0177310Y0116865D03*
X0164357Y0116865D03*
X0142310Y0116865D03*
X0142310Y0023865D03*
X0164357Y0023865D03*
X0177310Y0023865D03*
X0199357Y0023865D03*
X0212310Y0023865D03*
X0234357Y0023865D03*
X0247313Y0023865D03*
X0269360Y0023865D03*
X0350310Y0023865D03*
X0372357Y0023865D03*
X0385310Y0023865D03*
X0407357Y0023865D03*
X0420310Y0023865D03*
X0442357Y0023865D03*
X0455313Y0023865D03*
X0477360Y0023865D03*
D12*
X0472242Y0038334D03*
X0468305Y0038334D03*
X0464368Y0038334D03*
X0460431Y0038334D03*
X0437239Y0038333D03*
X0433302Y0038333D03*
X0429365Y0038333D03*
X0425428Y0038333D03*
X0402239Y0038333D03*
X0398302Y0038333D03*
X0394365Y0038333D03*
X0390428Y0038333D03*
X0367239Y0038333D03*
X0363302Y0038333D03*
X0359365Y0038333D03*
X0355428Y0038333D03*
X0264242Y0038334D03*
X0260305Y0038334D03*
X0256368Y0038334D03*
X0252431Y0038334D03*
X0229239Y0038333D03*
X0225302Y0038333D03*
X0221365Y0038333D03*
X0217428Y0038333D03*
X0194239Y0038333D03*
X0190302Y0038333D03*
X0186365Y0038333D03*
X0182428Y0038333D03*
X0159239Y0038333D03*
X0155302Y0038333D03*
X0151365Y0038333D03*
X0147428Y0038333D03*
X0147428Y0131333D03*
X0151365Y0131333D03*
X0155302Y0131333D03*
X0159239Y0131333D03*
X0182428Y0131333D03*
X0186365Y0131333D03*
X0190302Y0131333D03*
X0194239Y0131333D03*
X0217428Y0131333D03*
X0221365Y0131333D03*
X0225302Y0131333D03*
X0229239Y0131333D03*
X0252431Y0131334D03*
X0256368Y0131334D03*
X0260305Y0131334D03*
X0264242Y0131334D03*
X0355428Y0131333D03*
X0359365Y0131333D03*
X0363302Y0131333D03*
X0367239Y0131333D03*
X0390428Y0131333D03*
X0394365Y0131333D03*
X0398302Y0131333D03*
X0402239Y0131333D03*
X0425428Y0131333D03*
X0429365Y0131333D03*
X0433302Y0131333D03*
X0437239Y0131333D03*
X0460431Y0131334D03*
X0464368Y0131334D03*
X0468305Y0131334D03*
X0472242Y0131334D03*
X0472242Y0224334D03*
X0468305Y0224334D03*
X0464368Y0224334D03*
X0460431Y0224334D03*
X0437239Y0224333D03*
X0433302Y0224333D03*
X0429365Y0224333D03*
X0425428Y0224333D03*
X0402239Y0224333D03*
X0398302Y0224333D03*
X0394365Y0224333D03*
X0390428Y0224333D03*
X0367239Y0224333D03*
X0363302Y0224333D03*
X0359365Y0224333D03*
X0355428Y0224333D03*
X0264242Y0224334D03*
X0260305Y0224334D03*
X0256368Y0224334D03*
X0252431Y0224334D03*
X0229239Y0224333D03*
X0225302Y0224333D03*
X0221365Y0224333D03*
X0217428Y0224333D03*
X0194239Y0224333D03*
X0190302Y0224333D03*
X0186365Y0224333D03*
X0182428Y0224333D03*
X0159239Y0224333D03*
X0155302Y0224333D03*
X0151365Y0224333D03*
X0147428Y0224333D03*
X0147428Y0316680D03*
X0151365Y0316680D03*
X0155302Y0316680D03*
X0159239Y0316680D03*
X0182428Y0316680D03*
X0186365Y0316680D03*
X0190302Y0316680D03*
X0194239Y0316680D03*
X0217428Y0316680D03*
X0221365Y0316680D03*
X0225302Y0316680D03*
X0229239Y0316680D03*
X0252431Y0316680D03*
X0256368Y0316680D03*
X0260305Y0316680D03*
X0264242Y0316680D03*
X0355428Y0316680D03*
X0359365Y0316680D03*
X0363302Y0316680D03*
X0367239Y0316680D03*
X0390428Y0316680D03*
X0394365Y0316680D03*
X0398302Y0316680D03*
X0402239Y0316680D03*
X0425428Y0316680D03*
X0429365Y0316680D03*
X0433302Y0316680D03*
X0437239Y0316680D03*
X0460431Y0316680D03*
X0464368Y0316680D03*
X0468305Y0316680D03*
X0472242Y0316680D03*
D13*
X0476333Y0331680D03*
X0486333Y0331680D03*
X0496333Y0331680D03*
X0466333Y0331680D03*
X0456333Y0331680D03*
X0446333Y0331680D03*
X0436333Y0331680D03*
X0426333Y0331680D03*
X0416333Y0331680D03*
X0406333Y0331680D03*
X0396333Y0331680D03*
X0386333Y0331680D03*
X0376333Y0331680D03*
X0366333Y0331680D03*
X0356333Y0331680D03*
X0346333Y0331680D03*
X0336333Y0331680D03*
X0326333Y0331680D03*
X0288333Y0331680D03*
X0278333Y0331680D03*
X0268333Y0331680D03*
X0258333Y0331680D03*
X0248333Y0331680D03*
X0238333Y0331680D03*
X0228333Y0331680D03*
X0218333Y0331680D03*
X0208333Y0331680D03*
X0198333Y0331680D03*
X0188333Y0331680D03*
X0178333Y0331680D03*
X0168333Y0331680D03*
X0158333Y0331680D03*
X0148333Y0331680D03*
X0138333Y0331680D03*
X0128333Y0331680D03*
X0118333Y0331680D03*
X0118333Y0239333D03*
X0128333Y0239333D03*
X0138333Y0239333D03*
X0148333Y0239333D03*
X0158333Y0239333D03*
X0168333Y0239333D03*
X0178333Y0239333D03*
X0188333Y0239333D03*
X0198333Y0239333D03*
X0208333Y0239333D03*
X0218333Y0239333D03*
X0228333Y0239333D03*
X0238333Y0239333D03*
X0248333Y0239333D03*
X0258333Y0239333D03*
X0268333Y0239333D03*
X0278333Y0239333D03*
X0288333Y0239333D03*
X0326333Y0239333D03*
X0336333Y0239333D03*
X0346333Y0239333D03*
X0356333Y0239333D03*
X0366333Y0239333D03*
X0376333Y0239333D03*
X0386333Y0239333D03*
X0396333Y0239333D03*
X0406333Y0239333D03*
X0416333Y0239333D03*
X0426333Y0239333D03*
X0436333Y0239333D03*
X0446333Y0239333D03*
X0456333Y0239333D03*
X0466333Y0239333D03*
X0476333Y0239333D03*
X0486333Y0239333D03*
X0496333Y0239333D03*
X0496333Y0146333D03*
X0486333Y0146333D03*
X0476333Y0146333D03*
X0466333Y0146333D03*
X0456333Y0146333D03*
X0446333Y0146333D03*
X0436333Y0146333D03*
X0426333Y0146333D03*
X0416333Y0146333D03*
X0406333Y0146333D03*
X0396333Y0146333D03*
X0386333Y0146333D03*
X0376333Y0146333D03*
X0366333Y0146333D03*
X0356333Y0146333D03*
X0346333Y0146333D03*
X0336333Y0146333D03*
X0326333Y0146333D03*
X0288333Y0146333D03*
X0278333Y0146333D03*
X0268333Y0146333D03*
X0258333Y0146333D03*
X0248333Y0146333D03*
X0238333Y0146333D03*
X0228333Y0146333D03*
X0218333Y0146333D03*
X0208333Y0146333D03*
X0198333Y0146333D03*
X0188333Y0146333D03*
X0178333Y0146333D03*
X0168333Y0146333D03*
X0158333Y0146333D03*
X0148333Y0146333D03*
X0138333Y0146333D03*
X0128333Y0146333D03*
X0118333Y0146333D03*
X0118333Y0053333D03*
X0128333Y0053333D03*
X0138333Y0053333D03*
X0148333Y0053333D03*
X0158333Y0053333D03*
X0168333Y0053333D03*
X0178333Y0053333D03*
X0188333Y0053333D03*
X0198333Y0053333D03*
X0208333Y0053333D03*
X0218333Y0053333D03*
X0228333Y0053333D03*
X0238333Y0053333D03*
X0248333Y0053333D03*
X0258333Y0053333D03*
X0268333Y0053333D03*
X0278333Y0053333D03*
X0288333Y0053333D03*
X0326333Y0053333D03*
X0336333Y0053333D03*
X0346333Y0053333D03*
X0356333Y0053333D03*
X0366333Y0053333D03*
X0376333Y0053333D03*
X0386333Y0053333D03*
X0396333Y0053333D03*
X0406333Y0053333D03*
X0416333Y0053333D03*
X0426333Y0053333D03*
X0436333Y0053333D03*
X0446333Y0053333D03*
X0456333Y0053333D03*
X0466333Y0053333D03*
X0476333Y0053333D03*
X0486333Y0053333D03*
X0496333Y0053333D03*
D14*
X0499286Y0080951D03*
X0509286Y0080951D03*
X0489286Y0080951D03*
X0479286Y0080951D03*
X0469286Y0080951D03*
X0459286Y0080951D03*
X0449286Y0080951D03*
X0439286Y0080951D03*
X0429286Y0080951D03*
X0419286Y0080951D03*
X0409286Y0080951D03*
X0399286Y0080951D03*
X0389286Y0080951D03*
X0379286Y0080951D03*
X0369286Y0080951D03*
X0359286Y0080951D03*
X0349286Y0080951D03*
X0339286Y0080951D03*
X0329286Y0080951D03*
X0319286Y0080951D03*
X0301286Y0080951D03*
X0291286Y0080951D03*
X0281286Y0080951D03*
X0271286Y0080951D03*
X0261286Y0080951D03*
X0251286Y0080951D03*
X0241286Y0080951D03*
X0231286Y0080951D03*
X0221286Y0080951D03*
X0211286Y0080951D03*
X0201286Y0080951D03*
X0191286Y0080951D03*
X0181286Y0080951D03*
X0171286Y0080951D03*
X0161286Y0080951D03*
X0151286Y0080951D03*
X0141286Y0080951D03*
X0131286Y0080951D03*
X0121286Y0080951D03*
X0111286Y0080951D03*
X0111286Y0103510D03*
X0121286Y0103510D03*
X0131286Y0103510D03*
X0141286Y0103510D03*
X0151286Y0103510D03*
X0161286Y0103510D03*
X0171286Y0103510D03*
X0181286Y0103510D03*
X0191286Y0103510D03*
X0201286Y0103510D03*
X0211286Y0103510D03*
X0221286Y0103510D03*
X0231286Y0103510D03*
X0241286Y0103510D03*
X0251286Y0103510D03*
X0261286Y0103510D03*
X0271286Y0103510D03*
X0281286Y0103510D03*
X0291286Y0103510D03*
X0301286Y0103510D03*
X0319286Y0103510D03*
X0329286Y0103510D03*
X0339286Y0103510D03*
X0349286Y0103510D03*
X0359286Y0103510D03*
X0369286Y0103510D03*
X0379286Y0103510D03*
X0389286Y0103510D03*
X0399286Y0103510D03*
X0409286Y0103510D03*
X0419286Y0103510D03*
X0429286Y0103510D03*
X0439286Y0103510D03*
X0449286Y0103510D03*
X0459286Y0103510D03*
X0469286Y0103510D03*
X0479286Y0103510D03*
X0489286Y0103510D03*
X0499286Y0103510D03*
X0509286Y0103510D03*
X0509286Y0173951D03*
X0499286Y0173951D03*
X0489286Y0173951D03*
X0479286Y0173951D03*
X0469286Y0173951D03*
X0459286Y0173951D03*
X0449286Y0173951D03*
X0439286Y0173951D03*
X0429286Y0173951D03*
X0419286Y0173951D03*
X0409286Y0173951D03*
X0399286Y0173951D03*
X0389286Y0173951D03*
X0379286Y0173951D03*
X0369286Y0173951D03*
X0359286Y0173951D03*
X0349286Y0173951D03*
X0339286Y0173951D03*
X0329286Y0173951D03*
X0319286Y0173951D03*
X0301286Y0173951D03*
X0291286Y0173951D03*
X0281286Y0173951D03*
X0271286Y0173951D03*
X0261286Y0173951D03*
X0251286Y0173951D03*
X0241286Y0173951D03*
X0231286Y0173951D03*
X0221286Y0173951D03*
X0211286Y0173951D03*
X0201286Y0173951D03*
X0191286Y0173951D03*
X0181286Y0173951D03*
X0171286Y0173951D03*
X0161286Y0173951D03*
X0151286Y0173951D03*
X0141286Y0173951D03*
X0131286Y0173951D03*
X0121286Y0173951D03*
X0111286Y0173951D03*
X0111286Y0196510D03*
X0121286Y0196510D03*
X0131286Y0196510D03*
X0141286Y0196510D03*
X0151286Y0196510D03*
X0161286Y0196510D03*
X0171286Y0196510D03*
X0181286Y0196510D03*
X0191286Y0196510D03*
X0201286Y0196510D03*
X0211286Y0196510D03*
X0221286Y0196510D03*
X0231286Y0196510D03*
X0241286Y0196510D03*
X0251286Y0196510D03*
X0261286Y0196510D03*
X0271286Y0196510D03*
X0281286Y0196510D03*
X0291286Y0196510D03*
X0301286Y0196510D03*
X0319286Y0196510D03*
X0329286Y0196510D03*
X0339286Y0196510D03*
X0349286Y0196510D03*
X0359286Y0196510D03*
X0369286Y0196510D03*
X0379286Y0196510D03*
X0389286Y0196510D03*
X0399286Y0196510D03*
X0409286Y0196510D03*
X0419286Y0196510D03*
X0429286Y0196510D03*
X0439286Y0196510D03*
X0449286Y0196510D03*
X0459286Y0196510D03*
X0469286Y0196510D03*
X0479286Y0196510D03*
X0489286Y0196510D03*
X0499286Y0196510D03*
X0509286Y0196510D03*
X0509286Y0266951D03*
X0499286Y0266951D03*
X0489286Y0266951D03*
X0479286Y0266951D03*
X0469286Y0266951D03*
X0459286Y0266951D03*
X0449286Y0266951D03*
X0439286Y0266951D03*
X0429286Y0266951D03*
X0419286Y0266951D03*
X0409286Y0266951D03*
X0399286Y0266951D03*
X0389286Y0266951D03*
X0379286Y0266951D03*
X0369286Y0266951D03*
X0359286Y0266951D03*
X0349286Y0266951D03*
X0339286Y0266951D03*
X0329286Y0266951D03*
X0319286Y0266951D03*
X0301286Y0266951D03*
X0291286Y0266951D03*
X0281286Y0266951D03*
X0271286Y0266951D03*
X0261286Y0266951D03*
X0251286Y0266951D03*
X0241286Y0266951D03*
X0231286Y0266951D03*
X0221286Y0266951D03*
X0211286Y0266951D03*
X0201286Y0266951D03*
X0191286Y0266951D03*
X0181286Y0266951D03*
X0171286Y0266951D03*
X0161286Y0266951D03*
X0151286Y0266951D03*
X0141286Y0266951D03*
X0131286Y0266951D03*
X0121286Y0266951D03*
X0111286Y0266951D03*
X0111286Y0289510D03*
X0121286Y0289510D03*
X0131286Y0289510D03*
X0141286Y0289510D03*
X0151286Y0289510D03*
X0161286Y0289510D03*
X0171286Y0289510D03*
X0181286Y0289510D03*
X0191286Y0289510D03*
X0201286Y0289510D03*
X0211286Y0289510D03*
X0221286Y0289510D03*
X0231286Y0289510D03*
X0241286Y0289510D03*
X0251286Y0289510D03*
X0261286Y0289510D03*
X0271286Y0289510D03*
X0281286Y0289510D03*
X0291286Y0289510D03*
X0301286Y0289510D03*
X0319286Y0289510D03*
X0329286Y0289510D03*
X0339286Y0289510D03*
X0349286Y0289510D03*
X0359286Y0289510D03*
X0369286Y0289510D03*
X0379286Y0289510D03*
X0389286Y0289510D03*
X0399286Y0289510D03*
X0409286Y0289510D03*
X0419286Y0289510D03*
X0429286Y0289510D03*
X0439286Y0289510D03*
X0449286Y0289510D03*
X0459286Y0289510D03*
X0469286Y0289510D03*
X0479286Y0289510D03*
X0489286Y0289510D03*
X0499286Y0289510D03*
X0509286Y0289510D03*
X0509286Y0359298D03*
X0499286Y0359298D03*
X0489286Y0359298D03*
X0479286Y0359298D03*
X0469286Y0359298D03*
X0459286Y0359298D03*
X0449286Y0359298D03*
X0439286Y0359298D03*
X0429286Y0359298D03*
X0419286Y0359298D03*
X0409286Y0359298D03*
X0399286Y0359298D03*
X0389286Y0359298D03*
X0379286Y0359298D03*
X0369286Y0359298D03*
X0359286Y0359298D03*
X0349286Y0359298D03*
X0339286Y0359298D03*
X0329286Y0359298D03*
X0319286Y0359298D03*
X0301286Y0359298D03*
X0291286Y0359298D03*
X0281286Y0359298D03*
X0271286Y0359298D03*
X0261286Y0359298D03*
X0251286Y0359298D03*
X0241286Y0359298D03*
X0231286Y0359298D03*
X0221286Y0359298D03*
X0211286Y0359298D03*
X0201286Y0359298D03*
X0191286Y0359298D03*
X0181286Y0359298D03*
X0171286Y0359298D03*
X0161286Y0359298D03*
X0151286Y0359298D03*
X0141286Y0359298D03*
X0131286Y0359298D03*
X0121286Y0359298D03*
X0111286Y0359298D03*
X0111286Y0381857D03*
X0121286Y0381857D03*
X0131286Y0381857D03*
X0141286Y0381857D03*
X0151286Y0381857D03*
X0161286Y0381857D03*
X0171286Y0381857D03*
X0181286Y0381857D03*
X0191286Y0381857D03*
X0201286Y0381857D03*
X0211286Y0381857D03*
X0221286Y0381857D03*
X0231286Y0381857D03*
X0241286Y0381857D03*
X0251286Y0381857D03*
X0261286Y0381857D03*
X0271286Y0381857D03*
X0281286Y0381857D03*
X0291286Y0381857D03*
X0301286Y0381857D03*
X0319286Y0381857D03*
X0329286Y0381857D03*
X0339286Y0381857D03*
X0349286Y0381857D03*
X0359286Y0381857D03*
X0369286Y0381857D03*
X0379286Y0381857D03*
X0389286Y0381857D03*
X0399286Y0381857D03*
X0409286Y0381857D03*
X0419286Y0381857D03*
X0429286Y0381857D03*
X0439286Y0381857D03*
X0449286Y0381857D03*
X0459286Y0381857D03*
X0469286Y0381857D03*
X0479286Y0381857D03*
X0489286Y0381857D03*
X0499286Y0381857D03*
X0509286Y0381857D03*
D15*
X0509286Y0375577D03*
X0509286Y0365577D03*
X0499286Y0365577D03*
X0499286Y0375577D03*
X0489286Y0375577D03*
X0489286Y0365577D03*
X0479286Y0365577D03*
X0469286Y0365577D03*
X0469286Y0375577D03*
X0479286Y0375577D03*
X0459286Y0375577D03*
X0459286Y0365577D03*
X0449286Y0365577D03*
X0449286Y0375577D03*
X0439286Y0375577D03*
X0439286Y0365577D03*
X0429286Y0365577D03*
X0419286Y0365577D03*
X0419286Y0375577D03*
X0429286Y0375577D03*
X0409286Y0375577D03*
X0409286Y0365577D03*
X0399286Y0365577D03*
X0389286Y0365577D03*
X0389286Y0375577D03*
X0399286Y0375577D03*
X0379286Y0375577D03*
X0379286Y0365577D03*
X0369286Y0365577D03*
X0369286Y0375577D03*
X0359286Y0375577D03*
X0359286Y0365577D03*
X0349286Y0365577D03*
X0339286Y0365577D03*
X0339286Y0375577D03*
X0349286Y0375577D03*
X0329286Y0375577D03*
X0329286Y0365577D03*
X0319286Y0365577D03*
X0319286Y0375577D03*
X0301286Y0375577D03*
X0301286Y0365577D03*
X0291286Y0365577D03*
X0281286Y0365577D03*
X0281286Y0375577D03*
X0291286Y0375577D03*
X0271286Y0375577D03*
X0271286Y0365577D03*
X0261286Y0365577D03*
X0251286Y0365577D03*
X0251286Y0375577D03*
X0261286Y0375577D03*
X0241286Y0375577D03*
X0241286Y0365577D03*
X0231286Y0365577D03*
X0231286Y0375577D03*
X0221286Y0375577D03*
X0221286Y0365577D03*
X0211286Y0365577D03*
X0201286Y0365577D03*
X0201286Y0375577D03*
X0211286Y0375577D03*
X0191286Y0375577D03*
X0191286Y0365577D03*
X0181286Y0365577D03*
X0181286Y0375577D03*
X0171286Y0375577D03*
X0171286Y0365577D03*
X0161286Y0365577D03*
X0151286Y0365577D03*
X0151286Y0375577D03*
X0161286Y0375577D03*
X0141286Y0375577D03*
X0141286Y0365577D03*
X0131286Y0365577D03*
X0131286Y0375577D03*
X0121286Y0375577D03*
X0121286Y0365577D03*
X0111286Y0365577D03*
X0111286Y0375577D03*
X0111286Y0283231D03*
X0111286Y0273231D03*
X0121286Y0273231D03*
X0121286Y0283231D03*
X0131286Y0283231D03*
X0141286Y0283231D03*
X0141286Y0273231D03*
X0131286Y0273231D03*
X0151286Y0273231D03*
X0161286Y0273231D03*
X0161286Y0283231D03*
X0151286Y0283231D03*
X0171286Y0283231D03*
X0171286Y0273231D03*
X0181286Y0273231D03*
X0191286Y0273231D03*
X0191286Y0283231D03*
X0181286Y0283231D03*
X0201286Y0283231D03*
X0211286Y0283231D03*
X0211286Y0273231D03*
X0201286Y0273231D03*
X0221286Y0273231D03*
X0221286Y0283231D03*
X0231286Y0283231D03*
X0241286Y0283231D03*
X0241286Y0273231D03*
X0231286Y0273231D03*
X0251286Y0273231D03*
X0261286Y0273231D03*
X0261286Y0283231D03*
X0251286Y0283231D03*
X0271286Y0283231D03*
X0271286Y0273231D03*
X0281286Y0273231D03*
X0291286Y0273231D03*
X0291286Y0283231D03*
X0281286Y0283231D03*
X0301286Y0283231D03*
X0301286Y0273231D03*
X0319286Y0273231D03*
X0329286Y0273231D03*
X0329286Y0283231D03*
X0319286Y0283231D03*
X0339286Y0283231D03*
X0349286Y0283231D03*
X0349286Y0273231D03*
X0339286Y0273231D03*
X0359286Y0273231D03*
X0359286Y0283231D03*
X0369286Y0283231D03*
X0379286Y0283231D03*
X0379286Y0273231D03*
X0369286Y0273231D03*
X0389286Y0273231D03*
X0399286Y0273231D03*
X0399286Y0283231D03*
X0389286Y0283231D03*
X0409286Y0283231D03*
X0409286Y0273231D03*
X0419286Y0273231D03*
X0429286Y0273231D03*
X0429286Y0283231D03*
X0419286Y0283231D03*
X0439286Y0283231D03*
X0439286Y0273231D03*
X0449286Y0273231D03*
X0459286Y0273231D03*
X0459286Y0283231D03*
X0449286Y0283231D03*
X0469286Y0283231D03*
X0479286Y0283231D03*
X0479286Y0273231D03*
X0469286Y0273231D03*
X0489286Y0273231D03*
X0489286Y0283231D03*
X0499286Y0283231D03*
X0509286Y0283231D03*
X0509286Y0273231D03*
X0499286Y0273231D03*
X0499286Y0190231D03*
X0509286Y0190231D03*
X0509286Y0180231D03*
X0499286Y0180231D03*
X0489286Y0180231D03*
X0479286Y0180231D03*
X0469286Y0180231D03*
X0459286Y0180231D03*
X0449286Y0180231D03*
X0439286Y0180231D03*
X0429286Y0180231D03*
X0419286Y0180231D03*
X0409286Y0180231D03*
X0399286Y0180231D03*
X0389286Y0180231D03*
X0379286Y0180231D03*
X0369286Y0180231D03*
X0359286Y0180231D03*
X0349286Y0180231D03*
X0339286Y0180231D03*
X0329286Y0180231D03*
X0319286Y0180231D03*
X0319286Y0190231D03*
X0329286Y0190231D03*
X0339286Y0190231D03*
X0349286Y0190231D03*
X0359286Y0190231D03*
X0369286Y0190231D03*
X0379286Y0190231D03*
X0389286Y0190231D03*
X0399286Y0190231D03*
X0409286Y0190231D03*
X0419286Y0190231D03*
X0429286Y0190231D03*
X0439286Y0190231D03*
X0449286Y0190231D03*
X0459286Y0190231D03*
X0469286Y0190231D03*
X0479286Y0190231D03*
X0489286Y0190231D03*
X0489286Y0097231D03*
X0479286Y0097231D03*
X0469286Y0097231D03*
X0459286Y0097231D03*
X0449286Y0097231D03*
X0439286Y0097231D03*
X0429286Y0097231D03*
X0419286Y0097231D03*
X0409286Y0097231D03*
X0399286Y0097231D03*
X0389286Y0097231D03*
X0379286Y0097231D03*
X0369286Y0097231D03*
X0359286Y0097231D03*
X0349286Y0097231D03*
X0339286Y0097231D03*
X0329286Y0097231D03*
X0319286Y0097231D03*
X0319286Y0087231D03*
X0329286Y0087231D03*
X0339286Y0087231D03*
X0349286Y0087231D03*
X0359286Y0087231D03*
X0369286Y0087231D03*
X0379286Y0087231D03*
X0389286Y0087231D03*
X0399286Y0087231D03*
X0409286Y0087231D03*
X0419286Y0087231D03*
X0429286Y0087231D03*
X0439286Y0087231D03*
X0449286Y0087231D03*
X0459286Y0087231D03*
X0469286Y0087231D03*
X0479286Y0087231D03*
X0489286Y0087231D03*
X0499286Y0087231D03*
X0509286Y0087231D03*
X0509286Y0097231D03*
X0499286Y0097231D03*
X0301286Y0097231D03*
X0291286Y0097231D03*
X0281286Y0097231D03*
X0271286Y0097231D03*
X0261286Y0097231D03*
X0251286Y0097231D03*
X0241286Y0097231D03*
X0231286Y0097231D03*
X0221286Y0097231D03*
X0211286Y0097231D03*
X0201286Y0097231D03*
X0191286Y0097231D03*
X0181286Y0097231D03*
X0171286Y0097231D03*
X0161286Y0097231D03*
X0151286Y0097231D03*
X0141286Y0097231D03*
X0131286Y0097231D03*
X0121286Y0097231D03*
X0111286Y0097231D03*
X0111286Y0087231D03*
X0121286Y0087231D03*
X0131286Y0087231D03*
X0141286Y0087231D03*
X0151286Y0087231D03*
X0161286Y0087231D03*
X0171286Y0087231D03*
X0181286Y0087231D03*
X0191286Y0087231D03*
X0201286Y0087231D03*
X0211286Y0087231D03*
X0221286Y0087231D03*
X0231286Y0087231D03*
X0241286Y0087231D03*
X0251286Y0087231D03*
X0261286Y0087231D03*
X0271286Y0087231D03*
X0281286Y0087231D03*
X0291286Y0087231D03*
X0301286Y0087231D03*
X0301286Y0180231D03*
X0291286Y0180231D03*
X0281286Y0180231D03*
X0271286Y0180231D03*
X0261286Y0180231D03*
X0251286Y0180231D03*
X0241286Y0180231D03*
X0231286Y0180231D03*
X0221286Y0180231D03*
X0211286Y0180231D03*
X0201286Y0180231D03*
X0191286Y0180231D03*
X0181286Y0180231D03*
X0171286Y0180231D03*
X0161286Y0180231D03*
X0151286Y0180231D03*
X0141286Y0180231D03*
X0131286Y0180231D03*
X0121286Y0180231D03*
X0111286Y0180231D03*
X0111286Y0190231D03*
X0121286Y0190231D03*
X0131286Y0190231D03*
X0141286Y0190231D03*
X0151286Y0190231D03*
X0161286Y0190231D03*
X0171286Y0190231D03*
X0181286Y0190231D03*
X0191286Y0190231D03*
X0201286Y0190231D03*
X0211286Y0190231D03*
X0221286Y0190231D03*
X0231286Y0190231D03*
X0241286Y0190231D03*
X0251286Y0190231D03*
X0261286Y0190231D03*
X0271286Y0190231D03*
X0281286Y0190231D03*
X0291286Y0190231D03*
X0301286Y0190231D03*
D16*
X0296286Y0185231D03*
X0324286Y0185231D03*
X0324286Y0278231D03*
X0296286Y0278231D03*
X0296286Y0370577D03*
X0324286Y0370577D03*
X0504286Y0370577D03*
X0504286Y0278231D03*
X0504286Y0185231D03*
X0504286Y0092231D03*
X0324286Y0092231D03*
X0296286Y0092231D03*
X0116286Y0092231D03*
X0116286Y0185231D03*
X0116286Y0278231D03*
X0116286Y0370577D03*
D17*
X0114987Y0321680D03*
X0121680Y0321680D03*
X0121680Y0229333D03*
X0114987Y0229333D03*
X0114987Y0136333D03*
X0121680Y0136333D03*
X0121680Y0043333D03*
X0114987Y0043333D03*
X0322987Y0043333D03*
X0329680Y0043333D03*
X0329680Y0136333D03*
X0322987Y0136333D03*
X0322987Y0229333D03*
X0329680Y0229333D03*
X0329680Y0321680D03*
X0322987Y0321680D03*
D18*
X0341333Y0310026D03*
X0341333Y0303333D03*
X0341333Y0217680D03*
X0341333Y0210987D03*
X0341333Y0124680D03*
X0341333Y0117987D03*
X0341333Y0031680D03*
X0341333Y0024987D03*
X0133333Y0024987D03*
X0133333Y0031680D03*
X0133333Y0117987D03*
X0133333Y0124680D03*
X0133333Y0210987D03*
X0133333Y0217680D03*
X0133333Y0303333D03*
X0133333Y0310026D03*
D19*
X0123452Y0310420D03*
X0123452Y0302940D03*
X0113215Y0302940D03*
X0113215Y0306680D03*
X0113215Y0310420D03*
X0113215Y0218073D03*
X0113215Y0214333D03*
X0113215Y0210593D03*
X0123452Y0210593D03*
X0123452Y0218073D03*
X0123452Y0125073D03*
X0123452Y0117593D03*
X0113215Y0117593D03*
X0113215Y0121333D03*
X0113215Y0125073D03*
X0113215Y0032073D03*
X0113215Y0028333D03*
X0113215Y0024593D03*
X0123452Y0024593D03*
X0123452Y0032073D03*
X0321215Y0032073D03*
X0321215Y0028333D03*
X0321215Y0024593D03*
X0331452Y0024593D03*
X0331452Y0032073D03*
X0331452Y0117593D03*
X0331452Y0125073D03*
X0321215Y0125073D03*
X0321215Y0121333D03*
X0321215Y0117593D03*
X0321215Y0210593D03*
X0321215Y0214333D03*
X0321215Y0218073D03*
X0331452Y0218073D03*
X0331452Y0210593D03*
X0331452Y0302940D03*
X0331452Y0310420D03*
X0321215Y0310420D03*
X0321215Y0306680D03*
X0321215Y0302940D03*
D20*
X0108333Y0028333D03*
X0128333Y0023333D03*
X0143333Y0043333D03*
X0173333Y0043333D03*
X0173333Y0038333D03*
X0208333Y0038333D03*
X0208333Y0043333D03*
X0238333Y0043333D03*
X0238333Y0038333D03*
X0203333Y0073333D03*
X0176333Y0080833D03*
X0166333Y0080833D03*
X0156333Y0103333D03*
X0146333Y0103333D03*
X0128333Y0116333D03*
X0108333Y0121333D03*
X0143333Y0136333D03*
X0173333Y0136333D03*
X0173333Y0131333D03*
X0208333Y0131333D03*
X0208333Y0136333D03*
X0238333Y0136333D03*
X0238333Y0131333D03*
X0235833Y0103333D03*
X0226333Y0103333D03*
X0246333Y0080833D03*
X0276333Y0080833D03*
X0296333Y0103333D03*
X0316333Y0121333D03*
X0336333Y0116333D03*
X0354333Y0103333D03*
X0364333Y0103333D03*
X0374333Y0080833D03*
X0384333Y0080833D03*
X0411333Y0073333D03*
X0416333Y0043333D03*
X0416333Y0038333D03*
X0446333Y0038333D03*
X0446333Y0043333D03*
X0454333Y0080833D03*
X0443833Y0103333D03*
X0434333Y0103333D03*
X0446333Y0131333D03*
X0446333Y0136333D03*
X0416333Y0136333D03*
X0416333Y0131333D03*
X0381333Y0131333D03*
X0381333Y0136333D03*
X0351333Y0136333D03*
X0341333Y0166333D03*
X0354333Y0196333D03*
X0364333Y0196333D03*
X0374333Y0173833D03*
X0384333Y0173833D03*
X0411333Y0166333D03*
X0434333Y0196333D03*
X0443833Y0196333D03*
X0454333Y0173833D03*
X0484333Y0173833D03*
X0504333Y0196333D03*
X0446333Y0224333D03*
X0446333Y0229333D03*
X0416333Y0229333D03*
X0416333Y0224333D03*
X0381333Y0224333D03*
X0381333Y0229333D03*
X0351333Y0229333D03*
X0336333Y0209333D03*
X0316333Y0214333D03*
X0296333Y0196333D03*
X0276333Y0173833D03*
X0246333Y0173833D03*
X0235833Y0196333D03*
X0226333Y0196333D03*
X0238333Y0224333D03*
X0238333Y0229333D03*
X0208333Y0229333D03*
X0208333Y0224333D03*
X0173333Y0224333D03*
X0173333Y0229333D03*
X0143333Y0229333D03*
X0128333Y0209333D03*
X0108333Y0214333D03*
X0146333Y0196333D03*
X0156333Y0196333D03*
X0166333Y0173833D03*
X0176333Y0173833D03*
X0203333Y0166333D03*
X0133333Y0166333D03*
X0133333Y0073333D03*
X0316333Y0028333D03*
X0336333Y0023333D03*
X0351333Y0043333D03*
X0381333Y0043333D03*
X0381333Y0038333D03*
X0341333Y0073333D03*
X0484333Y0080833D03*
X0504333Y0103333D03*
X0411333Y0259333D03*
X0384333Y0266833D03*
X0374333Y0266833D03*
X0364333Y0289333D03*
X0354333Y0289333D03*
X0336333Y0301680D03*
X0316333Y0306680D03*
X0296333Y0289333D03*
X0276333Y0266833D03*
X0246333Y0266833D03*
X0235833Y0289333D03*
X0226333Y0289333D03*
X0238333Y0316680D03*
X0238333Y0321680D03*
X0208333Y0321680D03*
X0208333Y0316680D03*
X0173333Y0316680D03*
X0173333Y0321680D03*
X0143333Y0321680D03*
X0128333Y0301680D03*
X0108333Y0306680D03*
X0146333Y0289333D03*
X0156333Y0289333D03*
X0166333Y0266833D03*
X0176333Y0266833D03*
X0203333Y0259333D03*
X0133333Y0259333D03*
X0133333Y0351680D03*
X0146333Y0381680D03*
X0156333Y0381680D03*
X0166333Y0359180D03*
X0176333Y0359180D03*
X0203333Y0351680D03*
X0226333Y0381680D03*
X0235833Y0381680D03*
X0246333Y0359180D03*
X0276333Y0359180D03*
X0296333Y0381680D03*
X0341333Y0351680D03*
X0351333Y0321680D03*
X0381333Y0321680D03*
X0381333Y0316680D03*
X0416333Y0316680D03*
X0416333Y0321680D03*
X0446333Y0321680D03*
X0446333Y0316680D03*
X0443833Y0289333D03*
X0434333Y0289333D03*
X0454333Y0266833D03*
X0484333Y0266833D03*
X0504333Y0289333D03*
X0484333Y0359180D03*
X0504333Y0381680D03*
X0454333Y0359180D03*
X0443833Y0381680D03*
X0434333Y0381680D03*
X0411333Y0351680D03*
X0384333Y0359180D03*
X0374333Y0359180D03*
X0364333Y0381680D03*
X0354333Y0381680D03*
X0341333Y0259333D03*
M02*
