G75*
%MOIN*%
%OFA0B0*%
%FSLAX25Y25*%
%IPPOS*%
%LPD*%
%AMOC8*
5,1,8,0,0,1.08239X$1,22.5*
%
%ADD10R,0.04724X0.07874*%
%ADD11R,0.02362X0.05315*%
%ADD12R,0.04016X0.07362*%
%ADD13R,0.04331X0.03937*%
%ADD14R,0.03937X0.04331*%
%ADD15R,0.04724X0.02165*%
D10*
X0142310Y0023865D03*
X0164357Y0023865D03*
X0177310Y0023865D03*
X0199357Y0023865D03*
X0212310Y0023865D03*
X0234357Y0023865D03*
X0247313Y0023865D03*
X0269360Y0023865D03*
X0350310Y0023865D03*
X0372357Y0023865D03*
X0385310Y0023865D03*
X0407357Y0023865D03*
X0420310Y0023865D03*
X0442357Y0023865D03*
X0455313Y0023865D03*
X0477360Y0023865D03*
X0477360Y0116865D03*
X0455313Y0116865D03*
X0442357Y0116865D03*
X0420310Y0116865D03*
X0407357Y0116865D03*
X0385310Y0116865D03*
X0372357Y0116865D03*
X0350310Y0116865D03*
X0269360Y0116865D03*
X0247313Y0116865D03*
X0234357Y0116865D03*
X0212310Y0116865D03*
X0199357Y0116865D03*
X0177310Y0116865D03*
X0164357Y0116865D03*
X0142310Y0116865D03*
X0142310Y0209865D03*
X0164357Y0209865D03*
X0177310Y0209865D03*
X0199357Y0209865D03*
X0212310Y0209865D03*
X0234357Y0209865D03*
X0247313Y0209865D03*
X0269360Y0209865D03*
X0350310Y0209865D03*
X0372357Y0209865D03*
X0385310Y0209865D03*
X0407357Y0209865D03*
X0420310Y0209865D03*
X0442357Y0209865D03*
X0455313Y0209865D03*
X0477360Y0209865D03*
X0477360Y0302212D03*
X0455313Y0302212D03*
X0442357Y0302211D03*
X0420310Y0302211D03*
X0407357Y0302211D03*
X0385310Y0302211D03*
X0372357Y0302211D03*
X0350310Y0302211D03*
X0269360Y0302212D03*
X0247313Y0302212D03*
X0234357Y0302211D03*
X0212310Y0302211D03*
X0199357Y0302211D03*
X0177310Y0302211D03*
X0164357Y0302211D03*
X0142310Y0302211D03*
D11*
X0147428Y0316680D03*
X0151365Y0316680D03*
X0155302Y0316680D03*
X0159239Y0316680D03*
X0182428Y0316680D03*
X0186365Y0316680D03*
X0190302Y0316680D03*
X0194239Y0316680D03*
X0217428Y0316680D03*
X0221365Y0316680D03*
X0225302Y0316680D03*
X0229239Y0316680D03*
X0252431Y0316680D03*
X0256368Y0316680D03*
X0260305Y0316680D03*
X0264242Y0316680D03*
X0355428Y0316680D03*
X0359365Y0316680D03*
X0363302Y0316680D03*
X0367239Y0316680D03*
X0390428Y0316680D03*
X0394365Y0316680D03*
X0398302Y0316680D03*
X0402239Y0316680D03*
X0425428Y0316680D03*
X0429365Y0316680D03*
X0433302Y0316680D03*
X0437239Y0316680D03*
X0460431Y0316680D03*
X0464368Y0316680D03*
X0468305Y0316680D03*
X0472242Y0316680D03*
X0472242Y0224334D03*
X0468305Y0224334D03*
X0464368Y0224334D03*
X0460431Y0224334D03*
X0437239Y0224333D03*
X0433302Y0224333D03*
X0429365Y0224333D03*
X0425428Y0224333D03*
X0402239Y0224333D03*
X0398302Y0224333D03*
X0394365Y0224333D03*
X0390428Y0224333D03*
X0367239Y0224333D03*
X0363302Y0224333D03*
X0359365Y0224333D03*
X0355428Y0224333D03*
X0264242Y0224334D03*
X0260305Y0224334D03*
X0256368Y0224334D03*
X0252431Y0224334D03*
X0229239Y0224333D03*
X0225302Y0224333D03*
X0221365Y0224333D03*
X0217428Y0224333D03*
X0194239Y0224333D03*
X0190302Y0224333D03*
X0186365Y0224333D03*
X0182428Y0224333D03*
X0159239Y0224333D03*
X0155302Y0224333D03*
X0151365Y0224333D03*
X0147428Y0224333D03*
X0147428Y0131333D03*
X0151365Y0131333D03*
X0155302Y0131333D03*
X0159239Y0131333D03*
X0182428Y0131333D03*
X0186365Y0131333D03*
X0190302Y0131333D03*
X0194239Y0131333D03*
X0217428Y0131333D03*
X0221365Y0131333D03*
X0225302Y0131333D03*
X0229239Y0131333D03*
X0252431Y0131334D03*
X0256368Y0131334D03*
X0260305Y0131334D03*
X0264242Y0131334D03*
X0355428Y0131333D03*
X0359365Y0131333D03*
X0363302Y0131333D03*
X0367239Y0131333D03*
X0390428Y0131333D03*
X0394365Y0131333D03*
X0398302Y0131333D03*
X0402239Y0131333D03*
X0425428Y0131333D03*
X0429365Y0131333D03*
X0433302Y0131333D03*
X0437239Y0131333D03*
X0460431Y0131334D03*
X0464368Y0131334D03*
X0468305Y0131334D03*
X0472242Y0131334D03*
X0472242Y0038334D03*
X0468305Y0038334D03*
X0464368Y0038334D03*
X0460431Y0038334D03*
X0437239Y0038333D03*
X0433302Y0038333D03*
X0429365Y0038333D03*
X0425428Y0038333D03*
X0402239Y0038333D03*
X0398302Y0038333D03*
X0394365Y0038333D03*
X0390428Y0038333D03*
X0367239Y0038333D03*
X0363302Y0038333D03*
X0359365Y0038333D03*
X0355428Y0038333D03*
X0264242Y0038334D03*
X0260305Y0038334D03*
X0256368Y0038334D03*
X0252431Y0038334D03*
X0229239Y0038333D03*
X0225302Y0038333D03*
X0221365Y0038333D03*
X0217428Y0038333D03*
X0194239Y0038333D03*
X0190302Y0038333D03*
X0186365Y0038333D03*
X0182428Y0038333D03*
X0159239Y0038333D03*
X0155302Y0038333D03*
X0151365Y0038333D03*
X0147428Y0038333D03*
D12*
X0111286Y0080951D03*
X0121286Y0080951D03*
X0131286Y0080951D03*
X0141286Y0080951D03*
X0151286Y0080951D03*
X0161286Y0080951D03*
X0171286Y0080951D03*
X0181286Y0080951D03*
X0191286Y0080951D03*
X0201286Y0080951D03*
X0211286Y0080951D03*
X0221286Y0080951D03*
X0231286Y0080951D03*
X0241286Y0080951D03*
X0251286Y0080951D03*
X0261286Y0080951D03*
X0271286Y0080951D03*
X0281286Y0080951D03*
X0291286Y0080951D03*
X0301286Y0080951D03*
X0319286Y0080951D03*
X0329286Y0080951D03*
X0339286Y0080951D03*
X0349286Y0080951D03*
X0359286Y0080951D03*
X0369286Y0080951D03*
X0379286Y0080951D03*
X0389286Y0080951D03*
X0399286Y0080951D03*
X0409286Y0080951D03*
X0419286Y0080951D03*
X0429286Y0080951D03*
X0439286Y0080951D03*
X0449286Y0080951D03*
X0459286Y0080951D03*
X0469286Y0080951D03*
X0479286Y0080951D03*
X0489286Y0080951D03*
X0499286Y0080951D03*
X0509286Y0080951D03*
X0509286Y0103510D03*
X0499286Y0103510D03*
X0489286Y0103510D03*
X0479286Y0103510D03*
X0469286Y0103510D03*
X0459286Y0103510D03*
X0449286Y0103510D03*
X0439286Y0103510D03*
X0429286Y0103510D03*
X0419286Y0103510D03*
X0409286Y0103510D03*
X0399286Y0103510D03*
X0389286Y0103510D03*
X0379286Y0103510D03*
X0369286Y0103510D03*
X0359286Y0103510D03*
X0349286Y0103510D03*
X0339286Y0103510D03*
X0329286Y0103510D03*
X0319286Y0103510D03*
X0301286Y0103510D03*
X0291286Y0103510D03*
X0281286Y0103510D03*
X0271286Y0103510D03*
X0261286Y0103510D03*
X0251286Y0103510D03*
X0241286Y0103510D03*
X0231286Y0103510D03*
X0221286Y0103510D03*
X0211286Y0103510D03*
X0201286Y0103510D03*
X0191286Y0103510D03*
X0181286Y0103510D03*
X0171286Y0103510D03*
X0161286Y0103510D03*
X0151286Y0103510D03*
X0141286Y0103510D03*
X0131286Y0103510D03*
X0121286Y0103510D03*
X0111286Y0103510D03*
X0111286Y0173951D03*
X0121286Y0173951D03*
X0131286Y0173951D03*
X0141286Y0173951D03*
X0151286Y0173951D03*
X0161286Y0173951D03*
X0171286Y0173951D03*
X0181286Y0173951D03*
X0191286Y0173951D03*
X0201286Y0173951D03*
X0211286Y0173951D03*
X0221286Y0173951D03*
X0231286Y0173951D03*
X0241286Y0173951D03*
X0251286Y0173951D03*
X0261286Y0173951D03*
X0271286Y0173951D03*
X0281286Y0173951D03*
X0291286Y0173951D03*
X0301286Y0173951D03*
X0319286Y0173951D03*
X0329286Y0173951D03*
X0339286Y0173951D03*
X0349286Y0173951D03*
X0359286Y0173951D03*
X0369286Y0173951D03*
X0379286Y0173951D03*
X0389286Y0173951D03*
X0399286Y0173951D03*
X0409286Y0173951D03*
X0419286Y0173951D03*
X0429286Y0173951D03*
X0439286Y0173951D03*
X0449286Y0173951D03*
X0459286Y0173951D03*
X0469286Y0173951D03*
X0479286Y0173951D03*
X0489286Y0173951D03*
X0499286Y0173951D03*
X0509286Y0173951D03*
X0509286Y0196510D03*
X0499286Y0196510D03*
X0489286Y0196510D03*
X0479286Y0196510D03*
X0469286Y0196510D03*
X0459286Y0196510D03*
X0449286Y0196510D03*
X0439286Y0196510D03*
X0429286Y0196510D03*
X0419286Y0196510D03*
X0409286Y0196510D03*
X0399286Y0196510D03*
X0389286Y0196510D03*
X0379286Y0196510D03*
X0369286Y0196510D03*
X0359286Y0196510D03*
X0349286Y0196510D03*
X0339286Y0196510D03*
X0329286Y0196510D03*
X0319286Y0196510D03*
X0301286Y0196510D03*
X0291286Y0196510D03*
X0281286Y0196510D03*
X0271286Y0196510D03*
X0261286Y0196510D03*
X0251286Y0196510D03*
X0241286Y0196510D03*
X0231286Y0196510D03*
X0221286Y0196510D03*
X0211286Y0196510D03*
X0201286Y0196510D03*
X0191286Y0196510D03*
X0181286Y0196510D03*
X0171286Y0196510D03*
X0161286Y0196510D03*
X0151286Y0196510D03*
X0141286Y0196510D03*
X0131286Y0196510D03*
X0121286Y0196510D03*
X0111286Y0196510D03*
X0111286Y0266951D03*
X0121286Y0266951D03*
X0131286Y0266951D03*
X0141286Y0266951D03*
X0151286Y0266951D03*
X0161286Y0266951D03*
X0171286Y0266951D03*
X0181286Y0266951D03*
X0191286Y0266951D03*
X0201286Y0266951D03*
X0211286Y0266951D03*
X0221286Y0266951D03*
X0231286Y0266951D03*
X0241286Y0266951D03*
X0251286Y0266951D03*
X0261286Y0266951D03*
X0271286Y0266951D03*
X0281286Y0266951D03*
X0291286Y0266951D03*
X0301286Y0266951D03*
X0319286Y0266951D03*
X0329286Y0266951D03*
X0339286Y0266951D03*
X0349286Y0266951D03*
X0359286Y0266951D03*
X0369286Y0266951D03*
X0379286Y0266951D03*
X0389286Y0266951D03*
X0399286Y0266951D03*
X0409286Y0266951D03*
X0419286Y0266951D03*
X0429286Y0266951D03*
X0439286Y0266951D03*
X0449286Y0266951D03*
X0459286Y0266951D03*
X0469286Y0266951D03*
X0479286Y0266951D03*
X0489286Y0266951D03*
X0499286Y0266951D03*
X0509286Y0266951D03*
X0509286Y0289510D03*
X0499286Y0289510D03*
X0489286Y0289510D03*
X0479286Y0289510D03*
X0469286Y0289510D03*
X0459286Y0289510D03*
X0449286Y0289510D03*
X0439286Y0289510D03*
X0429286Y0289510D03*
X0419286Y0289510D03*
X0409286Y0289510D03*
X0399286Y0289510D03*
X0389286Y0289510D03*
X0379286Y0289510D03*
X0369286Y0289510D03*
X0359286Y0289510D03*
X0349286Y0289510D03*
X0339286Y0289510D03*
X0329286Y0289510D03*
X0319286Y0289510D03*
X0301286Y0289510D03*
X0291286Y0289510D03*
X0281286Y0289510D03*
X0271286Y0289510D03*
X0261286Y0289510D03*
X0251286Y0289510D03*
X0241286Y0289510D03*
X0231286Y0289510D03*
X0221286Y0289510D03*
X0211286Y0289510D03*
X0201286Y0289510D03*
X0191286Y0289510D03*
X0181286Y0289510D03*
X0171286Y0289510D03*
X0161286Y0289510D03*
X0151286Y0289510D03*
X0141286Y0289510D03*
X0131286Y0289510D03*
X0121286Y0289510D03*
X0111286Y0289510D03*
X0111286Y0359298D03*
X0121286Y0359298D03*
X0131286Y0359298D03*
X0141286Y0359298D03*
X0151286Y0359298D03*
X0161286Y0359298D03*
X0171286Y0359298D03*
X0181286Y0359298D03*
X0191286Y0359298D03*
X0201286Y0359298D03*
X0211286Y0359298D03*
X0221286Y0359298D03*
X0231286Y0359298D03*
X0241286Y0359298D03*
X0251286Y0359298D03*
X0261286Y0359298D03*
X0271286Y0359298D03*
X0281286Y0359298D03*
X0291286Y0359298D03*
X0301286Y0359298D03*
X0319286Y0359298D03*
X0329286Y0359298D03*
X0339286Y0359298D03*
X0349286Y0359298D03*
X0359286Y0359298D03*
X0369286Y0359298D03*
X0379286Y0359298D03*
X0389286Y0359298D03*
X0399286Y0359298D03*
X0409286Y0359298D03*
X0419286Y0359298D03*
X0429286Y0359298D03*
X0439286Y0359298D03*
X0449286Y0359298D03*
X0459286Y0359298D03*
X0469286Y0359298D03*
X0479286Y0359298D03*
X0489286Y0359298D03*
X0499286Y0359298D03*
X0509286Y0359298D03*
X0509286Y0381857D03*
X0499286Y0381857D03*
X0489286Y0381857D03*
X0479286Y0381857D03*
X0469286Y0381857D03*
X0459286Y0381857D03*
X0449286Y0381857D03*
X0439286Y0381857D03*
X0429286Y0381857D03*
X0419286Y0381857D03*
X0409286Y0381857D03*
X0399286Y0381857D03*
X0389286Y0381857D03*
X0379286Y0381857D03*
X0369286Y0381857D03*
X0359286Y0381857D03*
X0349286Y0381857D03*
X0339286Y0381857D03*
X0329286Y0381857D03*
X0319286Y0381857D03*
X0301286Y0381857D03*
X0291286Y0381857D03*
X0281286Y0381857D03*
X0271286Y0381857D03*
X0261286Y0381857D03*
X0251286Y0381857D03*
X0241286Y0381857D03*
X0231286Y0381857D03*
X0221286Y0381857D03*
X0211286Y0381857D03*
X0201286Y0381857D03*
X0191286Y0381857D03*
X0181286Y0381857D03*
X0171286Y0381857D03*
X0161286Y0381857D03*
X0151286Y0381857D03*
X0141286Y0381857D03*
X0131286Y0381857D03*
X0121286Y0381857D03*
X0111286Y0381857D03*
D13*
X0114987Y0321680D03*
X0121680Y0321680D03*
X0121680Y0229333D03*
X0114987Y0229333D03*
X0114987Y0136333D03*
X0121680Y0136333D03*
X0121680Y0043333D03*
X0114987Y0043333D03*
X0322987Y0043333D03*
X0329680Y0043333D03*
X0329680Y0136333D03*
X0322987Y0136333D03*
X0322987Y0229333D03*
X0329680Y0229333D03*
X0329680Y0321680D03*
X0322987Y0321680D03*
D14*
X0341333Y0310026D03*
X0341333Y0303333D03*
X0341333Y0217680D03*
X0341333Y0210987D03*
X0341333Y0124680D03*
X0341333Y0117987D03*
X0341333Y0031680D03*
X0341333Y0024987D03*
X0133333Y0024987D03*
X0133333Y0031680D03*
X0133333Y0117987D03*
X0133333Y0124680D03*
X0133333Y0210987D03*
X0133333Y0217680D03*
X0133333Y0303333D03*
X0133333Y0310026D03*
D15*
X0123452Y0310420D03*
X0123452Y0302940D03*
X0113215Y0302940D03*
X0113215Y0306680D03*
X0113215Y0310420D03*
X0113215Y0218073D03*
X0113215Y0214333D03*
X0113215Y0210593D03*
X0123452Y0210593D03*
X0123452Y0218073D03*
X0123452Y0125073D03*
X0123452Y0117593D03*
X0113215Y0117593D03*
X0113215Y0121333D03*
X0113215Y0125073D03*
X0113215Y0032073D03*
X0113215Y0028333D03*
X0113215Y0024593D03*
X0123452Y0024593D03*
X0123452Y0032073D03*
X0321215Y0032073D03*
X0321215Y0028333D03*
X0321215Y0024593D03*
X0331452Y0024593D03*
X0331452Y0032073D03*
X0331452Y0117593D03*
X0331452Y0125073D03*
X0321215Y0125073D03*
X0321215Y0121333D03*
X0321215Y0117593D03*
X0321215Y0210593D03*
X0321215Y0214333D03*
X0321215Y0218073D03*
X0331452Y0218073D03*
X0331452Y0210593D03*
X0331452Y0302940D03*
X0331452Y0310420D03*
X0321215Y0310420D03*
X0321215Y0306680D03*
X0321215Y0302940D03*
M02*
