%
M48
M72
T01C0.0150
T02C0.0400
T03C0.0402
T04C0.0709
%
T01
X10833Y2833
X12833Y2333
X14333Y4333
X17333Y4333
X17333Y3833
X20833Y3833
X20833Y4333
X23833Y4333
X23833Y3833
X20333Y7333
X17633Y8083
X16633Y8083
X15633Y10333
X14633Y10333
X12833Y11633
X10833Y12133
X14333Y13633
X17333Y13633
X17333Y13133
X20833Y13133
X20833Y13633
X23833Y13633
X23833Y13133
X23583Y10333
X22633Y10333
X24633Y8083
X27633Y8083
X29633Y10333
X31633Y12133
X33633Y11633
X35433Y10333
X36433Y10333
X37433Y8083
X38433Y8083
X41133Y7333
X41633Y4333
X41633Y3833
X44633Y3833
X44633Y4333
X45433Y8083
X44383Y10333
X43433Y10333
X44633Y13133
X44633Y13633
X41633Y13633
X41633Y13133
X38133Y13133
X38133Y13633
X35133Y13633
X34133Y16633
X35433Y19633
X36433Y19633
X37433Y17383
X38433Y17383
X41133Y16633
X43433Y19633
X44383Y19633
X45433Y17383
X48433Y17383
X50433Y19633
X44633Y22433
X44633Y22933
X41633Y22933
X41633Y22433
X38133Y22433
X38133Y22933
X35133Y22933
X33633Y20933
X31633Y21433
X29633Y19633
X27633Y17383
X24633Y17383
X23583Y19633
X22633Y19633
X23833Y22433
X23833Y22933
X20833Y22933
X20833Y22433
X17333Y22433
X17333Y22933
X14333Y22933
X12833Y20933
X10833Y21433
X14633Y19633
X15633Y19633
X16633Y17383
X17633Y17383
X20333Y16633
X13333Y16633
X13333Y7333
X31633Y2833
X33633Y2333
X35133Y4333
X38133Y4333
X38133Y3833
X34133Y7333
X48433Y8083
X50433Y10333
X41133Y25933
X38433Y26683
X37433Y26683
X36433Y28933
X35433Y28933
X33633Y30168
X31633Y30668
X29633Y28933
X27633Y26683
X24633Y26683
X23583Y28933
X22633Y28933
X23833Y31668
X23833Y32168
X20833Y32168
X20833Y31668
X17333Y31668
X17333Y32168
X14333Y32168
X12833Y30168
X10833Y30668
X14633Y28933
X15633Y28933
X16633Y26683
X17633Y26683
X20333Y25933
X13333Y25933
X13333Y35168
X14633Y38168
X15633Y38168
X16633Y35918
X17633Y35918
X20333Y35168
X22633Y38168
X23583Y38168
X24633Y35918
X27633Y35918
X29633Y38168
X34133Y35168
X35133Y32168
X38133Y32168
X38133Y31668
X41633Y31668
X41633Y32168
X44633Y32168
X44633Y31668
X44383Y28933
X43433Y28933
X45433Y26683
X48433Y26683
X50433Y28933
X48433Y35918
X50433Y38168
X45433Y35918
X44383Y38168
X43433Y38168
X41133Y35168
X38433Y35918
X37433Y35918
X36433Y38168
X35433Y38168
X34133Y25933
T02
X33633Y23933
X32633Y23933
X34633Y23933
X35633Y23933
X36633Y23933
X37633Y23933
X38633Y23933
X39633Y23933
X40633Y23933
X41633Y23933
X42633Y23933
X43633Y23933
X44633Y23933
X45633Y23933
X46633Y23933
X47633Y23933
X48633Y23933
X49633Y23933
X49633Y33168
X48633Y33168
X47633Y33168
X46633Y33168
X45633Y33168
X44633Y33168
X43633Y33168
X42633Y33168
X41633Y33168
X40633Y33168
X39633Y33168
X38633Y33168
X37633Y33168
X36633Y33168
X35633Y33168
X34633Y33168
X33633Y33168
X32633Y33168
X28833Y33168
X27833Y33168
X26833Y33168
X25833Y33168
X24833Y33168
X23833Y33168
X22833Y33168
X21833Y33168
X20833Y33168
X19833Y33168
X18833Y33168
X17833Y33168
X16833Y33168
X15833Y33168
X14833Y33168
X13833Y33168
X12833Y33168
X11833Y33168
X11833Y23933
X12833Y23933
X13833Y23933
X14833Y23933
X15833Y23933
X16833Y23933
X17833Y23933
X18833Y23933
X19833Y23933
X20833Y23933
X21833Y23933
X22833Y23933
X23833Y23933
X24833Y23933
X25833Y23933
X26833Y23933
X27833Y23933
X28833Y23933
X28833Y14633
X27833Y14633
X26833Y14633
X25833Y14633
X24833Y14633
X23833Y14633
X22833Y14633
X21833Y14633
X20833Y14633
X19833Y14633
X18833Y14633
X17833Y14633
X16833Y14633
X15833Y14633
X14833Y14633
X13833Y14633
X12833Y14633
X11833Y14633
X11833Y5333
X12833Y5333
X13833Y5333
X14833Y5333
X15833Y5333
X16833Y5333
X17833Y5333
X18833Y5333
X19833Y5333
X20833Y5333
X21833Y5333
X22833Y5333
X23833Y5333
X24833Y5333
X25833Y5333
X26833Y5333
X27833Y5333
X28833Y5333
X32633Y5333
X33633Y5333
X34633Y5333
X35633Y5333
X36633Y5333
X37633Y5333
X38633Y5333
X39633Y5333
X40633Y5333
X41633Y5333
X42633Y5333
X43633Y5333
X44633Y5333
X45633Y5333
X46633Y5333
X47633Y5333
X48633Y5333
X49633Y5333
X49633Y14633
X48633Y14633
X47633Y14633
X46633Y14633
X45633Y14633
X44633Y14633
X43633Y14633
X42633Y14633
X41633Y14633
X40633Y14633
X39633Y14633
X38633Y14633
X37633Y14633
X36633Y14633
X35633Y14633
X34633Y14633
X33633Y14633
X32633Y14633
T03
X32929Y18023
X31929Y18023
X31929Y19023
X32929Y19023
X33929Y19023
X34929Y19023
X35929Y19023
X36929Y19023
X37929Y19023
X38929Y19023
X39929Y19023
X40929Y19023
X41929Y19023
X42929Y19023
X43929Y19023
X44929Y19023
X45929Y19023
X46929Y19023
X47929Y19023
X48929Y19023
X49929Y19023
X50929Y19023
X50929Y18023
X49929Y18023
X48929Y18023
X47929Y18023
X46929Y18023
X45929Y18023
X44929Y18023
X43929Y18023
X42929Y18023
X41929Y18023
X40929Y18023
X39929Y18023
X38929Y18023
X37929Y18023
X36929Y18023
X35929Y18023
X34929Y18023
X33929Y18023
X30129Y18023
X30129Y19023
X29129Y19023
X28129Y19023
X28129Y18023
X29129Y18023
X27129Y18023
X27129Y19023
X26129Y19023
X25129Y19023
X25129Y18023
X26129Y18023
X24129Y18023
X23129Y18023
X23129Y19023
X24129Y19023
X22129Y19023
X22129Y18023
X21129Y18023
X20129Y18023
X20129Y19023
X21129Y19023
X19129Y19023
X18129Y19023
X18129Y18023
X19129Y18023
X17129Y18023
X17129Y19023
X16129Y19023
X15129Y19023
X15129Y18023
X16129Y18023
X14129Y18023
X13129Y18023
X13129Y19023
X14129Y19023
X12129Y19023
X12129Y18023
X11129Y18023
X11129Y19023
X11129Y27323
X12129Y27323
X13129Y27323
X14129Y27323
X15129Y27323
X16129Y27323
X17129Y27323
X18129Y27323
X19129Y27323
X20129Y27323
X21129Y27323
X22129Y27323
X23129Y27323
X24129Y27323
X25129Y27323
X26129Y27323
X27129Y27323
X28129Y27323
X29129Y27323
X30129Y27323
X30129Y28323
X29129Y28323
X28129Y28323
X27129Y28323
X26129Y28323
X25129Y28323
X24129Y28323
X23129Y28323
X22129Y28323
X21129Y28323
X20129Y28323
X19129Y28323
X18129Y28323
X17129Y28323
X16129Y28323
X15129Y28323
X14129Y28323
X13129Y28323
X12129Y28323
X11129Y28323
X11129Y36558
X11129Y37558
X12129Y37558
X12129Y36558
X13129Y36558
X14129Y36558
X14129Y37558
X13129Y37558
X15129Y37558
X16129Y37558
X16129Y36558
X15129Y36558
X17129Y36558
X17129Y37558
X18129Y37558
X19129Y37558
X19129Y36558
X18129Y36558
X20129Y36558
X21129Y36558
X21129Y37558
X20129Y37558
X22129Y37558
X22129Y36558
X23129Y36558
X24129Y36558
X24129Y37558
X23129Y37558
X25129Y37558
X26129Y37558
X26129Y36558
X25129Y36558
X27129Y36558
X27129Y37558
X28129Y37558
X29129Y37558
X29129Y36558
X28129Y36558
X30129Y36558
X30129Y37558
X31929Y37558
X32929Y37558
X32929Y36558
X31929Y36558
X33929Y36558
X34929Y36558
X34929Y37558
X33929Y37558
X35929Y37558
X35929Y36558
X36929Y36558
X37929Y36558
X37929Y37558
X36929Y37558
X38929Y37558
X39929Y37558
X39929Y36558
X38929Y36558
X40929Y36558
X40929Y37558
X41929Y37558
X42929Y37558
X42929Y36558
X41929Y36558
X43929Y36558
X43929Y37558
X44929Y37558
X45929Y37558
X45929Y36558
X44929Y36558
X46929Y36558
X47929Y36558
X47929Y37558
X46929Y37558
X48929Y37558
X48929Y36558
X49929Y36558
X50929Y36558
X50929Y37558
X49929Y37558
X49929Y28323
X50929Y28323
X50929Y27323
X49929Y27323
X48929Y27323
X48929Y28323
X47929Y28323
X46929Y28323
X46929Y27323
X47929Y27323
X45929Y27323
X44929Y27323
X44929Y28323
X45929Y28323
X43929Y28323
X43929Y27323
X42929Y27323
X41929Y27323
X41929Y28323
X42929Y28323
X40929Y28323
X40929Y27323
X39929Y27323
X38929Y27323
X38929Y28323
X39929Y28323
X37929Y28323
X36929Y28323
X36929Y27323
X37929Y27323
X35929Y27323
X35929Y28323
X34929Y28323
X33929Y28323
X33929Y27323
X34929Y27323
X32929Y27323
X31929Y27323
X31929Y28323
X32929Y28323
X32929Y9723
X31929Y9723
X31929Y8723
X32929Y8723
X33929Y8723
X34929Y8723
X35929Y8723
X36929Y8723
X37929Y8723
X38929Y8723
X39929Y8723
X40929Y8723
X41929Y8723
X42929Y8723
X43929Y8723
X44929Y8723
X45929Y8723
X46929Y8723
X47929Y8723
X48929Y8723
X49929Y8723
X50929Y8723
X50929Y9723
X49929Y9723
X48929Y9723
X47929Y9723
X46929Y9723
X45929Y9723
X44929Y9723
X43929Y9723
X42929Y9723
X41929Y9723
X40929Y9723
X39929Y9723
X38929Y9723
X37929Y9723
X36929Y9723
X35929Y9723
X34929Y9723
X33929Y9723
X30129Y9723
X30129Y8723
X29129Y8723
X28129Y8723
X28129Y9723
X29129Y9723
X27129Y9723
X27129Y8723
X26129Y8723
X25129Y8723
X25129Y9723
X26129Y9723
X24129Y9723
X23129Y9723
X23129Y8723
X24129Y8723
X22129Y8723
X22129Y9723
X21129Y9723
X20129Y9723
X20129Y8723
X21129Y8723
X19129Y8723
X18129Y8723
X18129Y9723
X19129Y9723
X17129Y9723
X17129Y8723
X16129Y8723
X15129Y8723
X15129Y9723
X16129Y9723
X14129Y9723
X13129Y9723
X13129Y8723
X14129Y8723
X12129Y8723
X12129Y9723
X11129Y9723
X11129Y8723
T04
X11629Y9223
X11629Y18523
X11629Y27823
X11629Y37058
X29629Y37058
X32429Y37058
X32429Y27823
X29629Y27823
X29629Y18523
X32429Y18523
X32429Y9223
X29629Y9223
X50429Y9223
X50429Y18523
X50429Y27823
X50429Y37058
M30
