%
M48
M72
T01C0.0150
T02C0.0200
T03C0.0400
T04C0.0472
T05C0.1200
%
T01
X32983Y10595
X33314Y10904
X32985Y13968
X33316Y14287
X32983Y22803
X33314Y23112
X32985Y26176
X33316Y26495
X32983Y35011
X33314Y35320
X32985Y38384
X33316Y38703
X32983Y47219
X33314Y47528
X32985Y50592
X33316Y50911
X32983Y59427
X33314Y59736
X32985Y62800
X33316Y63119
T02
X32133Y61131
X30883Y62231
X30833Y63731
X30457Y59622
X26533Y61881
X26033Y64331
X24433Y63431
X24639Y60231
X25023Y58621
X21851Y58169
X19733Y58621
X19339Y60231
X18683Y63381
X16509Y61054
X15767Y59819
X15763Y59021
X14043Y59391
X16133Y63381
X11533Y63431
X10233Y64041
X10233Y51834
X11533Y51224
X14043Y47184
X15763Y46814
X15767Y47611
X16509Y48846
X16133Y51174
X18683Y51174
X19339Y48024
X19733Y46414
X21851Y45961
X21933Y48874
X24639Y48024
X25023Y46414
X26533Y49674
X26033Y52124
X24433Y51224
X30457Y47415
X32133Y48924
X30883Y50024
X30833Y51524
X26033Y39916
X26533Y37466
X25023Y34206
X24639Y35816
X24433Y39016
X21933Y36666
X21851Y33754
X19733Y34206
X19339Y35816
X18683Y38966
X16509Y36638
X15767Y35404
X15763Y34606
X14043Y34976
X16133Y38966
X11533Y39016
X10233Y39626
X10233Y27418
X11533Y26808
X14043Y22768
X15763Y22398
X15767Y23196
X16509Y24430
X16133Y26758
X18683Y26758
X19339Y23608
X19733Y21998
X21851Y21546
X21933Y24458
X24639Y23608
X25023Y21998
X26533Y25258
X26033Y27708
X24433Y26808
X30457Y22999
X32133Y24508
X30883Y25608
X30833Y27108
X30457Y35207
X30883Y37816
X30833Y39316
X32133Y36716
X30833Y14900
X30883Y13400
X32133Y12300
X30457Y10791
X26533Y13050
X26033Y15500
X24433Y14600
X24639Y11400
X25023Y9790
X21851Y9338
X19733Y9790
X19339Y11400
X18683Y14550
X16509Y12222
X15767Y10988
X15763Y10190
X14043Y10560
X16133Y14550
X11533Y14600
X10233Y15210
X21933Y12250
X21933Y61081
T03
X22229Y65353
X23229Y65353
X23229Y66353
X22229Y66353
X21229Y66353
X21229Y65353
X20229Y65353
X20229Y66353
X19229Y66353
X19229Y65353
X18229Y65353
X18229Y66353
X17229Y66353
X17229Y65353
X16229Y65353
X16229Y66353
X15229Y66353
X15229Y65353
X14229Y65353
X14229Y66353
X13229Y66353
X13229Y65353
X12229Y65353
X12229Y66353
X12229Y54145
X12229Y53145
X13229Y53145
X13229Y54145
X14229Y54145
X14229Y53145
X15229Y53145
X15229Y54145
X16229Y54145
X16229Y53145
X17229Y53145
X17229Y54145
X18229Y54145
X18229Y53145
X19229Y53145
X19229Y54145
X20229Y54145
X20229Y53145
X21229Y53145
X21229Y54145
X22229Y54145
X22229Y53145
X23229Y53145
X23229Y54145
X24229Y54145
X24229Y53145
X25229Y53145
X25229Y54145
X26229Y54145
X26229Y53145
X27229Y53145
X27229Y54145
X28229Y54145
X28229Y53145
X29229Y53145
X29229Y54145
X30229Y54145
X30229Y53145
X31229Y53145
X31229Y54145
X31229Y65353
X31229Y66353
X30229Y66353
X30229Y65353
X29229Y65353
X29229Y66353
X28229Y66353
X28229Y65353
X27229Y65353
X27229Y66353
X26229Y66353
X26229Y65353
X25229Y65353
X25229Y66353
X24229Y66353
X24229Y65353
X24229Y41937
X24229Y40937
X25229Y40937
X25229Y41937
X26229Y41937
X26229Y40937
X27229Y40937
X27229Y41937
X28229Y41937
X28229Y40937
X29229Y40937
X29229Y41937
X30229Y41937
X30229Y40937
X31229Y40937
X31229Y41937
X31229Y29729
X31229Y28729
X30229Y28729
X30229Y29729
X29229Y29729
X29229Y28729
X28229Y28729
X28229Y29729
X27229Y29729
X27229Y28729
X26229Y28729
X26229Y29729
X25229Y29729
X25229Y28729
X24229Y28729
X24229Y29729
X23229Y29729
X23229Y28729
X22229Y28729
X22229Y29729
X21229Y29729
X21229Y28729
X20229Y28729
X20229Y29729
X19229Y29729
X19229Y28729
X18229Y28729
X18229Y29729
X17229Y29729
X17229Y28729
X16229Y28729
X16229Y29729
X15229Y29729
X15229Y28729
X14229Y28729
X14229Y29729
X13229Y29729
X13229Y28729
X12229Y28729
X12229Y29729
X12229Y40937
X12229Y41937
X13229Y41937
X13229Y40937
X14229Y40937
X14229Y41937
X15229Y41937
X15229Y40937
X16229Y40937
X16229Y41937
X17229Y41937
X17229Y40937
X18229Y40937
X18229Y41937
X19229Y41937
X19229Y40937
X20229Y40937
X20229Y41937
X21229Y41937
X21229Y40937
X22229Y40937
X22229Y41937
X23229Y41937
X23229Y40937
X23229Y17521
X23229Y16521
X22229Y16521
X22229Y17521
X21229Y17521
X21229Y16521
X20229Y16521
X20229Y17521
X19229Y17521
X19229Y16521
X18229Y16521
X18229Y17521
X17229Y17521
X17229Y16521
X16229Y16521
X16229Y17521
X15229Y17521
X15229Y16521
X14229Y16521
X14229Y17521
X13229Y17521
X13229Y16521
X12229Y16521
X12229Y17521
X24229Y17521
X24229Y16521
X25229Y16521
X25229Y17521
X26229Y17521
X26229Y16521
X27229Y16521
X27229Y17521
X28229Y17521
X28229Y16521
X29229Y16521
X29229Y17521
X30229Y17521
X30229Y16521
X31229Y16521
X31229Y17521
T04
X12433Y14100
X12433Y12722
X10433Y12722
X10433Y14100
X10433Y24930
X10433Y26308
X12433Y26308
X12433Y24930
X12433Y37138
X12433Y38516
X10433Y38516
X10433Y37138
X10433Y49346
X10433Y50724
X12433Y50724
X12433Y49346
X12433Y61554
X12433Y62931
X10433Y62931
X10433Y61554
T05
X10311Y7978
X10311Y17033
X10311Y20186
X10311Y29241
X10311Y32394
X10311Y41449
X10311Y44602
X10311Y53657
X10311Y56809
X10311Y65865
X18321Y56809
X25136Y56809
X25136Y44602
X18321Y44602
X18321Y32394
X25136Y32394
X25136Y20186
X18321Y20186
X18321Y7978
X25136Y7978
X33146Y7978
X33146Y17033
X33146Y20186
X33146Y29241
X33146Y32394
X33146Y41449
X33146Y44602
X33146Y53657
X33146Y56809
X33146Y65865
M30
