G75*
%MOIN*%
%OFA0B0*%
%FSLAX25Y25*%
%IPPOS*%
%LPD*%
%AMOC8*
5,1,8,0,0,1.08239X$1,22.5*
%
%ADD10C,0.00800*%
%ADD11C,0.03937*%
%ADD12C,0.07400*%
%ADD13R,0.08000X0.08000*%
%ADD14C,0.08000*%
%ADD15C,0.01000*%
%ADD16C,0.04000*%
%ADD17C,0.03500*%
D10*
X0318494Y0132321D02*
X0319195Y0131620D01*
X0320596Y0131620D01*
X0321296Y0132321D01*
X0318494Y0135123D01*
X0318494Y0132321D01*
X0321296Y0132321D02*
X0321296Y0135123D01*
X0320596Y0135824D01*
X0319195Y0135824D01*
X0318494Y0135123D01*
X0323098Y0135123D02*
X0323098Y0134423D01*
X0323798Y0133722D01*
X0323098Y0133022D01*
X0323098Y0132321D01*
X0323798Y0131620D01*
X0325200Y0131620D01*
X0325900Y0132321D01*
X0324499Y0133722D02*
X0323798Y0133722D01*
X0323098Y0135123D02*
X0323798Y0135824D01*
X0325200Y0135824D01*
X0325900Y0135123D01*
X0327702Y0134423D02*
X0329103Y0131620D01*
X0330504Y0134423D01*
D11*
X0337042Y0133157D03*
X0137003Y0244378D03*
D12*
X0144286Y0237213D03*
X0154286Y0237213D03*
X0164286Y0237213D03*
X0174286Y0237213D03*
X0184286Y0237213D03*
X0194286Y0237213D03*
X0204286Y0237213D03*
X0214286Y0237213D03*
X0224286Y0237213D03*
X0234286Y0237213D03*
X0244286Y0237213D03*
X0254286Y0237213D03*
X0264286Y0237213D03*
X0274286Y0237213D03*
X0284286Y0237213D03*
X0294286Y0237213D03*
X0304286Y0237213D03*
X0314286Y0237213D03*
X0324286Y0237213D03*
X0334286Y0237213D03*
X0334286Y0227213D03*
X0324286Y0227213D03*
X0314286Y0227213D03*
X0304286Y0227213D03*
X0294286Y0227213D03*
X0284286Y0227213D03*
X0274286Y0227213D03*
X0264286Y0227213D03*
X0254286Y0227213D03*
X0244286Y0227213D03*
X0234286Y0227213D03*
X0224286Y0227213D03*
X0214286Y0227213D03*
X0204286Y0227213D03*
X0194286Y0227213D03*
X0184286Y0227213D03*
X0174286Y0227213D03*
X0164286Y0227213D03*
X0154286Y0227213D03*
X0144286Y0227213D03*
D13*
X0145333Y0209000D03*
X0126333Y0209000D03*
D14*
X0126333Y0195220D03*
X0145333Y0195220D03*
D15*
X0133771Y0130495D02*
X0133086Y0130100D01*
X0197404Y0130100D01*
X0196651Y0130535D01*
X0194026Y0133160D01*
X0192169Y0136376D01*
X0191208Y0139962D01*
X0191208Y0143675D01*
X0192169Y0147262D01*
X0194026Y0150477D01*
X0196651Y0153103D01*
X0199867Y0154959D01*
X0203453Y0155920D01*
X0207166Y0155920D01*
X0210753Y0154959D01*
X0213968Y0153103D01*
X0216594Y0150477D01*
X0218450Y0147262D01*
X0219411Y0143675D01*
X0219411Y0139962D01*
X0218450Y0136376D01*
X0216594Y0133160D01*
X0213968Y0130535D01*
X0213215Y0130100D01*
X0265418Y0130100D01*
X0264801Y0130456D01*
X0262175Y0133082D01*
X0260319Y0136297D01*
X0259358Y0139884D01*
X0259358Y0143597D01*
X0260319Y0147183D01*
X0262175Y0150399D01*
X0264801Y0153024D01*
X0268016Y0154881D01*
X0271603Y0155842D01*
X0275316Y0155842D01*
X0278902Y0154881D01*
X0282118Y0153024D01*
X0284743Y0150399D01*
X0286600Y0147183D01*
X0287561Y0143597D01*
X0287561Y0139884D01*
X0286600Y0136297D01*
X0284743Y0133082D01*
X0282118Y0130456D01*
X0281501Y0130100D01*
X0317745Y0130100D01*
X0317095Y0130751D01*
X0316394Y0131451D01*
X0316394Y0135168D01*
X0316394Y0135993D01*
X0316394Y0135993D01*
X0316394Y0135993D01*
X0316465Y0136065D01*
X0317095Y0136694D01*
X0317095Y0136694D01*
X0318311Y0137910D01*
X0318325Y0137924D01*
X0318325Y0137924D01*
X0319726Y0137924D01*
X0319726Y0137924D01*
X0319886Y0137924D01*
X0320064Y0137924D01*
X0320064Y0137924D01*
X0321466Y0137924D01*
X0322197Y0137193D01*
X0322915Y0137910D01*
X0322929Y0137924D01*
X0322929Y0137924D01*
X0324330Y0137924D01*
X0324330Y0137924D01*
X0324490Y0137924D01*
X0324668Y0137924D01*
X0324668Y0137924D01*
X0326070Y0137924D01*
X0327300Y0136694D01*
X0327300Y0136694D01*
X0327382Y0136611D01*
X0327541Y0136690D01*
X0329103Y0136169D01*
X0330665Y0136690D01*
X0332221Y0135912D01*
X0332771Y0134262D01*
X0331048Y0130815D01*
X0330820Y0130131D01*
X0330758Y0130100D01*
X0334911Y0130100D01*
X0333932Y0131079D01*
X0333373Y0132428D01*
X0333373Y0133887D01*
X0333932Y0135236D01*
X0334964Y0136267D01*
X0336312Y0136826D01*
X0337772Y0136826D01*
X0339120Y0136267D01*
X0340152Y0135236D01*
X0340710Y0133887D01*
X0340710Y0132428D01*
X0340152Y0131079D01*
X0339173Y0130100D01*
X0345486Y0130100D01*
X0344801Y0130495D01*
X0342175Y0133121D01*
X0340319Y0136337D01*
X0339358Y0139923D01*
X0339358Y0143636D01*
X0340319Y0147223D01*
X0342175Y0150438D01*
X0344801Y0153064D01*
X0348016Y0154920D01*
X0351603Y0155881D01*
X0355316Y0155881D01*
X0358902Y0154920D01*
X0362118Y0153064D01*
X0364743Y0150438D01*
X0365139Y0149753D01*
X0365139Y0224357D01*
X0364743Y0223672D01*
X0362118Y0221047D01*
X0358902Y0219190D01*
X0355316Y0218229D01*
X0351603Y0218229D01*
X0348016Y0219190D01*
X0344801Y0221047D01*
X0342175Y0223672D01*
X0340319Y0226888D01*
X0339358Y0230474D01*
X0339358Y0234187D01*
X0340319Y0237774D01*
X0342175Y0240989D01*
X0344801Y0243615D01*
X0348016Y0245471D01*
X0349910Y0245979D01*
X0140310Y0245979D01*
X0140671Y0245108D01*
X0140671Y0243648D01*
X0140113Y0242300D01*
X0139081Y0241268D01*
X0137732Y0240709D01*
X0136558Y0240709D01*
X0138253Y0237774D01*
X0139214Y0234187D01*
X0139214Y0230474D01*
X0138253Y0226888D01*
X0136397Y0223672D01*
X0133771Y0221047D01*
X0130556Y0219190D01*
X0126969Y0218229D01*
X0123256Y0218229D01*
X0119670Y0219190D01*
X0116454Y0221047D01*
X0113829Y0223672D01*
X0113433Y0224357D01*
X0113433Y0149753D01*
X0113829Y0150438D01*
X0116454Y0153064D01*
X0119670Y0154920D01*
X0123256Y0155881D01*
X0126969Y0155881D01*
X0130556Y0154920D01*
X0133771Y0153064D01*
X0136397Y0150438D01*
X0138253Y0147223D01*
X0139214Y0143636D01*
X0139214Y0139923D01*
X0138253Y0136337D01*
X0136397Y0133121D01*
X0133771Y0130495D01*
X0134271Y0130996D02*
X0196190Y0130996D01*
X0195192Y0131994D02*
X0135270Y0131994D01*
X0136269Y0132993D02*
X0194193Y0132993D01*
X0193546Y0133991D02*
X0136899Y0133991D01*
X0137476Y0134990D02*
X0192970Y0134990D01*
X0192393Y0135988D02*
X0138052Y0135988D01*
X0138428Y0136987D02*
X0192005Y0136987D01*
X0191738Y0137985D02*
X0138695Y0137985D01*
X0138963Y0138984D02*
X0191470Y0138984D01*
X0191208Y0139982D02*
X0139214Y0139982D01*
X0139214Y0140981D02*
X0191208Y0140981D01*
X0191208Y0141979D02*
X0139214Y0141979D01*
X0139214Y0142978D02*
X0191208Y0142978D01*
X0191289Y0143976D02*
X0139123Y0143976D01*
X0138856Y0144975D02*
X0191556Y0144975D01*
X0191824Y0145973D02*
X0138588Y0145973D01*
X0138321Y0146972D02*
X0192091Y0146972D01*
X0192578Y0147970D02*
X0137822Y0147970D01*
X0137245Y0148969D02*
X0193155Y0148969D01*
X0193731Y0149967D02*
X0136669Y0149967D01*
X0135869Y0150966D02*
X0194514Y0150966D01*
X0195512Y0151964D02*
X0134871Y0151964D01*
X0133872Y0152963D02*
X0196511Y0152963D01*
X0198138Y0153961D02*
X0132217Y0153961D01*
X0130408Y0154960D02*
X0199868Y0154960D01*
X0210751Y0154960D02*
X0268311Y0154960D01*
X0266424Y0153961D02*
X0212482Y0153961D01*
X0214108Y0152963D02*
X0264739Y0152963D01*
X0263741Y0151964D02*
X0215107Y0151964D01*
X0216105Y0150966D02*
X0262742Y0150966D01*
X0261926Y0149967D02*
X0216888Y0149967D01*
X0217465Y0148969D02*
X0261350Y0148969D01*
X0260773Y0147970D02*
X0218041Y0147970D01*
X0218528Y0146972D02*
X0260262Y0146972D01*
X0259995Y0145973D02*
X0218796Y0145973D01*
X0219063Y0144975D02*
X0259727Y0144975D01*
X0259459Y0143976D02*
X0219331Y0143976D01*
X0219411Y0142978D02*
X0259358Y0142978D01*
X0259358Y0141979D02*
X0219411Y0141979D01*
X0219411Y0140981D02*
X0259358Y0140981D01*
X0259358Y0139982D02*
X0219411Y0139982D01*
X0219149Y0138984D02*
X0259599Y0138984D01*
X0259866Y0137985D02*
X0218881Y0137985D01*
X0218614Y0136987D02*
X0260134Y0136987D01*
X0260497Y0135988D02*
X0218226Y0135988D01*
X0217650Y0134990D02*
X0261074Y0134990D01*
X0261650Y0133991D02*
X0217073Y0133991D01*
X0216426Y0132993D02*
X0262264Y0132993D01*
X0263263Y0131994D02*
X0215427Y0131994D01*
X0214429Y0130996D02*
X0264261Y0130996D01*
X0282657Y0130996D02*
X0316850Y0130996D01*
X0316394Y0131994D02*
X0283656Y0131994D01*
X0284654Y0132993D02*
X0316394Y0132993D01*
X0316394Y0133991D02*
X0285268Y0133991D01*
X0285845Y0134990D02*
X0316394Y0134990D01*
X0316394Y0135988D02*
X0286421Y0135988D01*
X0286785Y0136987D02*
X0317387Y0136987D01*
X0327007Y0136987D02*
X0340145Y0136987D01*
X0339877Y0137985D02*
X0287052Y0137985D01*
X0287320Y0138984D02*
X0339609Y0138984D01*
X0339358Y0139982D02*
X0287561Y0139982D01*
X0287561Y0140981D02*
X0339358Y0140981D01*
X0339358Y0141979D02*
X0287561Y0141979D01*
X0287561Y0142978D02*
X0339358Y0142978D01*
X0339449Y0143976D02*
X0287459Y0143976D01*
X0287192Y0144975D02*
X0339716Y0144975D01*
X0339984Y0145973D02*
X0286924Y0145973D01*
X0286657Y0146972D02*
X0340252Y0146972D01*
X0340750Y0147970D02*
X0286145Y0147970D01*
X0285569Y0148969D02*
X0341327Y0148969D01*
X0341903Y0149967D02*
X0284992Y0149967D01*
X0284176Y0150966D02*
X0342703Y0150966D01*
X0343701Y0151964D02*
X0283178Y0151964D01*
X0282179Y0152963D02*
X0344700Y0152963D01*
X0346356Y0153961D02*
X0280495Y0153961D01*
X0278607Y0154960D02*
X0348165Y0154960D01*
X0352534Y0160500D02*
X0353823Y0161789D01*
X0357336Y0165302D01*
X0357336Y0168365D01*
X0358061Y0169090D01*
X0358586Y0170358D01*
X0358586Y0171730D01*
X0358061Y0172998D01*
X0357336Y0173723D01*
X0357336Y0202171D01*
X0358082Y0202917D01*
X0358608Y0204185D01*
X0358608Y0205558D01*
X0358082Y0206826D01*
X0357112Y0207796D01*
X0355844Y0208322D01*
X0354471Y0208322D01*
X0353203Y0207796D01*
X0352233Y0206826D01*
X0351708Y0205558D01*
X0351708Y0205133D01*
X0351162Y0205133D01*
X0349894Y0204607D01*
X0348924Y0203637D01*
X0348398Y0202369D01*
X0348398Y0200996D01*
X0348924Y0199728D01*
X0349627Y0199025D01*
X0349627Y0170631D01*
X0348902Y0169906D01*
X0348377Y0168638D01*
X0348377Y0168155D01*
X0347122Y0166900D01*
X0270588Y0166900D01*
X0270588Y0172967D01*
X0271525Y0173904D01*
X0272088Y0175264D01*
X0272088Y0176736D01*
X0271525Y0178096D01*
X0270484Y0179137D01*
X0269124Y0179700D01*
X0267652Y0179700D01*
X0266293Y0179137D01*
X0265252Y0178096D01*
X0264688Y0176736D01*
X0264688Y0175264D01*
X0265252Y0173904D01*
X0266188Y0172967D01*
X0266188Y0166900D01*
X0217588Y0166900D01*
X0217588Y0172967D01*
X0218525Y0173904D01*
X0219088Y0175264D01*
X0219088Y0176736D01*
X0218525Y0178096D01*
X0217484Y0179137D01*
X0216124Y0179700D01*
X0214652Y0179700D01*
X0213293Y0179137D01*
X0212252Y0178096D01*
X0211688Y0176736D01*
X0211688Y0175264D01*
X0212252Y0173904D01*
X0213188Y0172967D01*
X0213188Y0166900D01*
X0177445Y0166900D01*
X0174685Y0169659D01*
X0174809Y0169782D01*
X0175372Y0171142D01*
X0175372Y0172614D01*
X0174809Y0173974D01*
X0173768Y0175015D01*
X0172408Y0175578D01*
X0170936Y0175578D01*
X0169576Y0175015D01*
X0168639Y0174078D01*
X0159866Y0174078D01*
X0158486Y0175459D01*
X0158486Y0218301D01*
X0162353Y0222168D01*
X0163212Y0221813D01*
X0165360Y0221813D01*
X0167345Y0222635D01*
X0168864Y0224154D01*
X0169286Y0225173D01*
X0169708Y0224154D01*
X0171227Y0222635D01*
X0173212Y0221813D01*
X0175360Y0221813D01*
X0177345Y0222635D01*
X0178864Y0224154D01*
X0179395Y0225437D01*
X0179467Y0225216D01*
X0179839Y0224487D01*
X0180320Y0223825D01*
X0180899Y0223246D01*
X0181561Y0222765D01*
X0182290Y0222394D01*
X0183068Y0222141D01*
X0183786Y0222027D01*
X0183786Y0226713D01*
X0184786Y0226713D01*
X0184786Y0222027D01*
X0185504Y0222141D01*
X0186282Y0222394D01*
X0187011Y0222765D01*
X0187674Y0223246D01*
X0188252Y0223825D01*
X0188734Y0224487D01*
X0189105Y0225216D01*
X0189177Y0225437D01*
X0189708Y0224154D01*
X0191227Y0222635D01*
X0192133Y0222259D01*
X0192133Y0218089D01*
X0194133Y0216089D01*
X0195422Y0214800D01*
X0279301Y0214800D01*
X0280237Y0213863D01*
X0281597Y0213300D01*
X0283069Y0213300D01*
X0284429Y0213863D01*
X0285470Y0214904D01*
X0286033Y0216264D01*
X0286033Y0217736D01*
X0285470Y0219096D01*
X0284429Y0220137D01*
X0283069Y0220700D01*
X0281597Y0220700D01*
X0280237Y0220137D01*
X0279301Y0219200D01*
X0197245Y0219200D01*
X0196533Y0219911D01*
X0196533Y0222299D01*
X0197345Y0222635D01*
X0198864Y0224154D01*
X0199286Y0225173D01*
X0199708Y0224154D01*
X0201227Y0222635D01*
X0203212Y0221813D01*
X0205360Y0221813D01*
X0207345Y0222635D01*
X0208864Y0224154D01*
X0209286Y0225173D01*
X0209708Y0224154D01*
X0211227Y0222635D01*
X0213212Y0221813D01*
X0215360Y0221813D01*
X0217345Y0222635D01*
X0218864Y0224154D01*
X0219286Y0225173D01*
X0219708Y0224154D01*
X0221227Y0222635D01*
X0223212Y0221813D01*
X0225360Y0221813D01*
X0227345Y0222635D01*
X0228864Y0224154D01*
X0229286Y0225173D01*
X0229708Y0224154D01*
X0231227Y0222635D01*
X0233212Y0221813D01*
X0235360Y0221813D01*
X0237345Y0222635D01*
X0238864Y0224154D01*
X0239286Y0225173D01*
X0239708Y0224154D01*
X0241227Y0222635D01*
X0243212Y0221813D01*
X0245360Y0221813D01*
X0247345Y0222635D01*
X0248864Y0224154D01*
X0249286Y0225173D01*
X0249708Y0224154D01*
X0251227Y0222635D01*
X0253212Y0221813D01*
X0255360Y0221813D01*
X0257345Y0222635D01*
X0258864Y0224154D01*
X0259395Y0225437D01*
X0259467Y0225216D01*
X0259839Y0224487D01*
X0260320Y0223825D01*
X0260899Y0223246D01*
X0261561Y0222765D01*
X0262290Y0222394D01*
X0263068Y0222141D01*
X0263786Y0222027D01*
X0263786Y0226713D01*
X0264786Y0226713D01*
X0264786Y0222027D01*
X0265504Y0222141D01*
X0266282Y0222394D01*
X0267011Y0222765D01*
X0267674Y0223246D01*
X0268252Y0223825D01*
X0268734Y0224487D01*
X0269105Y0225216D01*
X0269177Y0225437D01*
X0269708Y0224154D01*
X0271227Y0222635D01*
X0273212Y0221813D01*
X0275360Y0221813D01*
X0277345Y0222635D01*
X0278864Y0224154D01*
X0279286Y0225173D01*
X0279708Y0224154D01*
X0281227Y0222635D01*
X0283212Y0221813D01*
X0285360Y0221813D01*
X0287345Y0222635D01*
X0288864Y0224154D01*
X0289286Y0225173D01*
X0289708Y0224154D01*
X0291227Y0222635D01*
X0293212Y0221813D01*
X0295360Y0221813D01*
X0297345Y0222635D01*
X0298864Y0224154D01*
X0299286Y0225173D01*
X0299708Y0224154D01*
X0301227Y0222635D01*
X0303212Y0221813D01*
X0305360Y0221813D01*
X0307345Y0222635D01*
X0308864Y0224154D01*
X0309286Y0225173D01*
X0309708Y0224154D01*
X0311227Y0222635D01*
X0313212Y0221813D01*
X0315360Y0221813D01*
X0317345Y0222635D01*
X0318864Y0224154D01*
X0319286Y0225173D01*
X0319708Y0224154D01*
X0321227Y0222635D01*
X0323212Y0221813D01*
X0325360Y0221813D01*
X0327345Y0222635D01*
X0328864Y0224154D01*
X0329395Y0225437D01*
X0329467Y0225216D01*
X0329839Y0224487D01*
X0330320Y0223825D01*
X0330899Y0223246D01*
X0331561Y0222765D01*
X0332290Y0222394D01*
X0333068Y0222141D01*
X0333786Y0222027D01*
X0333786Y0226713D01*
X0334786Y0226713D01*
X0334786Y0227713D01*
X0339472Y0227713D01*
X0339358Y0228430D01*
X0339105Y0229209D01*
X0338734Y0229938D01*
X0338252Y0230600D01*
X0337674Y0231179D01*
X0337011Y0231660D01*
X0336282Y0232032D01*
X0336062Y0232103D01*
X0337345Y0232635D01*
X0338864Y0234154D01*
X0339686Y0236138D01*
X0339686Y0238287D01*
X0338864Y0240271D01*
X0337345Y0241790D01*
X0335360Y0242613D01*
X0333212Y0242613D01*
X0331227Y0241790D01*
X0329708Y0240271D01*
X0329286Y0239252D01*
X0328864Y0240271D01*
X0327345Y0241790D01*
X0325360Y0242613D01*
X0323212Y0242613D01*
X0321227Y0241790D01*
X0319708Y0240271D01*
X0319286Y0239252D01*
X0318864Y0240271D01*
X0317345Y0241790D01*
X0315360Y0242613D01*
X0313212Y0242613D01*
X0311227Y0241790D01*
X0309708Y0240271D01*
X0309177Y0238988D01*
X0309105Y0239209D01*
X0308734Y0239938D01*
X0308252Y0240600D01*
X0307674Y0241179D01*
X0307011Y0241660D01*
X0306282Y0242032D01*
X0305504Y0242285D01*
X0304786Y0242398D01*
X0304786Y0237713D01*
X0303786Y0237713D01*
X0303786Y0242398D01*
X0303068Y0242285D01*
X0302290Y0242032D01*
X0301561Y0241660D01*
X0300899Y0241179D01*
X0300320Y0240600D01*
X0299839Y0239938D01*
X0299467Y0239209D01*
X0299395Y0238988D01*
X0298864Y0240271D01*
X0297345Y0241790D01*
X0295360Y0242613D01*
X0293212Y0242613D01*
X0291227Y0241790D01*
X0289708Y0240271D01*
X0289177Y0238988D01*
X0289105Y0239209D01*
X0288734Y0239938D01*
X0288252Y0240600D01*
X0287674Y0241179D01*
X0287011Y0241660D01*
X0286282Y0242032D01*
X0285504Y0242285D01*
X0284786Y0242398D01*
X0284786Y0237713D01*
X0283786Y0237713D01*
X0283786Y0242398D01*
X0283068Y0242285D01*
X0282290Y0242032D01*
X0281561Y0241660D01*
X0280899Y0241179D01*
X0280320Y0240600D01*
X0279839Y0239938D01*
X0279467Y0239209D01*
X0279395Y0238988D01*
X0278864Y0240271D01*
X0277345Y0241790D01*
X0275360Y0242613D01*
X0273212Y0242613D01*
X0271227Y0241790D01*
X0269708Y0240271D01*
X0269286Y0239252D01*
X0268864Y0240271D01*
X0267345Y0241790D01*
X0265360Y0242613D01*
X0263212Y0242613D01*
X0261227Y0241790D01*
X0259708Y0240271D01*
X0259286Y0239252D01*
X0258864Y0240271D01*
X0257345Y0241790D01*
X0255360Y0242613D01*
X0253212Y0242613D01*
X0251227Y0241790D01*
X0249708Y0240271D01*
X0249286Y0239252D01*
X0248864Y0240271D01*
X0247345Y0241790D01*
X0245360Y0242613D01*
X0243212Y0242613D01*
X0241227Y0241790D01*
X0239708Y0240271D01*
X0239177Y0238988D01*
X0239105Y0239209D01*
X0238734Y0239938D01*
X0238252Y0240600D01*
X0237674Y0241179D01*
X0237011Y0241660D01*
X0236282Y0242032D01*
X0235504Y0242285D01*
X0234786Y0242398D01*
X0234786Y0237713D01*
X0233786Y0237713D01*
X0233786Y0242398D01*
X0233068Y0242285D01*
X0232290Y0242032D01*
X0231561Y0241660D01*
X0230899Y0241179D01*
X0230320Y0240600D01*
X0229839Y0239938D01*
X0229467Y0239209D01*
X0229395Y0238988D01*
X0228864Y0240271D01*
X0227345Y0241790D01*
X0225360Y0242613D01*
X0223212Y0242613D01*
X0221227Y0241790D01*
X0219708Y0240271D01*
X0219286Y0239252D01*
X0218864Y0240271D01*
X0217345Y0241790D01*
X0215360Y0242613D01*
X0213212Y0242613D01*
X0211227Y0241790D01*
X0209708Y0240271D01*
X0209177Y0238988D01*
X0209105Y0239209D01*
X0208734Y0239938D01*
X0208252Y0240600D01*
X0207674Y0241179D01*
X0207011Y0241660D01*
X0206282Y0242032D01*
X0205504Y0242285D01*
X0204786Y0242398D01*
X0204786Y0237713D01*
X0203786Y0237713D01*
X0203786Y0242398D01*
X0203068Y0242285D01*
X0202290Y0242032D01*
X0201561Y0241660D01*
X0200899Y0241179D01*
X0200320Y0240600D01*
X0199839Y0239938D01*
X0199467Y0239209D01*
X0199395Y0238988D01*
X0198864Y0240271D01*
X0197345Y0241790D01*
X0195360Y0242613D01*
X0193212Y0242613D01*
X0191227Y0241790D01*
X0189708Y0240271D01*
X0189286Y0239252D01*
X0188864Y0240271D01*
X0187345Y0241790D01*
X0185360Y0242613D01*
X0183212Y0242613D01*
X0181227Y0241790D01*
X0179708Y0240271D01*
X0179286Y0239252D01*
X0178864Y0240271D01*
X0177345Y0241790D01*
X0175360Y0242613D01*
X0173212Y0242613D01*
X0171227Y0241790D01*
X0169708Y0240271D01*
X0169177Y0238988D01*
X0169105Y0239209D01*
X0168734Y0239938D01*
X0168252Y0240600D01*
X0167674Y0241179D01*
X0167011Y0241660D01*
X0166282Y0242032D01*
X0165504Y0242285D01*
X0164786Y0242398D01*
X0164786Y0237713D01*
X0163786Y0237713D01*
X0163786Y0242398D01*
X0163068Y0242285D01*
X0162290Y0242032D01*
X0161561Y0241660D01*
X0160899Y0241179D01*
X0160320Y0240600D01*
X0159839Y0239938D01*
X0159467Y0239209D01*
X0159395Y0238988D01*
X0158864Y0240271D01*
X0157345Y0241790D01*
X0155360Y0242613D01*
X0153212Y0242613D01*
X0151227Y0241790D01*
X0149708Y0240271D01*
X0149286Y0239252D01*
X0148864Y0240271D01*
X0147345Y0241790D01*
X0145360Y0242613D01*
X0143212Y0242613D01*
X0141227Y0241790D01*
X0139708Y0240271D01*
X0138886Y0238287D01*
X0138886Y0236138D01*
X0139708Y0234154D01*
X0141227Y0232635D01*
X0142246Y0232213D01*
X0141227Y0231790D01*
X0139708Y0230271D01*
X0138886Y0228287D01*
X0138886Y0226138D01*
X0139708Y0224154D01*
X0141227Y0222635D01*
X0143212Y0221813D01*
X0145360Y0221813D01*
X0147345Y0222635D01*
X0148864Y0224154D01*
X0149286Y0225173D01*
X0149708Y0224154D01*
X0151227Y0222635D01*
X0152086Y0222279D01*
X0152086Y0170485D01*
X0151297Y0169696D01*
X0150733Y0168336D01*
X0150733Y0166864D01*
X0151297Y0165504D01*
X0152337Y0164463D01*
X0153697Y0163900D01*
X0155169Y0163900D01*
X0156529Y0164463D01*
X0157466Y0165400D01*
X0168250Y0165400D01*
X0167933Y0164636D01*
X0167933Y0163164D01*
X0168497Y0161804D01*
X0169537Y0160763D01*
X0170897Y0160200D01*
X0172369Y0160200D01*
X0173094Y0160500D01*
X0215633Y0160500D01*
X0215633Y0159164D01*
X0216197Y0157804D01*
X0217237Y0156763D01*
X0218597Y0156200D01*
X0220069Y0156200D01*
X0221429Y0156763D01*
X0222470Y0157804D01*
X0223033Y0159164D01*
X0223033Y0160500D01*
X0268525Y0160500D01*
X0268525Y0159164D01*
X0269089Y0157804D01*
X0270130Y0156763D01*
X0271489Y0156200D01*
X0272961Y0156200D01*
X0274321Y0156763D01*
X0275362Y0157804D01*
X0275925Y0159164D01*
X0275925Y0160500D01*
X0352534Y0160500D01*
X0352985Y0160951D02*
X0365139Y0160951D01*
X0365139Y0161949D02*
X0353984Y0161949D01*
X0354982Y0162948D02*
X0365139Y0162948D01*
X0365139Y0163946D02*
X0355981Y0163946D01*
X0356979Y0164945D02*
X0365139Y0164945D01*
X0365139Y0165943D02*
X0357336Y0165943D01*
X0357336Y0166942D02*
X0365139Y0166942D01*
X0365139Y0167940D02*
X0357336Y0167940D01*
X0357910Y0168939D02*
X0365139Y0168939D01*
X0365139Y0169937D02*
X0358412Y0169937D01*
X0358586Y0170936D02*
X0365139Y0170936D01*
X0365139Y0171934D02*
X0358502Y0171934D01*
X0358088Y0172933D02*
X0365139Y0172933D01*
X0365139Y0173932D02*
X0357336Y0173932D01*
X0357336Y0174930D02*
X0365139Y0174930D01*
X0365139Y0175929D02*
X0357336Y0175929D01*
X0357336Y0176927D02*
X0365139Y0176927D01*
X0365139Y0177926D02*
X0357336Y0177926D01*
X0357336Y0178924D02*
X0365139Y0178924D01*
X0365139Y0179923D02*
X0357336Y0179923D01*
X0357336Y0180921D02*
X0365139Y0180921D01*
X0365139Y0181920D02*
X0357336Y0181920D01*
X0357336Y0182918D02*
X0365139Y0182918D01*
X0365139Y0183917D02*
X0357336Y0183917D01*
X0357336Y0184915D02*
X0365139Y0184915D01*
X0365139Y0185914D02*
X0357336Y0185914D01*
X0357336Y0186912D02*
X0365139Y0186912D01*
X0365139Y0187911D02*
X0357336Y0187911D01*
X0357336Y0188909D02*
X0365139Y0188909D01*
X0365139Y0189908D02*
X0357336Y0189908D01*
X0357336Y0190906D02*
X0365139Y0190906D01*
X0365139Y0191905D02*
X0357336Y0191905D01*
X0357336Y0192903D02*
X0365139Y0192903D01*
X0365139Y0193902D02*
X0357336Y0193902D01*
X0357336Y0194900D02*
X0365139Y0194900D01*
X0365139Y0195899D02*
X0357336Y0195899D01*
X0357336Y0196897D02*
X0365139Y0196897D01*
X0365139Y0197896D02*
X0357336Y0197896D01*
X0357336Y0198894D02*
X0365139Y0198894D01*
X0365139Y0199893D02*
X0357336Y0199893D01*
X0357336Y0200891D02*
X0365139Y0200891D01*
X0365139Y0201890D02*
X0357336Y0201890D01*
X0358053Y0202888D02*
X0365139Y0202888D01*
X0365139Y0203887D02*
X0358484Y0203887D01*
X0358608Y0204885D02*
X0365139Y0204885D01*
X0365139Y0205884D02*
X0358473Y0205884D01*
X0358026Y0206882D02*
X0365139Y0206882D01*
X0365139Y0207881D02*
X0356908Y0207881D01*
X0355158Y0204872D02*
X0355136Y0204850D01*
X0355136Y0171044D01*
X0355136Y0166213D01*
X0351623Y0162700D01*
X0272333Y0162700D01*
X0272225Y0162592D01*
X0272225Y0159900D01*
X0272333Y0162700D02*
X0219333Y0162700D01*
X0219333Y0159900D01*
X0219333Y0162700D02*
X0172833Y0162700D01*
X0171633Y0163900D01*
X0167933Y0163946D02*
X0155281Y0163946D01*
X0153585Y0163946D02*
X0113433Y0163946D01*
X0113433Y0162948D02*
X0168023Y0162948D01*
X0168436Y0161949D02*
X0113433Y0161949D01*
X0113433Y0160951D02*
X0169350Y0160951D01*
X0168061Y0164945D02*
X0157011Y0164945D01*
X0154433Y0167600D02*
X0173633Y0167600D01*
X0176533Y0164700D01*
X0215088Y0164700D01*
X0215388Y0165000D01*
X0215388Y0176000D01*
X0211688Y0175929D02*
X0158486Y0175929D01*
X0158486Y0176927D02*
X0211768Y0176927D01*
X0212181Y0177926D02*
X0158486Y0177926D01*
X0158486Y0178924D02*
X0213080Y0178924D01*
X0211827Y0174930D02*
X0173853Y0174930D01*
X0174826Y0173932D02*
X0212240Y0173932D01*
X0213188Y0172933D02*
X0175240Y0172933D01*
X0175372Y0171934D02*
X0213188Y0171934D01*
X0213188Y0170936D02*
X0175286Y0170936D01*
X0174873Y0169937D02*
X0213188Y0169937D01*
X0213188Y0168939D02*
X0175406Y0168939D01*
X0176404Y0167940D02*
X0213188Y0167940D01*
X0213188Y0166942D02*
X0177403Y0166942D01*
X0171672Y0171878D02*
X0158955Y0171878D01*
X0156286Y0174547D01*
X0156286Y0219213D01*
X0164286Y0227213D01*
X0169155Y0224856D02*
X0169417Y0224856D01*
X0170005Y0223857D02*
X0168567Y0223857D01*
X0167569Y0222859D02*
X0171003Y0222859D01*
X0173097Y0221860D02*
X0165475Y0221860D01*
X0163097Y0221860D02*
X0162045Y0221860D01*
X0161046Y0220862D02*
X0192133Y0220862D01*
X0192133Y0221860D02*
X0175475Y0221860D01*
X0177569Y0222859D02*
X0181432Y0222859D01*
X0180296Y0223857D02*
X0178567Y0223857D01*
X0179155Y0224856D02*
X0179651Y0224856D01*
X0183786Y0224856D02*
X0184786Y0224856D01*
X0184786Y0225854D02*
X0183786Y0225854D01*
X0183786Y0223857D02*
X0184786Y0223857D01*
X0184786Y0222859D02*
X0183786Y0222859D01*
X0187140Y0222859D02*
X0191003Y0222859D01*
X0190005Y0223857D02*
X0188276Y0223857D01*
X0188921Y0224856D02*
X0189417Y0224856D01*
X0194286Y0227213D02*
X0194333Y0227165D01*
X0194333Y0219000D01*
X0196333Y0217000D01*
X0282333Y0217000D01*
X0286033Y0216868D02*
X0365139Y0216868D01*
X0365139Y0217866D02*
X0285979Y0217866D01*
X0285566Y0218865D02*
X0349231Y0218865D01*
X0346851Y0219863D02*
X0284703Y0219863D01*
X0285475Y0221860D02*
X0293097Y0221860D01*
X0291003Y0222859D02*
X0287569Y0222859D01*
X0288567Y0223857D02*
X0290005Y0223857D01*
X0289417Y0224856D02*
X0289155Y0224856D01*
X0295475Y0221860D02*
X0303097Y0221860D01*
X0301003Y0222859D02*
X0297569Y0222859D01*
X0298567Y0223857D02*
X0300005Y0223857D01*
X0299417Y0224856D02*
X0299155Y0224856D01*
X0305475Y0221860D02*
X0313097Y0221860D01*
X0311003Y0222859D02*
X0307569Y0222859D01*
X0308567Y0223857D02*
X0310005Y0223857D01*
X0309417Y0224856D02*
X0309155Y0224856D01*
X0315475Y0221860D02*
X0323097Y0221860D01*
X0321003Y0222859D02*
X0317569Y0222859D01*
X0318567Y0223857D02*
X0320005Y0223857D01*
X0319417Y0224856D02*
X0319155Y0224856D01*
X0325475Y0221860D02*
X0343987Y0221860D01*
X0342989Y0222859D02*
X0337140Y0222859D01*
X0337011Y0222765D02*
X0337674Y0223246D01*
X0338252Y0223825D01*
X0338734Y0224487D01*
X0339105Y0225216D01*
X0339358Y0225995D01*
X0339472Y0226713D01*
X0334786Y0226713D01*
X0334786Y0222027D01*
X0335504Y0222141D01*
X0336282Y0222394D01*
X0337011Y0222765D01*
X0338276Y0223857D02*
X0342068Y0223857D01*
X0341492Y0224856D02*
X0338921Y0224856D01*
X0339312Y0225854D02*
X0340915Y0225854D01*
X0340339Y0226853D02*
X0334786Y0226853D01*
X0334786Y0225854D02*
X0333786Y0225854D01*
X0333786Y0224856D02*
X0334786Y0224856D01*
X0334786Y0223857D02*
X0333786Y0223857D01*
X0333786Y0222859D02*
X0334786Y0222859D01*
X0331432Y0222859D02*
X0327569Y0222859D01*
X0328567Y0223857D02*
X0330296Y0223857D01*
X0329651Y0224856D02*
X0329155Y0224856D01*
X0336648Y0231845D02*
X0339358Y0231845D01*
X0339358Y0230847D02*
X0338006Y0230847D01*
X0338779Y0229848D02*
X0339525Y0229848D01*
X0339793Y0228850D02*
X0339222Y0228850D01*
X0339450Y0227851D02*
X0340061Y0227851D01*
X0339358Y0232844D02*
X0337554Y0232844D01*
X0338552Y0233842D02*
X0339358Y0233842D01*
X0339533Y0234841D02*
X0339149Y0234841D01*
X0339562Y0235839D02*
X0339800Y0235839D01*
X0339686Y0236838D02*
X0340068Y0236838D01*
X0340355Y0237836D02*
X0339686Y0237836D01*
X0339459Y0238835D02*
X0340931Y0238835D01*
X0341508Y0239833D02*
X0339045Y0239833D01*
X0338304Y0240832D02*
X0342084Y0240832D01*
X0343016Y0241830D02*
X0337249Y0241830D01*
X0331323Y0241830D02*
X0327249Y0241830D01*
X0328304Y0240832D02*
X0330269Y0240832D01*
X0329527Y0239833D02*
X0329045Y0239833D01*
X0321323Y0241830D02*
X0317249Y0241830D01*
X0318304Y0240832D02*
X0320269Y0240832D01*
X0319527Y0239833D02*
X0319045Y0239833D01*
X0311323Y0241830D02*
X0306677Y0241830D01*
X0308021Y0240832D02*
X0310269Y0240832D01*
X0309527Y0239833D02*
X0308787Y0239833D01*
X0304786Y0239833D02*
X0303786Y0239833D01*
X0303786Y0238835D02*
X0304786Y0238835D01*
X0304786Y0237836D02*
X0303786Y0237836D01*
X0303786Y0240832D02*
X0304786Y0240832D01*
X0304786Y0241830D02*
X0303786Y0241830D01*
X0301895Y0241830D02*
X0297249Y0241830D01*
X0298304Y0240832D02*
X0300551Y0240832D01*
X0299785Y0239833D02*
X0299045Y0239833D01*
X0291323Y0241830D02*
X0286677Y0241830D01*
X0288021Y0240832D02*
X0290269Y0240832D01*
X0289527Y0239833D02*
X0288787Y0239833D01*
X0284786Y0239833D02*
X0283786Y0239833D01*
X0283786Y0238835D02*
X0284786Y0238835D01*
X0284786Y0237836D02*
X0283786Y0237836D01*
X0283786Y0240832D02*
X0284786Y0240832D01*
X0284786Y0241830D02*
X0283786Y0241830D01*
X0281895Y0241830D02*
X0277249Y0241830D01*
X0278304Y0240832D02*
X0280551Y0240832D01*
X0279785Y0239833D02*
X0279045Y0239833D01*
X0271323Y0241830D02*
X0267249Y0241830D01*
X0268304Y0240832D02*
X0270269Y0240832D01*
X0269527Y0239833D02*
X0269045Y0239833D01*
X0261323Y0241830D02*
X0257249Y0241830D01*
X0258304Y0240832D02*
X0260269Y0240832D01*
X0259527Y0239833D02*
X0259045Y0239833D01*
X0251323Y0241830D02*
X0247249Y0241830D01*
X0248304Y0240832D02*
X0250269Y0240832D01*
X0249527Y0239833D02*
X0249045Y0239833D01*
X0241323Y0241830D02*
X0236677Y0241830D01*
X0238021Y0240832D02*
X0240269Y0240832D01*
X0239527Y0239833D02*
X0238787Y0239833D01*
X0234786Y0239833D02*
X0233786Y0239833D01*
X0233786Y0238835D02*
X0234786Y0238835D01*
X0234786Y0237836D02*
X0233786Y0237836D01*
X0233786Y0240832D02*
X0234786Y0240832D01*
X0234786Y0241830D02*
X0233786Y0241830D01*
X0231895Y0241830D02*
X0227249Y0241830D01*
X0228304Y0240832D02*
X0230551Y0240832D01*
X0229785Y0239833D02*
X0229045Y0239833D01*
X0221323Y0241830D02*
X0217249Y0241830D01*
X0218304Y0240832D02*
X0220269Y0240832D01*
X0219527Y0239833D02*
X0219045Y0239833D01*
X0211323Y0241830D02*
X0206677Y0241830D01*
X0208021Y0240832D02*
X0210269Y0240832D01*
X0209527Y0239833D02*
X0208787Y0239833D01*
X0204786Y0239833D02*
X0203786Y0239833D01*
X0203786Y0238835D02*
X0204786Y0238835D01*
X0204786Y0237836D02*
X0203786Y0237836D01*
X0203786Y0240832D02*
X0204786Y0240832D01*
X0204786Y0241830D02*
X0203786Y0241830D01*
X0201895Y0241830D02*
X0197249Y0241830D01*
X0198304Y0240832D02*
X0200551Y0240832D01*
X0199785Y0239833D02*
X0199045Y0239833D01*
X0191323Y0241830D02*
X0187249Y0241830D01*
X0188304Y0240832D02*
X0190269Y0240832D01*
X0189527Y0239833D02*
X0189045Y0239833D01*
X0181323Y0241830D02*
X0177249Y0241830D01*
X0178304Y0240832D02*
X0180269Y0240832D01*
X0179527Y0239833D02*
X0179045Y0239833D01*
X0171323Y0241830D02*
X0166677Y0241830D01*
X0168021Y0240832D02*
X0170269Y0240832D01*
X0169527Y0239833D02*
X0168787Y0239833D01*
X0164786Y0239833D02*
X0163786Y0239833D01*
X0163786Y0238835D02*
X0164786Y0238835D01*
X0164786Y0237836D02*
X0163786Y0237836D01*
X0163786Y0240832D02*
X0164786Y0240832D01*
X0164786Y0241830D02*
X0163786Y0241830D01*
X0161895Y0241830D02*
X0157249Y0241830D01*
X0158304Y0240832D02*
X0160551Y0240832D01*
X0159785Y0239833D02*
X0159045Y0239833D01*
X0151323Y0241830D02*
X0147249Y0241830D01*
X0148304Y0240832D02*
X0150269Y0240832D01*
X0149527Y0239833D02*
X0149045Y0239833D01*
X0141323Y0241830D02*
X0139643Y0241830D01*
X0140269Y0240832D02*
X0138028Y0240832D01*
X0137064Y0239833D02*
X0139527Y0239833D01*
X0139113Y0238835D02*
X0137641Y0238835D01*
X0138217Y0237836D02*
X0138886Y0237836D01*
X0138886Y0236838D02*
X0138504Y0236838D01*
X0138772Y0235839D02*
X0139010Y0235839D01*
X0139039Y0234841D02*
X0139424Y0234841D01*
X0139214Y0233842D02*
X0140020Y0233842D01*
X0139214Y0232844D02*
X0141018Y0232844D01*
X0141359Y0231845D02*
X0139214Y0231845D01*
X0139214Y0230847D02*
X0140283Y0230847D01*
X0139533Y0229848D02*
X0139047Y0229848D01*
X0139119Y0228850D02*
X0138779Y0228850D01*
X0138886Y0227851D02*
X0138512Y0227851D01*
X0138233Y0226853D02*
X0138886Y0226853D01*
X0139004Y0225854D02*
X0137657Y0225854D01*
X0137080Y0224856D02*
X0139417Y0224856D01*
X0140005Y0223857D02*
X0136504Y0223857D01*
X0135583Y0222859D02*
X0141003Y0222859D01*
X0143097Y0221860D02*
X0134585Y0221860D01*
X0133451Y0220862D02*
X0152086Y0220862D01*
X0152086Y0221860D02*
X0145475Y0221860D01*
X0147569Y0222859D02*
X0151003Y0222859D01*
X0150005Y0223857D02*
X0148567Y0223857D01*
X0149155Y0224856D02*
X0149417Y0224856D01*
X0154286Y0227213D02*
X0154286Y0167747D01*
X0154433Y0167600D01*
X0151856Y0164945D02*
X0113433Y0164945D01*
X0113433Y0165943D02*
X0151115Y0165943D01*
X0150733Y0166942D02*
X0113433Y0166942D01*
X0113433Y0167940D02*
X0150733Y0167940D01*
X0150983Y0168939D02*
X0113433Y0168939D01*
X0113433Y0169937D02*
X0151538Y0169937D01*
X0152086Y0170936D02*
X0113433Y0170936D01*
X0113433Y0171934D02*
X0152086Y0171934D01*
X0152086Y0172933D02*
X0113433Y0172933D01*
X0113433Y0173932D02*
X0152086Y0173932D01*
X0152086Y0174930D02*
X0113433Y0174930D01*
X0113433Y0175929D02*
X0152086Y0175929D01*
X0152086Y0176927D02*
X0113433Y0176927D01*
X0113433Y0177926D02*
X0152086Y0177926D01*
X0152086Y0178924D02*
X0113433Y0178924D01*
X0113433Y0179923D02*
X0152086Y0179923D01*
X0152086Y0180921D02*
X0113433Y0180921D01*
X0113433Y0181920D02*
X0152086Y0181920D01*
X0152086Y0182918D02*
X0113433Y0182918D01*
X0113433Y0183917D02*
X0152086Y0183917D01*
X0152086Y0184915D02*
X0113433Y0184915D01*
X0113433Y0185914D02*
X0152086Y0185914D01*
X0152086Y0186912D02*
X0113433Y0186912D01*
X0113433Y0187911D02*
X0152086Y0187911D01*
X0152086Y0188909D02*
X0113433Y0188909D01*
X0113433Y0189908D02*
X0124886Y0189908D01*
X0125045Y0189856D02*
X0124222Y0190123D01*
X0123451Y0190516D01*
X0122750Y0191025D01*
X0122138Y0191637D01*
X0121629Y0192338D01*
X0121236Y0193109D01*
X0120969Y0193933D01*
X0120844Y0194720D01*
X0125833Y0194720D01*
X0126833Y0194720D01*
X0126833Y0189731D01*
X0127621Y0189856D01*
X0128445Y0190123D01*
X0129216Y0190516D01*
X0129916Y0191025D01*
X0130528Y0191637D01*
X0131037Y0192338D01*
X0131430Y0193109D01*
X0131698Y0193933D01*
X0131823Y0194720D01*
X0126833Y0194720D01*
X0126833Y0195720D01*
X0131823Y0195720D01*
X0131698Y0196508D01*
X0131430Y0197332D01*
X0131037Y0198103D01*
X0130528Y0198803D01*
X0129916Y0199416D01*
X0129216Y0199924D01*
X0128445Y0200318D01*
X0127621Y0200585D01*
X0126833Y0200710D01*
X0126833Y0195721D01*
X0125833Y0195721D01*
X0125833Y0200710D01*
X0125045Y0200585D01*
X0124222Y0200318D01*
X0123451Y0199924D01*
X0122750Y0199416D01*
X0122138Y0198803D01*
X0121629Y0198103D01*
X0121236Y0197332D01*
X0120969Y0196508D01*
X0120844Y0195720D01*
X0125833Y0195720D01*
X0125833Y0194720D01*
X0125833Y0189731D01*
X0125045Y0189856D01*
X0125833Y0189908D02*
X0126833Y0189908D01*
X0127781Y0189908D02*
X0143886Y0189908D01*
X0144045Y0189856D02*
X0143222Y0190123D01*
X0142451Y0190516D01*
X0141750Y0191025D01*
X0141138Y0191637D01*
X0140629Y0192338D01*
X0140236Y0193109D01*
X0139969Y0193933D01*
X0139844Y0194720D01*
X0144833Y0194720D01*
X0145833Y0194720D01*
X0145833Y0189731D01*
X0146621Y0189856D01*
X0147445Y0190123D01*
X0148216Y0190516D01*
X0148916Y0191025D01*
X0149528Y0191637D01*
X0150037Y0192338D01*
X0150430Y0193109D01*
X0150698Y0193933D01*
X0150823Y0194720D01*
X0145833Y0194720D01*
X0145833Y0195720D01*
X0150823Y0195720D01*
X0150698Y0196508D01*
X0150430Y0197332D01*
X0150037Y0198103D01*
X0149528Y0198803D01*
X0148916Y0199416D01*
X0148216Y0199924D01*
X0147445Y0200318D01*
X0146621Y0200585D01*
X0145833Y0200710D01*
X0145833Y0195721D01*
X0144833Y0195721D01*
X0144833Y0200710D01*
X0144045Y0200585D01*
X0143222Y0200318D01*
X0142451Y0199924D01*
X0141750Y0199416D01*
X0141138Y0198803D01*
X0140629Y0198103D01*
X0140236Y0197332D01*
X0139969Y0196508D01*
X0139844Y0195720D01*
X0144833Y0195720D01*
X0144833Y0194720D01*
X0144833Y0189731D01*
X0144045Y0189856D01*
X0144833Y0189908D02*
X0145833Y0189908D01*
X0146781Y0189908D02*
X0152086Y0189908D01*
X0152086Y0190906D02*
X0148752Y0190906D01*
X0149723Y0191905D02*
X0152086Y0191905D01*
X0152086Y0192903D02*
X0150325Y0192903D01*
X0150688Y0193902D02*
X0152086Y0193902D01*
X0152086Y0194900D02*
X0145833Y0194900D01*
X0145833Y0193902D02*
X0144833Y0193902D01*
X0144833Y0194900D02*
X0126833Y0194900D01*
X0126833Y0193902D02*
X0125833Y0193902D01*
X0125833Y0194900D02*
X0113433Y0194900D01*
X0113433Y0193902D02*
X0120979Y0193902D01*
X0121341Y0192903D02*
X0113433Y0192903D01*
X0113433Y0191905D02*
X0121944Y0191905D01*
X0122914Y0190906D02*
X0113433Y0190906D01*
X0113433Y0195899D02*
X0120872Y0195899D01*
X0121095Y0196897D02*
X0113433Y0196897D01*
X0113433Y0197896D02*
X0121524Y0197896D01*
X0122229Y0198894D02*
X0113433Y0198894D01*
X0113433Y0199893D02*
X0123407Y0199893D01*
X0125833Y0199893D02*
X0126833Y0199893D01*
X0126833Y0198894D02*
X0125833Y0198894D01*
X0125833Y0197896D02*
X0126833Y0197896D01*
X0126833Y0196897D02*
X0125833Y0196897D01*
X0125833Y0195899D02*
X0126833Y0195899D01*
X0126833Y0192903D02*
X0125833Y0192903D01*
X0125833Y0191905D02*
X0126833Y0191905D01*
X0126833Y0190906D02*
X0125833Y0190906D01*
X0129752Y0190906D02*
X0141914Y0190906D01*
X0140944Y0191905D02*
X0130723Y0191905D01*
X0131325Y0192903D02*
X0140341Y0192903D01*
X0139979Y0193902D02*
X0131688Y0193902D01*
X0131794Y0195899D02*
X0139872Y0195899D01*
X0140095Y0196897D02*
X0131572Y0196897D01*
X0131143Y0197896D02*
X0140524Y0197896D01*
X0141229Y0198894D02*
X0130438Y0198894D01*
X0129260Y0199893D02*
X0142407Y0199893D01*
X0144833Y0199893D02*
X0145833Y0199893D01*
X0145833Y0198894D02*
X0144833Y0198894D01*
X0144833Y0197896D02*
X0145833Y0197896D01*
X0145833Y0196897D02*
X0144833Y0196897D01*
X0144833Y0195899D02*
X0145833Y0195899D01*
X0145833Y0192903D02*
X0144833Y0192903D01*
X0144833Y0191905D02*
X0145833Y0191905D01*
X0145833Y0190906D02*
X0144833Y0190906D01*
X0150794Y0195899D02*
X0152086Y0195899D01*
X0152086Y0196897D02*
X0150572Y0196897D01*
X0150143Y0197896D02*
X0152086Y0197896D01*
X0152086Y0198894D02*
X0149438Y0198894D01*
X0148260Y0199893D02*
X0152086Y0199893D01*
X0152086Y0200891D02*
X0113433Y0200891D01*
X0113433Y0201890D02*
X0152086Y0201890D01*
X0152086Y0202888D02*
X0113433Y0202888D01*
X0113433Y0203887D02*
X0121042Y0203887D01*
X0120633Y0204296D02*
X0121629Y0203300D01*
X0131037Y0203300D01*
X0132033Y0204296D01*
X0132033Y0213704D01*
X0131037Y0214700D01*
X0121629Y0214700D01*
X0120633Y0213704D01*
X0120633Y0204296D01*
X0120633Y0204885D02*
X0113433Y0204885D01*
X0113433Y0205884D02*
X0120633Y0205884D01*
X0120633Y0206882D02*
X0113433Y0206882D01*
X0113433Y0207881D02*
X0120633Y0207881D01*
X0120633Y0208879D02*
X0113433Y0208879D01*
X0113433Y0209878D02*
X0120633Y0209878D01*
X0120633Y0210876D02*
X0113433Y0210876D01*
X0113433Y0211875D02*
X0120633Y0211875D01*
X0120633Y0212873D02*
X0113433Y0212873D01*
X0113433Y0213872D02*
X0120801Y0213872D01*
X0120885Y0218865D02*
X0113433Y0218865D01*
X0113433Y0219863D02*
X0118504Y0219863D01*
X0116775Y0220862D02*
X0113433Y0220862D01*
X0113433Y0221860D02*
X0115641Y0221860D01*
X0114642Y0222859D02*
X0113433Y0222859D01*
X0113433Y0223857D02*
X0113722Y0223857D01*
X0113433Y0217866D02*
X0152086Y0217866D01*
X0152086Y0216868D02*
X0113433Y0216868D01*
X0113433Y0215869D02*
X0152086Y0215869D01*
X0152086Y0214870D02*
X0113433Y0214870D01*
X0129341Y0218865D02*
X0152086Y0218865D01*
X0152086Y0219863D02*
X0131721Y0219863D01*
X0131866Y0213872D02*
X0139801Y0213872D01*
X0139633Y0213704D02*
X0139633Y0204296D01*
X0140629Y0203300D01*
X0150037Y0203300D01*
X0151033Y0204296D01*
X0151033Y0213704D01*
X0150037Y0214700D01*
X0140629Y0214700D01*
X0139633Y0213704D01*
X0139633Y0212873D02*
X0132033Y0212873D01*
X0132033Y0211875D02*
X0139633Y0211875D01*
X0139633Y0210876D02*
X0132033Y0210876D01*
X0132033Y0209878D02*
X0139633Y0209878D01*
X0139633Y0208879D02*
X0132033Y0208879D01*
X0132033Y0207881D02*
X0139633Y0207881D01*
X0139633Y0206882D02*
X0132033Y0206882D01*
X0132033Y0205884D02*
X0139633Y0205884D01*
X0139633Y0204885D02*
X0132033Y0204885D01*
X0131624Y0203887D02*
X0140042Y0203887D01*
X0150624Y0203887D02*
X0152086Y0203887D01*
X0152086Y0204885D02*
X0151033Y0204885D01*
X0151033Y0205884D02*
X0152086Y0205884D01*
X0152086Y0206882D02*
X0151033Y0206882D01*
X0151033Y0207881D02*
X0152086Y0207881D01*
X0152086Y0208879D02*
X0151033Y0208879D01*
X0151033Y0209878D02*
X0152086Y0209878D01*
X0152086Y0210876D02*
X0151033Y0210876D01*
X0151033Y0211875D02*
X0152086Y0211875D01*
X0152086Y0212873D02*
X0151033Y0212873D01*
X0150866Y0213872D02*
X0152086Y0213872D01*
X0158486Y0213872D02*
X0280229Y0213872D01*
X0284438Y0213872D02*
X0365139Y0213872D01*
X0365139Y0214870D02*
X0285436Y0214870D01*
X0285870Y0215869D02*
X0365139Y0215869D01*
X0365139Y0218865D02*
X0357687Y0218865D01*
X0360068Y0219863D02*
X0365139Y0219863D01*
X0365139Y0220862D02*
X0361797Y0220862D01*
X0362931Y0221860D02*
X0365139Y0221860D01*
X0365139Y0222859D02*
X0363930Y0222859D01*
X0364850Y0223857D02*
X0365139Y0223857D01*
X0365139Y0212873D02*
X0158486Y0212873D01*
X0158486Y0211875D02*
X0365139Y0211875D01*
X0365139Y0210876D02*
X0158486Y0210876D01*
X0158486Y0209878D02*
X0365139Y0209878D01*
X0365139Y0208879D02*
X0158486Y0208879D01*
X0158486Y0207881D02*
X0353407Y0207881D01*
X0352289Y0206882D02*
X0158486Y0206882D01*
X0158486Y0205884D02*
X0351843Y0205884D01*
X0350565Y0204885D02*
X0158486Y0204885D01*
X0158486Y0203887D02*
X0349173Y0203887D01*
X0348613Y0202888D02*
X0158486Y0202888D01*
X0158486Y0201890D02*
X0348398Y0201890D01*
X0348442Y0200891D02*
X0158486Y0200891D01*
X0158486Y0199893D02*
X0348855Y0199893D01*
X0349627Y0198894D02*
X0158486Y0198894D01*
X0158486Y0197896D02*
X0349627Y0197896D01*
X0349627Y0196897D02*
X0158486Y0196897D01*
X0158486Y0195899D02*
X0349627Y0195899D01*
X0349627Y0194900D02*
X0158486Y0194900D01*
X0158486Y0193902D02*
X0349627Y0193902D01*
X0349627Y0192903D02*
X0158486Y0192903D01*
X0158486Y0191905D02*
X0349627Y0191905D01*
X0349627Y0190906D02*
X0158486Y0190906D01*
X0158486Y0189908D02*
X0349627Y0189908D01*
X0349627Y0188909D02*
X0158486Y0188909D01*
X0158486Y0187911D02*
X0349627Y0187911D01*
X0349627Y0186912D02*
X0158486Y0186912D01*
X0158486Y0185914D02*
X0349627Y0185914D01*
X0349627Y0184915D02*
X0158486Y0184915D01*
X0158486Y0183917D02*
X0349627Y0183917D01*
X0349627Y0182918D02*
X0158486Y0182918D01*
X0158486Y0181920D02*
X0349627Y0181920D01*
X0349627Y0180921D02*
X0158486Y0180921D01*
X0158486Y0179923D02*
X0349627Y0179923D01*
X0349627Y0178924D02*
X0270697Y0178924D01*
X0271596Y0177926D02*
X0349627Y0177926D01*
X0349627Y0176927D02*
X0272009Y0176927D01*
X0272088Y0175929D02*
X0349627Y0175929D01*
X0349627Y0174930D02*
X0271950Y0174930D01*
X0271536Y0173932D02*
X0349627Y0173932D01*
X0349627Y0172933D02*
X0270588Y0172933D01*
X0270588Y0171934D02*
X0349627Y0171934D01*
X0349627Y0170936D02*
X0270588Y0170936D01*
X0270588Y0169937D02*
X0348934Y0169937D01*
X0348502Y0168939D02*
X0270588Y0168939D01*
X0270588Y0167940D02*
X0348163Y0167940D01*
X0347164Y0166942D02*
X0270588Y0166942D01*
X0268388Y0164755D02*
X0268333Y0164700D01*
X0215388Y0164700D01*
X0215388Y0165000D01*
X0217588Y0166942D02*
X0266188Y0166942D01*
X0266188Y0167940D02*
X0217588Y0167940D01*
X0217588Y0168939D02*
X0266188Y0168939D01*
X0266188Y0169937D02*
X0217588Y0169937D01*
X0217588Y0170936D02*
X0266188Y0170936D01*
X0266188Y0171934D02*
X0217588Y0171934D01*
X0217588Y0172933D02*
X0266188Y0172933D01*
X0265240Y0173932D02*
X0218536Y0173932D01*
X0218950Y0174930D02*
X0264827Y0174930D01*
X0264688Y0175929D02*
X0219088Y0175929D01*
X0219009Y0176927D02*
X0264768Y0176927D01*
X0265181Y0177926D02*
X0218596Y0177926D01*
X0217697Y0178924D02*
X0266080Y0178924D01*
X0268388Y0176000D02*
X0268388Y0164755D01*
X0268333Y0164700D02*
X0348033Y0164700D01*
X0351285Y0167952D01*
X0351827Y0167952D01*
X0351827Y0201683D01*
X0351848Y0201683D01*
X0345121Y0220862D02*
X0196533Y0220862D01*
X0196533Y0221860D02*
X0203097Y0221860D01*
X0201003Y0222859D02*
X0197569Y0222859D01*
X0198567Y0223857D02*
X0200005Y0223857D01*
X0199417Y0224856D02*
X0199155Y0224856D01*
X0205475Y0221860D02*
X0213097Y0221860D01*
X0211003Y0222859D02*
X0207569Y0222859D01*
X0208567Y0223857D02*
X0210005Y0223857D01*
X0209417Y0224856D02*
X0209155Y0224856D01*
X0215475Y0221860D02*
X0223097Y0221860D01*
X0221003Y0222859D02*
X0217569Y0222859D01*
X0218567Y0223857D02*
X0220005Y0223857D01*
X0219417Y0224856D02*
X0219155Y0224856D01*
X0225475Y0221860D02*
X0233097Y0221860D01*
X0231003Y0222859D02*
X0227569Y0222859D01*
X0228567Y0223857D02*
X0230005Y0223857D01*
X0229417Y0224856D02*
X0229155Y0224856D01*
X0235475Y0221860D02*
X0243097Y0221860D01*
X0241003Y0222859D02*
X0237569Y0222859D01*
X0238567Y0223857D02*
X0240005Y0223857D01*
X0239417Y0224856D02*
X0239155Y0224856D01*
X0245475Y0221860D02*
X0253097Y0221860D01*
X0251003Y0222859D02*
X0247569Y0222859D01*
X0248567Y0223857D02*
X0250005Y0223857D01*
X0249417Y0224856D02*
X0249155Y0224856D01*
X0255475Y0221860D02*
X0273097Y0221860D01*
X0271003Y0222859D02*
X0267140Y0222859D01*
X0268276Y0223857D02*
X0270005Y0223857D01*
X0269417Y0224856D02*
X0268921Y0224856D01*
X0264786Y0224856D02*
X0263786Y0224856D01*
X0263786Y0225854D02*
X0264786Y0225854D01*
X0264786Y0223857D02*
X0263786Y0223857D01*
X0263786Y0222859D02*
X0264786Y0222859D01*
X0261432Y0222859D02*
X0257569Y0222859D01*
X0258567Y0223857D02*
X0260296Y0223857D01*
X0259651Y0224856D02*
X0259155Y0224856D01*
X0275475Y0221860D02*
X0283097Y0221860D01*
X0281003Y0222859D02*
X0277569Y0222859D01*
X0278567Y0223857D02*
X0280005Y0223857D01*
X0279417Y0224856D02*
X0279155Y0224856D01*
X0279964Y0219863D02*
X0196582Y0219863D01*
X0193355Y0216868D02*
X0158486Y0216868D01*
X0158486Y0217866D02*
X0192356Y0217866D01*
X0192133Y0218865D02*
X0159049Y0218865D01*
X0160048Y0219863D02*
X0192133Y0219863D01*
X0194353Y0215869D02*
X0158486Y0215869D01*
X0158486Y0214870D02*
X0195352Y0214870D01*
X0140332Y0242829D02*
X0344015Y0242829D01*
X0345169Y0243827D02*
X0140671Y0243827D01*
X0140671Y0244826D02*
X0346898Y0244826D01*
X0349334Y0245824D02*
X0140374Y0245824D01*
X0159015Y0174930D02*
X0169491Y0174930D01*
X0215633Y0159952D02*
X0113433Y0159952D01*
X0113433Y0158954D02*
X0215720Y0158954D01*
X0216134Y0157955D02*
X0113433Y0157955D01*
X0113433Y0156957D02*
X0217044Y0156957D01*
X0221623Y0156957D02*
X0269936Y0156957D01*
X0269026Y0157955D02*
X0222533Y0157955D01*
X0222946Y0158954D02*
X0268613Y0158954D01*
X0268525Y0159952D02*
X0223033Y0159952D01*
X0274515Y0156957D02*
X0365139Y0156957D01*
X0365139Y0157955D02*
X0275425Y0157955D01*
X0275838Y0158954D02*
X0365139Y0158954D01*
X0365139Y0159952D02*
X0275925Y0159952D01*
X0332069Y0135988D02*
X0334685Y0135988D01*
X0333830Y0134990D02*
X0332529Y0134990D01*
X0332636Y0133991D02*
X0333417Y0133991D01*
X0333373Y0132993D02*
X0332137Y0132993D01*
X0331638Y0131994D02*
X0333553Y0131994D01*
X0334016Y0130996D02*
X0331138Y0130996D01*
X0340068Y0130996D02*
X0344301Y0130996D01*
X0343302Y0131994D02*
X0340531Y0131994D01*
X0340710Y0132993D02*
X0342304Y0132993D01*
X0341673Y0133991D02*
X0340667Y0133991D01*
X0340254Y0134990D02*
X0341096Y0134990D01*
X0340520Y0135988D02*
X0339399Y0135988D01*
X0360563Y0153961D02*
X0365139Y0153961D01*
X0365139Y0152963D02*
X0362219Y0152963D01*
X0363217Y0151964D02*
X0365139Y0151964D01*
X0365139Y0150966D02*
X0364216Y0150966D01*
X0365015Y0149967D02*
X0365139Y0149967D01*
X0365139Y0154960D02*
X0358754Y0154960D01*
X0365139Y0155958D02*
X0113433Y0155958D01*
X0113433Y0154960D02*
X0119818Y0154960D01*
X0118009Y0153961D02*
X0113433Y0153961D01*
X0113433Y0152963D02*
X0116353Y0152963D01*
X0115355Y0151964D02*
X0113433Y0151964D01*
X0113433Y0150966D02*
X0114356Y0150966D01*
X0113557Y0149967D02*
X0113433Y0149967D01*
D16*
X0154433Y0167600D03*
X0171633Y0163900D03*
X0171672Y0171878D03*
X0187089Y0184224D03*
X0215388Y0176000D03*
X0219333Y0159900D03*
X0240510Y0155378D03*
X0268388Y0176000D03*
X0272225Y0159900D03*
X0241333Y0184500D03*
X0266333Y0208000D03*
X0282333Y0217000D03*
X0287333Y0192500D03*
X0326570Y0169909D03*
X0343333Y0185000D03*
X0330833Y0196000D03*
X0330333Y0211000D03*
X0214833Y0207500D03*
X0183333Y0207500D03*
D17*
X0351848Y0201683D03*
X0355158Y0204872D03*
X0355136Y0171044D03*
X0351827Y0167952D03*
M02*
