G75*
%MOIN*%
%OFA0B0*%
%FSLAX25Y25*%
%IPPOS*%
%LPD*%
%AMOC8*
5,1,8,0,0,1.08239X$1,22.5*
%
%ADD10C,0.01100*%
%ADD11C,0.00800*%
%ADD12C,0.00300*%
D10*
X0151847Y0194503D02*
X0155783Y0194503D01*
X0152815Y0206534D02*
X0152815Y0210471D01*
X0154783Y0208503D02*
X0150847Y0208503D01*
D11*
X0147286Y0220713D02*
X0140786Y0220713D01*
D12*
X0173928Y0167551D02*
X0178534Y0167551D01*
X0178534Y0177000D01*
X0178573Y0177945D01*
X0178692Y0178772D01*
X0178888Y0179480D01*
X0179164Y0180071D01*
X0179597Y0180504D01*
X0180109Y0180819D01*
X0180699Y0181016D01*
X0181448Y0181094D01*
X0182314Y0181016D01*
X0183062Y0180819D01*
X0183692Y0180465D01*
X0184164Y0179953D01*
X0184558Y0179323D01*
X0184794Y0178496D01*
X0184951Y0177472D01*
X0185030Y0176291D01*
X0185030Y0167551D01*
X0189597Y0167551D01*
X0189597Y0182157D01*
X0189558Y0184244D01*
X0185188Y0184244D01*
X0185188Y0181921D01*
X0185148Y0181921D01*
X0184676Y0182591D01*
X0184125Y0183181D01*
X0183534Y0183654D01*
X0182865Y0184047D01*
X0182196Y0184323D01*
X0181487Y0184520D01*
X0180778Y0184677D01*
X0180030Y0184717D01*
X0178377Y0184559D01*
X0177038Y0184205D01*
X0175975Y0183614D01*
X0175148Y0182827D01*
X0174597Y0181803D01*
X0174203Y0180661D01*
X0174007Y0179323D01*
X0173928Y0177827D01*
X0173928Y0167551D01*
X0173928Y0167702D02*
X0178534Y0167702D01*
X0178534Y0168001D02*
X0173928Y0168001D01*
X0173928Y0168299D02*
X0178534Y0168299D01*
X0178534Y0168598D02*
X0173928Y0168598D01*
X0173928Y0168896D02*
X0178534Y0168896D01*
X0178534Y0169195D02*
X0173928Y0169195D01*
X0173928Y0169493D02*
X0178534Y0169493D01*
X0178534Y0169792D02*
X0173928Y0169792D01*
X0173928Y0170090D02*
X0178534Y0170090D01*
X0178534Y0170389D02*
X0173928Y0170389D01*
X0173928Y0170687D02*
X0178534Y0170687D01*
X0178534Y0170986D02*
X0173928Y0170986D01*
X0173928Y0171284D02*
X0178534Y0171284D01*
X0178534Y0171583D02*
X0173928Y0171583D01*
X0173928Y0171881D02*
X0178534Y0171881D01*
X0178534Y0172180D02*
X0173928Y0172180D01*
X0173928Y0172478D02*
X0178534Y0172478D01*
X0178534Y0172777D02*
X0173928Y0172777D01*
X0173928Y0173075D02*
X0178534Y0173075D01*
X0178534Y0173374D02*
X0173928Y0173374D01*
X0173928Y0173672D02*
X0178534Y0173672D01*
X0178534Y0173971D02*
X0173928Y0173971D01*
X0173928Y0174269D02*
X0178534Y0174269D01*
X0178534Y0174568D02*
X0173928Y0174568D01*
X0173928Y0174866D02*
X0178534Y0174866D01*
X0178534Y0175165D02*
X0173928Y0175165D01*
X0173928Y0175463D02*
X0178534Y0175463D01*
X0178534Y0175762D02*
X0173928Y0175762D01*
X0173928Y0176060D02*
X0178534Y0176060D01*
X0178534Y0176359D02*
X0173928Y0176359D01*
X0173928Y0176657D02*
X0178534Y0176657D01*
X0178534Y0176956D02*
X0173928Y0176956D01*
X0173928Y0177254D02*
X0178545Y0177254D01*
X0178557Y0177553D02*
X0173928Y0177553D01*
X0173929Y0177851D02*
X0178570Y0177851D01*
X0178603Y0178150D02*
X0173945Y0178150D01*
X0173961Y0178448D02*
X0178645Y0178448D01*
X0178688Y0178747D02*
X0173976Y0178747D01*
X0173992Y0179045D02*
X0178768Y0179045D01*
X0178851Y0179344D02*
X0174010Y0179344D01*
X0174054Y0179642D02*
X0178964Y0179642D01*
X0179103Y0179941D02*
X0174097Y0179941D01*
X0174141Y0180239D02*
X0179333Y0180239D01*
X0179652Y0180538D02*
X0174185Y0180538D01*
X0174264Y0180837D02*
X0180162Y0180837D01*
X0182995Y0180837D02*
X0189597Y0180837D01*
X0189597Y0181135D02*
X0174367Y0181135D01*
X0174470Y0181434D02*
X0189597Y0181434D01*
X0189597Y0181732D02*
X0174573Y0181732D01*
X0174720Y0182031D02*
X0185071Y0182031D01*
X0185188Y0182031D02*
X0189597Y0182031D01*
X0189594Y0182329D02*
X0185188Y0182329D01*
X0185188Y0182628D02*
X0189588Y0182628D01*
X0189583Y0182926D02*
X0185188Y0182926D01*
X0185188Y0183225D02*
X0189577Y0183225D01*
X0189571Y0183523D02*
X0185188Y0183523D01*
X0185188Y0183822D02*
X0189566Y0183822D01*
X0189560Y0184120D02*
X0185188Y0184120D01*
X0184070Y0183225D02*
X0175566Y0183225D01*
X0175879Y0183523D02*
X0183697Y0183523D01*
X0183248Y0183822D02*
X0176348Y0183822D01*
X0176886Y0184120D02*
X0182688Y0184120D01*
X0181851Y0184419D02*
X0177846Y0184419D01*
X0175253Y0182926D02*
X0184363Y0182926D01*
X0184641Y0182628D02*
X0175041Y0182628D01*
X0174880Y0182329D02*
X0184860Y0182329D01*
X0183561Y0180538D02*
X0189597Y0180538D01*
X0189597Y0180239D02*
X0183899Y0180239D01*
X0184171Y0179941D02*
X0189597Y0179941D01*
X0189597Y0179642D02*
X0184358Y0179642D01*
X0184545Y0179344D02*
X0189597Y0179344D01*
X0189597Y0179045D02*
X0184637Y0179045D01*
X0184722Y0178747D02*
X0189597Y0178747D01*
X0189597Y0178448D02*
X0184801Y0178448D01*
X0184847Y0178150D02*
X0189597Y0178150D01*
X0189597Y0177851D02*
X0184893Y0177851D01*
X0184939Y0177553D02*
X0189597Y0177553D01*
X0189597Y0177254D02*
X0184966Y0177254D01*
X0184986Y0176956D02*
X0189597Y0176956D01*
X0189597Y0176657D02*
X0185006Y0176657D01*
X0185026Y0176359D02*
X0189597Y0176359D01*
X0189597Y0176060D02*
X0185030Y0176060D01*
X0185030Y0175762D02*
X0189597Y0175762D01*
X0189597Y0175463D02*
X0185030Y0175463D01*
X0185030Y0175165D02*
X0189597Y0175165D01*
X0189597Y0174866D02*
X0185030Y0174866D01*
X0185030Y0174568D02*
X0189597Y0174568D01*
X0189597Y0174269D02*
X0185030Y0174269D01*
X0185030Y0173971D02*
X0189597Y0173971D01*
X0189597Y0173672D02*
X0185030Y0173672D01*
X0185030Y0173374D02*
X0189597Y0173374D01*
X0189597Y0173075D02*
X0185030Y0173075D01*
X0185030Y0172777D02*
X0189597Y0172777D01*
X0189597Y0172478D02*
X0185030Y0172478D01*
X0185030Y0172180D02*
X0189597Y0172180D01*
X0189597Y0171881D02*
X0185030Y0171881D01*
X0185030Y0171583D02*
X0189597Y0171583D01*
X0189597Y0171284D02*
X0185030Y0171284D01*
X0185030Y0170986D02*
X0189597Y0170986D01*
X0189597Y0170687D02*
X0185030Y0170687D01*
X0185030Y0170389D02*
X0189597Y0170389D01*
X0189597Y0170090D02*
X0185030Y0170090D01*
X0185030Y0169792D02*
X0189597Y0169792D01*
X0189597Y0169493D02*
X0185030Y0169493D01*
X0185030Y0169195D02*
X0189597Y0169195D01*
X0189597Y0168896D02*
X0185030Y0168896D01*
X0185030Y0168598D02*
X0189597Y0168598D01*
X0189597Y0168299D02*
X0185030Y0168299D01*
X0185030Y0168001D02*
X0189597Y0168001D01*
X0189597Y0167702D02*
X0185030Y0167702D01*
X0192075Y0167702D02*
X0196448Y0167702D01*
X0196448Y0167551D02*
X0196448Y0169874D01*
X0196487Y0169874D01*
X0196959Y0169205D01*
X0197510Y0168654D01*
X0198101Y0168142D01*
X0198770Y0167787D01*
X0199440Y0167472D01*
X0200148Y0167276D01*
X0200857Y0167118D01*
X0201605Y0167079D01*
X0203259Y0167236D01*
X0204597Y0167591D01*
X0205660Y0168181D01*
X0206487Y0168969D01*
X0207077Y0169992D01*
X0207432Y0171173D01*
X0207629Y0172472D01*
X0207707Y0173969D01*
X0207707Y0184244D01*
X0203140Y0184244D01*
X0203140Y0174835D01*
X0203062Y0173850D01*
X0202944Y0173024D01*
X0202747Y0172315D01*
X0202471Y0171724D01*
X0202077Y0171291D01*
X0201566Y0170976D01*
X0200936Y0170780D01*
X0200188Y0170701D01*
X0199322Y0170780D01*
X0198573Y0170976D01*
X0197944Y0171331D01*
X0197471Y0171843D01*
X0197077Y0172472D01*
X0196841Y0173299D01*
X0196684Y0174323D01*
X0196644Y0175504D01*
X0196644Y0184244D01*
X0192038Y0184244D01*
X0192038Y0169638D01*
X0192077Y0167551D01*
X0196448Y0167551D01*
X0196448Y0168001D02*
X0192069Y0168001D01*
X0192063Y0168299D02*
X0196448Y0168299D01*
X0196448Y0168598D02*
X0192058Y0168598D01*
X0192052Y0168896D02*
X0196448Y0168896D01*
X0196448Y0169195D02*
X0192046Y0169195D01*
X0192041Y0169493D02*
X0196448Y0169493D01*
X0196448Y0169792D02*
X0192038Y0169792D01*
X0192038Y0170090D02*
X0207107Y0170090D01*
X0207196Y0170389D02*
X0192038Y0170389D01*
X0192038Y0170687D02*
X0207286Y0170687D01*
X0207375Y0170986D02*
X0201581Y0170986D01*
X0202066Y0171284D02*
X0207449Y0171284D01*
X0207494Y0171583D02*
X0202342Y0171583D01*
X0202544Y0171881D02*
X0207539Y0171881D01*
X0207584Y0172180D02*
X0202684Y0172180D01*
X0202792Y0172478D02*
X0207629Y0172478D01*
X0207645Y0172777D02*
X0202875Y0172777D01*
X0202951Y0173075D02*
X0207660Y0173075D01*
X0207676Y0173374D02*
X0202994Y0173374D01*
X0203036Y0173672D02*
X0207692Y0173672D01*
X0207707Y0173971D02*
X0203071Y0173971D01*
X0203095Y0174269D02*
X0207707Y0174269D01*
X0207707Y0174568D02*
X0203119Y0174568D01*
X0203140Y0174866D02*
X0207707Y0174866D01*
X0207707Y0175165D02*
X0203140Y0175165D01*
X0203140Y0175463D02*
X0207707Y0175463D01*
X0207707Y0175762D02*
X0203140Y0175762D01*
X0203140Y0176060D02*
X0207707Y0176060D01*
X0207707Y0176359D02*
X0203140Y0176359D01*
X0203140Y0176657D02*
X0207707Y0176657D01*
X0207707Y0176956D02*
X0203140Y0176956D01*
X0203140Y0177254D02*
X0207707Y0177254D01*
X0207707Y0177553D02*
X0203140Y0177553D01*
X0203140Y0177851D02*
X0207707Y0177851D01*
X0207707Y0178150D02*
X0203140Y0178150D01*
X0203140Y0178448D02*
X0207707Y0178448D01*
X0207707Y0178747D02*
X0203140Y0178747D01*
X0203140Y0179045D02*
X0207707Y0179045D01*
X0207707Y0179344D02*
X0203140Y0179344D01*
X0203140Y0179642D02*
X0207707Y0179642D01*
X0207707Y0179941D02*
X0203140Y0179941D01*
X0203140Y0180239D02*
X0207707Y0180239D01*
X0207707Y0180538D02*
X0203140Y0180538D01*
X0203140Y0180837D02*
X0207707Y0180837D01*
X0207707Y0181135D02*
X0203140Y0181135D01*
X0203140Y0181434D02*
X0207707Y0181434D01*
X0207707Y0181732D02*
X0203140Y0181732D01*
X0203140Y0182031D02*
X0207707Y0182031D01*
X0207707Y0182329D02*
X0203140Y0182329D01*
X0203140Y0182628D02*
X0207707Y0182628D01*
X0207707Y0182926D02*
X0203140Y0182926D01*
X0203140Y0183225D02*
X0207707Y0183225D01*
X0207707Y0183523D02*
X0203140Y0183523D01*
X0203140Y0183822D02*
X0207707Y0183822D01*
X0207707Y0184120D02*
X0203140Y0184120D01*
X0209046Y0184120D02*
X0218304Y0184120D01*
X0218180Y0184244D02*
X0216802Y0184244D01*
X0216802Y0185543D01*
X0216723Y0186606D01*
X0216448Y0187591D01*
X0216014Y0188457D01*
X0215385Y0189205D01*
X0214636Y0189795D01*
X0213652Y0190228D01*
X0212510Y0190504D01*
X0211211Y0190622D01*
X0210896Y0190622D01*
X0210581Y0190583D01*
X0209991Y0190583D01*
X0209361Y0190504D01*
X0208770Y0190504D01*
X0208770Y0187079D01*
X0209007Y0187118D01*
X0209400Y0187118D01*
X0209636Y0187157D01*
X0210463Y0187157D01*
X0210896Y0187118D01*
X0211251Y0187039D01*
X0211566Y0186921D01*
X0211802Y0186724D01*
X0211999Y0186449D01*
X0212117Y0186134D01*
X0212196Y0185740D01*
X0212196Y0184244D01*
X0209046Y0184244D01*
X0209046Y0181173D01*
X0212196Y0181173D01*
X0212196Y0167551D01*
X0216802Y0167551D01*
X0216802Y0181173D01*
X0221329Y0181173D01*
X0220542Y0181961D01*
X0220148Y0182315D01*
X0218967Y0183496D01*
X0218573Y0183850D01*
X0218180Y0184244D01*
X0218605Y0183822D02*
X0209046Y0183822D01*
X0209046Y0183523D02*
X0218937Y0183523D01*
X0219239Y0183225D02*
X0209046Y0183225D01*
X0209046Y0182926D02*
X0219537Y0182926D01*
X0219836Y0182628D02*
X0209046Y0182628D01*
X0209046Y0182329D02*
X0220134Y0182329D01*
X0220464Y0182031D02*
X0209046Y0182031D01*
X0209046Y0181732D02*
X0220771Y0181732D01*
X0221069Y0181434D02*
X0209046Y0181434D01*
X0212196Y0181135D02*
X0216802Y0181135D01*
X0216802Y0180837D02*
X0212196Y0180837D01*
X0212196Y0180538D02*
X0216802Y0180538D01*
X0216802Y0180239D02*
X0212196Y0180239D01*
X0212196Y0179941D02*
X0216802Y0179941D01*
X0216802Y0179642D02*
X0212196Y0179642D01*
X0212196Y0179344D02*
X0216802Y0179344D01*
X0216802Y0179045D02*
X0212196Y0179045D01*
X0212196Y0178747D02*
X0216802Y0178747D01*
X0216802Y0178448D02*
X0212196Y0178448D01*
X0212196Y0178150D02*
X0216802Y0178150D01*
X0216802Y0177851D02*
X0212196Y0177851D01*
X0212196Y0177553D02*
X0216802Y0177553D01*
X0216802Y0177254D02*
X0212196Y0177254D01*
X0212196Y0176956D02*
X0216802Y0176956D01*
X0216802Y0176657D02*
X0212196Y0176657D01*
X0212196Y0176359D02*
X0216802Y0176359D01*
X0216802Y0176060D02*
X0212196Y0176060D01*
X0212196Y0175762D02*
X0216802Y0175762D01*
X0216802Y0175463D02*
X0212196Y0175463D01*
X0212196Y0175165D02*
X0216802Y0175165D01*
X0216802Y0174866D02*
X0212196Y0174866D01*
X0212196Y0174568D02*
X0216802Y0174568D01*
X0216802Y0174269D02*
X0212196Y0174269D01*
X0212196Y0173971D02*
X0216802Y0173971D01*
X0216802Y0173672D02*
X0212196Y0173672D01*
X0212196Y0173374D02*
X0216802Y0173374D01*
X0216802Y0173075D02*
X0212196Y0173075D01*
X0212196Y0172777D02*
X0216802Y0172777D01*
X0216802Y0172478D02*
X0212196Y0172478D01*
X0212196Y0172180D02*
X0216802Y0172180D01*
X0216802Y0171881D02*
X0212196Y0171881D01*
X0212196Y0171583D02*
X0216802Y0171583D01*
X0216802Y0171284D02*
X0212196Y0171284D01*
X0212196Y0170986D02*
X0216802Y0170986D01*
X0216802Y0170687D02*
X0212196Y0170687D01*
X0212196Y0170389D02*
X0216802Y0170389D01*
X0216802Y0170090D02*
X0212196Y0170090D01*
X0212196Y0169792D02*
X0216802Y0169792D01*
X0216802Y0169493D02*
X0212196Y0169493D01*
X0212196Y0169195D02*
X0216802Y0169195D01*
X0216802Y0168896D02*
X0212196Y0168896D01*
X0212196Y0168598D02*
X0216802Y0168598D01*
X0216802Y0168299D02*
X0212196Y0168299D01*
X0212196Y0168001D02*
X0216802Y0168001D01*
X0216802Y0167702D02*
X0212196Y0167702D01*
X0206962Y0169792D02*
X0196545Y0169792D01*
X0196756Y0169493D02*
X0206790Y0169493D01*
X0206617Y0169195D02*
X0196969Y0169195D01*
X0197268Y0168896D02*
X0206411Y0168896D01*
X0206097Y0168598D02*
X0197575Y0168598D01*
X0197920Y0168299D02*
X0205784Y0168299D01*
X0205335Y0168001D02*
X0198368Y0168001D01*
X0198952Y0167702D02*
X0204798Y0167702D01*
X0203890Y0167403D02*
X0199688Y0167403D01*
X0201106Y0167105D02*
X0201881Y0167105D01*
X0198557Y0170986D02*
X0192038Y0170986D01*
X0192038Y0171284D02*
X0198026Y0171284D01*
X0197711Y0171583D02*
X0192038Y0171583D01*
X0192038Y0171881D02*
X0197447Y0171881D01*
X0197260Y0172180D02*
X0192038Y0172180D01*
X0192038Y0172478D02*
X0197076Y0172478D01*
X0196991Y0172777D02*
X0192038Y0172777D01*
X0192038Y0173075D02*
X0196905Y0173075D01*
X0196830Y0173374D02*
X0192038Y0173374D01*
X0192038Y0173672D02*
X0196784Y0173672D01*
X0196738Y0173971D02*
X0192038Y0173971D01*
X0192038Y0174269D02*
X0196692Y0174269D01*
X0196676Y0174568D02*
X0192038Y0174568D01*
X0192038Y0174866D02*
X0196666Y0174866D01*
X0196656Y0175165D02*
X0192038Y0175165D01*
X0192038Y0175463D02*
X0196646Y0175463D01*
X0196644Y0175762D02*
X0192038Y0175762D01*
X0192038Y0176060D02*
X0196644Y0176060D01*
X0196644Y0176359D02*
X0192038Y0176359D01*
X0192038Y0176657D02*
X0196644Y0176657D01*
X0196644Y0176956D02*
X0192038Y0176956D01*
X0192038Y0177254D02*
X0196644Y0177254D01*
X0196644Y0177553D02*
X0192038Y0177553D01*
X0192038Y0177851D02*
X0196644Y0177851D01*
X0196644Y0178150D02*
X0192038Y0178150D01*
X0192038Y0178448D02*
X0196644Y0178448D01*
X0196644Y0178747D02*
X0192038Y0178747D01*
X0192038Y0179045D02*
X0196644Y0179045D01*
X0196644Y0179344D02*
X0192038Y0179344D01*
X0192038Y0179642D02*
X0196644Y0179642D01*
X0196644Y0179941D02*
X0192038Y0179941D01*
X0192038Y0180239D02*
X0196644Y0180239D01*
X0196644Y0180538D02*
X0192038Y0180538D01*
X0192038Y0180837D02*
X0196644Y0180837D01*
X0196644Y0181135D02*
X0192038Y0181135D01*
X0192038Y0181434D02*
X0196644Y0181434D01*
X0196644Y0181732D02*
X0192038Y0181732D01*
X0192038Y0182031D02*
X0196644Y0182031D01*
X0196644Y0182329D02*
X0192038Y0182329D01*
X0192038Y0182628D02*
X0196644Y0182628D01*
X0196644Y0182926D02*
X0192038Y0182926D01*
X0192038Y0183225D02*
X0196644Y0183225D01*
X0196644Y0183523D02*
X0192038Y0183523D01*
X0192038Y0183822D02*
X0196644Y0183822D01*
X0196644Y0184120D02*
X0192038Y0184120D01*
X0208770Y0187105D02*
X0208929Y0187105D01*
X0208770Y0187404D02*
X0216500Y0187404D01*
X0216583Y0187105D02*
X0210954Y0187105D01*
X0211703Y0186807D02*
X0216667Y0186807D01*
X0216730Y0186508D02*
X0211956Y0186508D01*
X0212088Y0186210D02*
X0216752Y0186210D01*
X0216775Y0185911D02*
X0212161Y0185911D01*
X0212196Y0185613D02*
X0216797Y0185613D01*
X0216802Y0185314D02*
X0212196Y0185314D01*
X0212196Y0185016D02*
X0216802Y0185016D01*
X0216802Y0184717D02*
X0212196Y0184717D01*
X0212196Y0184419D02*
X0216802Y0184419D01*
X0216392Y0187702D02*
X0208770Y0187702D01*
X0208770Y0188001D02*
X0216242Y0188001D01*
X0216093Y0188299D02*
X0208770Y0188299D01*
X0208770Y0188598D02*
X0215896Y0188598D01*
X0215644Y0188896D02*
X0208770Y0188896D01*
X0208770Y0189195D02*
X0215393Y0189195D01*
X0215019Y0189493D02*
X0208770Y0189493D01*
X0208770Y0189792D02*
X0214641Y0189792D01*
X0213966Y0190090D02*
X0208770Y0190090D01*
X0208770Y0190389D02*
X0212987Y0190389D01*
X0214176Y0195762D02*
X0226605Y0195762D01*
X0226605Y0195464D02*
X0215876Y0195464D01*
X0216211Y0195425D02*
X0214833Y0195583D01*
X0213534Y0195937D01*
X0212314Y0196488D01*
X0211211Y0197157D01*
X0210227Y0197984D01*
X0209322Y0198929D01*
X0208495Y0199953D01*
X0207353Y0202118D01*
X0206762Y0204283D01*
X0206644Y0206370D01*
X0206920Y0208260D01*
X0207550Y0209953D01*
X0208337Y0211331D01*
X0209282Y0212354D01*
X0210306Y0212945D01*
X0210306Y0212906D01*
X0210266Y0212827D01*
X0210227Y0212630D01*
X0210227Y0212315D01*
X0210266Y0211961D01*
X0210345Y0211606D01*
X0210503Y0211291D01*
X0210818Y0211016D01*
X0211251Y0210858D01*
X0211605Y0210858D01*
X0212038Y0210937D01*
X0212471Y0211094D01*
X0212904Y0211291D01*
X0213377Y0211567D01*
X0213770Y0211882D01*
X0220363Y0211882D01*
X0220385Y0211921D02*
X0219833Y0210898D01*
X0219046Y0209874D01*
X0218062Y0208890D01*
X0217274Y0207984D01*
X0216920Y0207079D01*
X0216881Y0206252D01*
X0217117Y0205504D01*
X0217629Y0204913D01*
X0218337Y0204480D01*
X0219203Y0204205D01*
X0220148Y0204205D01*
X0220778Y0204362D01*
X0221290Y0204598D01*
X0221723Y0204913D01*
X0222038Y0205268D01*
X0222274Y0205661D01*
X0222392Y0206055D01*
X0222392Y0206449D01*
X0222274Y0206803D01*
X0222077Y0207079D01*
X0221841Y0207315D01*
X0221290Y0207709D01*
X0221014Y0207827D01*
X0220818Y0207945D01*
X0220660Y0207984D01*
X0220581Y0208024D01*
X0220660Y0208063D01*
X0220857Y0208102D01*
X0221172Y0208181D01*
X0221566Y0208260D01*
X0222038Y0208299D01*
X0222589Y0208260D01*
X0223219Y0208181D01*
X0223849Y0207984D01*
X0224400Y0207709D01*
X0224951Y0207354D01*
X0225424Y0206921D01*
X0225857Y0206409D01*
X0226211Y0205740D01*
X0226448Y0204913D01*
X0226605Y0203929D01*
X0226605Y0187669D01*
X0226526Y0187748D01*
X0226329Y0188024D01*
X0226014Y0188417D01*
X0225542Y0188929D01*
X0225030Y0189559D01*
X0224440Y0190228D01*
X0223770Y0190976D01*
X0223062Y0191724D01*
X0222314Y0192551D01*
X0221644Y0193299D01*
X0221014Y0193969D01*
X0220424Y0194520D01*
X0219833Y0194953D01*
X0219203Y0195228D01*
X0218495Y0195386D01*
X0217747Y0195425D01*
X0216211Y0195425D01*
X0213260Y0196061D02*
X0226605Y0196061D01*
X0226605Y0196359D02*
X0212600Y0196359D01*
X0212035Y0196658D02*
X0226605Y0196658D01*
X0226605Y0196956D02*
X0211543Y0196956D01*
X0211096Y0197255D02*
X0226605Y0197255D01*
X0226605Y0197553D02*
X0210740Y0197553D01*
X0210385Y0197852D02*
X0226605Y0197852D01*
X0226605Y0198150D02*
X0210068Y0198150D01*
X0209782Y0198449D02*
X0226605Y0198449D01*
X0226605Y0198747D02*
X0209496Y0198747D01*
X0209227Y0199046D02*
X0226605Y0199046D01*
X0226605Y0199344D02*
X0208986Y0199344D01*
X0208745Y0199643D02*
X0226605Y0199643D01*
X0226605Y0199941D02*
X0208504Y0199941D01*
X0208343Y0200240D02*
X0226605Y0200240D01*
X0226605Y0200538D02*
X0208186Y0200538D01*
X0208029Y0200837D02*
X0226605Y0200837D01*
X0226605Y0201135D02*
X0207871Y0201135D01*
X0207714Y0201434D02*
X0226605Y0201434D01*
X0226605Y0201732D02*
X0207556Y0201732D01*
X0207399Y0202031D02*
X0226605Y0202031D01*
X0226605Y0202329D02*
X0207295Y0202329D01*
X0207214Y0202628D02*
X0226605Y0202628D01*
X0226605Y0202926D02*
X0207133Y0202926D01*
X0207051Y0203225D02*
X0226605Y0203225D01*
X0226605Y0203523D02*
X0206970Y0203523D01*
X0206888Y0203822D02*
X0226605Y0203822D01*
X0226574Y0204120D02*
X0206807Y0204120D01*
X0206755Y0204419D02*
X0218530Y0204419D01*
X0217949Y0204717D02*
X0206738Y0204717D01*
X0206721Y0205016D02*
X0217540Y0205016D01*
X0217281Y0205314D02*
X0206704Y0205314D01*
X0206687Y0205613D02*
X0217082Y0205613D01*
X0216988Y0205911D02*
X0206670Y0205911D01*
X0206653Y0206210D02*
X0216894Y0206210D01*
X0216893Y0206508D02*
X0206665Y0206508D01*
X0206708Y0206807D02*
X0216907Y0206807D01*
X0216930Y0207105D02*
X0206752Y0207105D01*
X0206795Y0207404D02*
X0217047Y0207404D01*
X0217164Y0207703D02*
X0206839Y0207703D01*
X0206882Y0208001D02*
X0217289Y0208001D01*
X0217548Y0208300D02*
X0206935Y0208300D01*
X0207046Y0208598D02*
X0217808Y0208598D01*
X0218068Y0208897D02*
X0207157Y0208897D01*
X0207268Y0209195D02*
X0218367Y0209195D01*
X0218666Y0209494D02*
X0207379Y0209494D01*
X0207490Y0209792D02*
X0218964Y0209792D01*
X0219213Y0210091D02*
X0207629Y0210091D01*
X0207799Y0210389D02*
X0219442Y0210389D01*
X0219672Y0210688D02*
X0207970Y0210688D01*
X0208140Y0210986D02*
X0210899Y0210986D01*
X0210510Y0211285D02*
X0208311Y0211285D01*
X0208570Y0211583D02*
X0210357Y0211583D01*
X0210284Y0211882D02*
X0208846Y0211882D01*
X0209121Y0212180D02*
X0210242Y0212180D01*
X0210227Y0212479D02*
X0209498Y0212479D01*
X0210015Y0212777D02*
X0210256Y0212777D01*
X0212173Y0210986D02*
X0219881Y0210986D01*
X0220042Y0211285D02*
X0212889Y0211285D01*
X0213397Y0211583D02*
X0220202Y0211583D01*
X0220385Y0211921D02*
X0220660Y0212984D01*
X0220660Y0213969D01*
X0220345Y0214953D01*
X0219676Y0215898D01*
X0218652Y0216764D01*
X0217314Y0217433D01*
X0216014Y0217709D01*
X0214833Y0217669D01*
X0213770Y0217394D01*
X0212865Y0217039D01*
X0212156Y0216646D01*
X0211723Y0216331D01*
X0211566Y0216213D01*
X0211644Y0216213D01*
X0211881Y0216252D01*
X0212235Y0216291D01*
X0212668Y0216291D01*
X0213140Y0216213D01*
X0213652Y0216094D01*
X0214125Y0215819D01*
X0214558Y0215425D01*
X0214833Y0215150D01*
X0214991Y0214835D01*
X0215109Y0214480D01*
X0215148Y0214126D01*
X0215109Y0213772D01*
X0214991Y0213378D01*
X0214794Y0212984D01*
X0214479Y0212591D01*
X0214164Y0212236D01*
X0213770Y0211882D01*
X0214102Y0212180D02*
X0220452Y0212180D01*
X0220529Y0212479D02*
X0214380Y0212479D01*
X0214628Y0212777D02*
X0220606Y0212777D01*
X0220660Y0213076D02*
X0214840Y0213076D01*
X0214989Y0213374D02*
X0220660Y0213374D01*
X0220660Y0213673D02*
X0215079Y0213673D01*
X0215131Y0213971D02*
X0220659Y0213971D01*
X0220564Y0214270D02*
X0215132Y0214270D01*
X0215080Y0214568D02*
X0220468Y0214568D01*
X0220373Y0214867D02*
X0214975Y0214867D01*
X0214818Y0215165D02*
X0220195Y0215165D01*
X0219983Y0215464D02*
X0214515Y0215464D01*
X0214187Y0215762D02*
X0219772Y0215762D01*
X0219483Y0216061D02*
X0213710Y0216061D01*
X0213416Y0217255D02*
X0217670Y0217255D01*
X0218267Y0216956D02*
X0212715Y0216956D01*
X0212178Y0216658D02*
X0218777Y0216658D01*
X0219130Y0216359D02*
X0211762Y0216359D01*
X0214386Y0217553D02*
X0216746Y0217553D01*
X0220627Y0208001D02*
X0223795Y0208001D01*
X0224410Y0207703D02*
X0221299Y0207703D01*
X0221717Y0207404D02*
X0224874Y0207404D01*
X0225223Y0207105D02*
X0222051Y0207105D01*
X0222272Y0206807D02*
X0225521Y0206807D01*
X0225773Y0206508D02*
X0222373Y0206508D01*
X0222392Y0206210D02*
X0225963Y0206210D01*
X0226121Y0205911D02*
X0222349Y0205911D01*
X0222245Y0205613D02*
X0226248Y0205613D01*
X0226333Y0205314D02*
X0222066Y0205314D01*
X0221814Y0205016D02*
X0226418Y0205016D01*
X0226479Y0204717D02*
X0221454Y0204717D01*
X0220901Y0204419D02*
X0226527Y0204419D01*
X0226605Y0195165D02*
X0219348Y0195165D01*
X0219951Y0194867D02*
X0226605Y0194867D01*
X0226605Y0194568D02*
X0220358Y0194568D01*
X0220692Y0194270D02*
X0226605Y0194270D01*
X0226605Y0193971D02*
X0221012Y0193971D01*
X0221293Y0193672D02*
X0226605Y0193672D01*
X0226605Y0193374D02*
X0221574Y0193374D01*
X0221845Y0193075D02*
X0226605Y0193075D01*
X0226605Y0192777D02*
X0222112Y0192777D01*
X0222379Y0192478D02*
X0226605Y0192478D01*
X0226605Y0192180D02*
X0222650Y0192180D01*
X0222920Y0191881D02*
X0226605Y0191881D01*
X0226605Y0191583D02*
X0223196Y0191583D01*
X0223479Y0191284D02*
X0226605Y0191284D01*
X0226605Y0190986D02*
X0223761Y0190986D01*
X0224029Y0190687D02*
X0226605Y0190687D01*
X0226605Y0190389D02*
X0224296Y0190389D01*
X0224561Y0190090D02*
X0226605Y0190090D01*
X0226605Y0189792D02*
X0224825Y0189792D01*
X0225084Y0189493D02*
X0226605Y0189493D01*
X0226605Y0189195D02*
X0225326Y0189195D01*
X0225572Y0188896D02*
X0226605Y0188896D01*
X0226605Y0188598D02*
X0225848Y0188598D01*
X0226109Y0188299D02*
X0226605Y0188299D01*
X0226605Y0188001D02*
X0226346Y0188001D01*
X0226572Y0187702D02*
X0226605Y0187702D01*
X0225699Y0184244D02*
X0220306Y0184244D01*
X0226605Y0178102D01*
X0219597Y0167551D01*
X0225148Y0167551D01*
X0229715Y0174992D01*
X0231487Y0173299D01*
X0231487Y0167551D01*
X0236093Y0167551D01*
X0236093Y0188102D01*
X0231487Y0190622D01*
X0231487Y0178220D01*
X0225699Y0184244D01*
X0225819Y0184120D02*
X0220433Y0184120D01*
X0220739Y0183822D02*
X0226105Y0183822D01*
X0226392Y0183523D02*
X0221045Y0183523D01*
X0221351Y0183225D02*
X0226679Y0183225D01*
X0226966Y0182926D02*
X0221658Y0182926D01*
X0221964Y0182628D02*
X0227253Y0182628D01*
X0227539Y0182329D02*
X0222270Y0182329D01*
X0222576Y0182031D02*
X0227826Y0182031D01*
X0228113Y0181732D02*
X0222882Y0181732D01*
X0223188Y0181434D02*
X0228400Y0181434D01*
X0228687Y0181135D02*
X0223495Y0181135D01*
X0223801Y0180837D02*
X0228973Y0180837D01*
X0229260Y0180538D02*
X0224107Y0180538D01*
X0224413Y0180239D02*
X0229547Y0180239D01*
X0229834Y0179941D02*
X0224719Y0179941D01*
X0225025Y0179642D02*
X0230121Y0179642D01*
X0230407Y0179344D02*
X0225332Y0179344D01*
X0225638Y0179045D02*
X0230694Y0179045D01*
X0230981Y0178747D02*
X0225944Y0178747D01*
X0226250Y0178448D02*
X0231268Y0178448D01*
X0231487Y0178448D02*
X0236093Y0178448D01*
X0236093Y0178150D02*
X0226556Y0178150D01*
X0226438Y0177851D02*
X0236093Y0177851D01*
X0236093Y0177553D02*
X0226240Y0177553D01*
X0226042Y0177254D02*
X0236093Y0177254D01*
X0236093Y0176956D02*
X0225844Y0176956D01*
X0225645Y0176657D02*
X0236093Y0176657D01*
X0236093Y0176359D02*
X0225447Y0176359D01*
X0225249Y0176060D02*
X0236093Y0176060D01*
X0236093Y0175762D02*
X0225050Y0175762D01*
X0224852Y0175463D02*
X0236093Y0175463D01*
X0236093Y0175165D02*
X0224654Y0175165D01*
X0224456Y0174866D02*
X0229638Y0174866D01*
X0229847Y0174866D02*
X0236093Y0174866D01*
X0236093Y0174568D02*
X0230159Y0174568D01*
X0230472Y0174269D02*
X0236093Y0174269D01*
X0236093Y0173971D02*
X0230784Y0173971D01*
X0231096Y0173672D02*
X0236093Y0173672D01*
X0236093Y0173374D02*
X0231409Y0173374D01*
X0231487Y0173075D02*
X0236093Y0173075D01*
X0236093Y0172777D02*
X0231487Y0172777D01*
X0231487Y0172478D02*
X0236093Y0172478D01*
X0236093Y0172180D02*
X0231487Y0172180D01*
X0231487Y0171881D02*
X0236093Y0171881D01*
X0236093Y0171583D02*
X0231487Y0171583D01*
X0231487Y0171284D02*
X0236093Y0171284D01*
X0236093Y0170986D02*
X0231487Y0170986D01*
X0231487Y0170687D02*
X0236093Y0170687D01*
X0236093Y0170389D02*
X0231487Y0170389D01*
X0231487Y0170090D02*
X0236093Y0170090D01*
X0236093Y0169792D02*
X0231487Y0169792D01*
X0231487Y0169493D02*
X0236093Y0169493D01*
X0236093Y0169195D02*
X0231487Y0169195D01*
X0231487Y0168896D02*
X0236093Y0168896D01*
X0236093Y0168598D02*
X0231487Y0168598D01*
X0231487Y0168299D02*
X0236093Y0168299D01*
X0236093Y0168001D02*
X0231487Y0168001D01*
X0231487Y0167702D02*
X0236093Y0167702D01*
X0244046Y0167702D02*
X0248652Y0167702D01*
X0248652Y0167551D02*
X0248652Y0181488D01*
X0248613Y0183457D01*
X0248062Y0183575D01*
X0247510Y0183654D01*
X0246959Y0183772D01*
X0246448Y0183850D01*
X0245896Y0183969D01*
X0245345Y0184047D01*
X0244794Y0184165D01*
X0244243Y0184244D01*
X0244243Y0181134D01*
X0243849Y0181882D01*
X0243337Y0182591D01*
X0242747Y0183181D01*
X0242077Y0183693D01*
X0241369Y0184126D01*
X0240581Y0184441D01*
X0239755Y0184638D01*
X0238888Y0184677D01*
X0238377Y0184677D01*
X0237904Y0184520D01*
X0237904Y0180268D01*
X0238062Y0180307D01*
X0238455Y0180386D01*
X0238652Y0180386D01*
X0238888Y0180425D01*
X0239558Y0180425D01*
X0240699Y0180307D01*
X0241684Y0179992D01*
X0242471Y0179520D01*
X0243062Y0178850D01*
X0243534Y0178063D01*
X0243849Y0177157D01*
X0244007Y0176134D01*
X0244046Y0175071D01*
X0244046Y0167551D01*
X0248652Y0167551D01*
X0248652Y0168001D02*
X0244046Y0168001D01*
X0244046Y0168299D02*
X0248652Y0168299D01*
X0248652Y0168598D02*
X0244046Y0168598D01*
X0244046Y0168896D02*
X0248652Y0168896D01*
X0248652Y0169195D02*
X0244046Y0169195D01*
X0244046Y0169493D02*
X0248652Y0169493D01*
X0248652Y0169792D02*
X0244046Y0169792D01*
X0244046Y0170090D02*
X0248652Y0170090D01*
X0248652Y0170389D02*
X0244046Y0170389D01*
X0244046Y0170687D02*
X0248652Y0170687D01*
X0248652Y0170986D02*
X0244046Y0170986D01*
X0244046Y0171284D02*
X0248652Y0171284D01*
X0248652Y0171583D02*
X0244046Y0171583D01*
X0244046Y0171881D02*
X0248652Y0171881D01*
X0248652Y0172180D02*
X0244046Y0172180D01*
X0244046Y0172478D02*
X0248652Y0172478D01*
X0248652Y0172777D02*
X0244046Y0172777D01*
X0244046Y0173075D02*
X0248652Y0173075D01*
X0248652Y0173374D02*
X0244046Y0173374D01*
X0244046Y0173672D02*
X0248652Y0173672D01*
X0248652Y0173971D02*
X0244046Y0173971D01*
X0244046Y0174269D02*
X0248652Y0174269D01*
X0248652Y0174568D02*
X0244046Y0174568D01*
X0244046Y0174866D02*
X0248652Y0174866D01*
X0248652Y0175165D02*
X0244042Y0175165D01*
X0244031Y0175463D02*
X0248652Y0175463D01*
X0248652Y0175762D02*
X0244020Y0175762D01*
X0244009Y0176060D02*
X0248652Y0176060D01*
X0248652Y0176359D02*
X0243972Y0176359D01*
X0243926Y0176657D02*
X0248652Y0176657D01*
X0248652Y0176956D02*
X0243880Y0176956D01*
X0243815Y0177254D02*
X0248652Y0177254D01*
X0248652Y0177553D02*
X0243712Y0177553D01*
X0243608Y0177851D02*
X0248652Y0177851D01*
X0248652Y0178150D02*
X0243482Y0178150D01*
X0243303Y0178448D02*
X0248652Y0178448D01*
X0248652Y0178747D02*
X0243124Y0178747D01*
X0242890Y0179045D02*
X0248652Y0179045D01*
X0248652Y0179344D02*
X0242626Y0179344D01*
X0242266Y0179642D02*
X0248652Y0179642D01*
X0248652Y0179941D02*
X0241769Y0179941D01*
X0240911Y0180239D02*
X0248652Y0180239D01*
X0248652Y0180538D02*
X0237904Y0180538D01*
X0237904Y0180837D02*
X0248652Y0180837D01*
X0248652Y0181135D02*
X0244243Y0181135D01*
X0244242Y0181135D02*
X0237904Y0181135D01*
X0237904Y0181434D02*
X0244085Y0181434D01*
X0244243Y0181434D02*
X0248652Y0181434D01*
X0248647Y0181732D02*
X0244243Y0181732D01*
X0244243Y0182031D02*
X0248641Y0182031D01*
X0248635Y0182329D02*
X0244243Y0182329D01*
X0244243Y0182628D02*
X0248629Y0182628D01*
X0248623Y0182926D02*
X0244243Y0182926D01*
X0244243Y0183225D02*
X0248618Y0183225D01*
X0248303Y0183523D02*
X0244243Y0183523D01*
X0244243Y0183822D02*
X0246635Y0183822D01*
X0245005Y0184120D02*
X0244243Y0184120D01*
X0243002Y0182926D02*
X0237904Y0182926D01*
X0237904Y0182628D02*
X0243300Y0182628D01*
X0243526Y0182329D02*
X0237904Y0182329D01*
X0237904Y0182031D02*
X0243742Y0182031D01*
X0243928Y0181732D02*
X0237904Y0181732D01*
X0237904Y0183225D02*
X0242690Y0183225D01*
X0242299Y0183523D02*
X0237904Y0183523D01*
X0237904Y0183822D02*
X0241867Y0183822D01*
X0241378Y0184120D02*
X0237904Y0184120D01*
X0237904Y0184419D02*
X0240637Y0184419D01*
X0236093Y0184419D02*
X0231487Y0184419D01*
X0231487Y0184717D02*
X0236093Y0184717D01*
X0236093Y0185016D02*
X0231487Y0185016D01*
X0231487Y0185314D02*
X0236093Y0185314D01*
X0236093Y0185613D02*
X0231487Y0185613D01*
X0231487Y0185911D02*
X0236093Y0185911D01*
X0236093Y0186210D02*
X0231487Y0186210D01*
X0231487Y0186508D02*
X0236093Y0186508D01*
X0236093Y0186807D02*
X0231487Y0186807D01*
X0231487Y0187105D02*
X0236093Y0187105D01*
X0236093Y0187404D02*
X0231487Y0187404D01*
X0231487Y0187702D02*
X0236093Y0187702D01*
X0236093Y0188001D02*
X0231487Y0188001D01*
X0231487Y0188299D02*
X0235733Y0188299D01*
X0235187Y0188598D02*
X0231487Y0188598D01*
X0231487Y0188896D02*
X0234642Y0188896D01*
X0234096Y0189195D02*
X0231487Y0189195D01*
X0231487Y0189493D02*
X0233550Y0189493D01*
X0233005Y0189792D02*
X0231487Y0189792D01*
X0231487Y0190090D02*
X0232459Y0190090D01*
X0231913Y0190389D02*
X0231487Y0190389D01*
X0231487Y0184120D02*
X0236093Y0184120D01*
X0236093Y0183822D02*
X0231487Y0183822D01*
X0231487Y0183523D02*
X0236093Y0183523D01*
X0236093Y0183225D02*
X0231487Y0183225D01*
X0231487Y0182926D02*
X0236093Y0182926D01*
X0236093Y0182628D02*
X0231487Y0182628D01*
X0231487Y0182329D02*
X0236093Y0182329D01*
X0236093Y0182031D02*
X0231487Y0182031D01*
X0231487Y0181732D02*
X0236093Y0181732D01*
X0236093Y0181434D02*
X0231487Y0181434D01*
X0231487Y0181135D02*
X0236093Y0181135D01*
X0236093Y0180837D02*
X0231487Y0180837D01*
X0231487Y0180538D02*
X0236093Y0180538D01*
X0236093Y0180239D02*
X0231487Y0180239D01*
X0231487Y0179941D02*
X0236093Y0179941D01*
X0236093Y0179642D02*
X0231487Y0179642D01*
X0231487Y0179344D02*
X0236093Y0179344D01*
X0236093Y0179045D02*
X0231487Y0179045D01*
X0231487Y0178747D02*
X0236093Y0178747D01*
X0229455Y0174568D02*
X0224257Y0174568D01*
X0224059Y0174269D02*
X0229272Y0174269D01*
X0229088Y0173971D02*
X0223861Y0173971D01*
X0223663Y0173672D02*
X0228905Y0173672D01*
X0228722Y0173374D02*
X0223464Y0173374D01*
X0223266Y0173075D02*
X0228539Y0173075D01*
X0228355Y0172777D02*
X0223068Y0172777D01*
X0222870Y0172478D02*
X0228172Y0172478D01*
X0227989Y0172180D02*
X0222671Y0172180D01*
X0222473Y0171881D02*
X0227806Y0171881D01*
X0227623Y0171583D02*
X0222275Y0171583D01*
X0222076Y0171284D02*
X0227439Y0171284D01*
X0227256Y0170986D02*
X0221878Y0170986D01*
X0221680Y0170687D02*
X0227073Y0170687D01*
X0226890Y0170389D02*
X0221482Y0170389D01*
X0221283Y0170090D02*
X0226707Y0170090D01*
X0226523Y0169792D02*
X0221085Y0169792D01*
X0220887Y0169493D02*
X0226340Y0169493D01*
X0226157Y0169195D02*
X0220689Y0169195D01*
X0220490Y0168896D02*
X0225974Y0168896D01*
X0225790Y0168598D02*
X0220292Y0168598D01*
X0220094Y0168299D02*
X0225607Y0168299D01*
X0225424Y0168001D02*
X0219896Y0168001D01*
X0219697Y0167702D02*
X0225241Y0167702D01*
X0250621Y0167512D02*
X0255266Y0167512D01*
X0255306Y0167591D01*
X0255345Y0167709D01*
X0255385Y0167787D01*
X0255463Y0168024D01*
X0255463Y0168102D01*
X0255503Y0168220D01*
X0255503Y0168299D01*
X0250920Y0168299D01*
X0250896Y0168181D02*
X0250818Y0167984D01*
X0250778Y0167787D01*
X0250699Y0167630D01*
X0250621Y0167512D01*
X0250736Y0167702D02*
X0255343Y0167702D01*
X0255456Y0168001D02*
X0250824Y0168001D01*
X0250896Y0168181D02*
X0250975Y0168575D01*
X0251093Y0169283D01*
X0251172Y0169835D01*
X0251172Y0170661D01*
X0251211Y0170937D01*
X0251211Y0179913D01*
X0251251Y0180622D01*
X0251369Y0181252D01*
X0251605Y0181843D01*
X0251881Y0182354D01*
X0252235Y0182787D01*
X0252629Y0183181D01*
X0253101Y0183496D01*
X0253613Y0183772D01*
X0254164Y0184008D01*
X0254755Y0184205D01*
X0255345Y0184362D01*
X0255975Y0184480D01*
X0256605Y0184559D01*
X0257274Y0184638D01*
X0257904Y0184677D01*
X0258534Y0184677D01*
X0259951Y0184598D01*
X0260621Y0184520D01*
X0261290Y0184402D01*
X0261959Y0184244D01*
X0262589Y0184008D01*
X0263180Y0183772D01*
X0263770Y0183457D01*
X0264282Y0183142D01*
X0264755Y0182709D01*
X0265188Y0182276D01*
X0265581Y0181764D01*
X0265896Y0181173D01*
X0266133Y0180543D01*
X0266290Y0179835D01*
X0266369Y0179087D01*
X0261802Y0179087D01*
X0261762Y0179402D01*
X0261684Y0179717D01*
X0261605Y0179992D01*
X0261526Y0180228D01*
X0261369Y0180465D01*
X0261251Y0180661D01*
X0261093Y0180858D01*
X0260699Y0181173D01*
X0260463Y0181291D01*
X0260227Y0181370D01*
X0259676Y0181528D01*
X0259400Y0181567D01*
X0259085Y0181606D01*
X0258180Y0181606D01*
X0257353Y0181488D01*
X0256881Y0181331D01*
X0256487Y0181094D01*
X0256290Y0180937D01*
X0256172Y0180740D01*
X0256014Y0180543D01*
X0255857Y0179992D01*
X0255818Y0179717D01*
X0255818Y0179362D01*
X0255896Y0178732D01*
X0256211Y0178260D01*
X0256762Y0177945D01*
X0257432Y0177709D01*
X0258259Y0177512D01*
X0257707Y0175031D01*
X0257471Y0175071D01*
X0257196Y0175110D01*
X0256959Y0175189D01*
X0256723Y0175228D01*
X0256329Y0175386D01*
X0256133Y0175504D01*
X0255936Y0175583D01*
X0255818Y0175701D01*
X0255818Y0173260D01*
X0255857Y0172984D01*
X0255936Y0172669D01*
X0256014Y0172315D01*
X0256133Y0172000D01*
X0256329Y0171685D01*
X0256526Y0171409D01*
X0256762Y0171094D01*
X0257077Y0170858D01*
X0257432Y0170622D01*
X0257825Y0170425D01*
X0258337Y0170268D01*
X0258888Y0170189D01*
X0259518Y0170150D01*
X0260070Y0170150D01*
X0260306Y0170189D01*
X0260581Y0170268D01*
X0260818Y0170307D01*
X0261290Y0170465D01*
X0261487Y0170583D01*
X0261644Y0170701D01*
X0261841Y0170858D01*
X0262196Y0171449D01*
X0262274Y0171724D01*
X0262314Y0172000D01*
X0262314Y0172591D01*
X0262274Y0172866D01*
X0262117Y0173339D01*
X0261999Y0173535D01*
X0261841Y0173732D01*
X0261684Y0173890D01*
X0261487Y0174047D01*
X0261093Y0174283D01*
X0260857Y0174402D01*
X0260385Y0174559D01*
X0261251Y0177118D01*
X0262314Y0176961D01*
X0263298Y0176685D01*
X0264243Y0176331D01*
X0265109Y0175858D01*
X0265818Y0175228D01*
X0266408Y0174402D01*
X0266762Y0173339D01*
X0266881Y0172039D01*
X0266881Y0171449D01*
X0266762Y0170858D01*
X0266644Y0170307D01*
X0266448Y0169835D01*
X0266211Y0169362D01*
X0265936Y0168969D01*
X0265621Y0168614D01*
X0265266Y0168260D01*
X0264833Y0167984D01*
X0264400Y0167748D01*
X0263928Y0167512D01*
X0263455Y0167354D01*
X0262904Y0167197D01*
X0262392Y0167118D01*
X0261211Y0167039D01*
X0260818Y0167039D01*
X0260030Y0167118D01*
X0259676Y0167157D01*
X0258888Y0167315D01*
X0258534Y0167394D01*
X0258180Y0167512D01*
X0257825Y0167669D01*
X0257471Y0167787D01*
X0257117Y0167984D01*
X0256487Y0168378D01*
X0255857Y0168850D01*
X0255581Y0169126D01*
X0255581Y0168732D01*
X0255542Y0168614D01*
X0255542Y0168417D01*
X0255503Y0168299D01*
X0255542Y0168598D02*
X0250979Y0168598D01*
X0251029Y0168896D02*
X0255581Y0168896D01*
X0255811Y0168896D02*
X0265871Y0168896D01*
X0266094Y0169195D02*
X0251078Y0169195D01*
X0251123Y0169493D02*
X0266277Y0169493D01*
X0266426Y0169792D02*
X0251166Y0169792D01*
X0251172Y0170090D02*
X0266554Y0170090D01*
X0266662Y0170389D02*
X0261062Y0170389D01*
X0261626Y0170687D02*
X0266726Y0170687D01*
X0266788Y0170986D02*
X0261918Y0170986D01*
X0262097Y0171284D02*
X0266848Y0171284D01*
X0266881Y0171583D02*
X0262234Y0171583D01*
X0262297Y0171881D02*
X0266881Y0171881D01*
X0266868Y0172180D02*
X0262314Y0172180D01*
X0262314Y0172478D02*
X0266841Y0172478D01*
X0266814Y0172777D02*
X0262287Y0172777D01*
X0262205Y0173075D02*
X0266786Y0173075D01*
X0266751Y0173374D02*
X0262096Y0173374D01*
X0261889Y0173672D02*
X0266651Y0173672D01*
X0266552Y0173971D02*
X0261582Y0173971D01*
X0261117Y0174269D02*
X0266452Y0174269D01*
X0266289Y0174568D02*
X0260387Y0174568D01*
X0260358Y0174568D01*
X0260385Y0174559D02*
X0261251Y0177118D01*
X0260227Y0177276D01*
X0259203Y0177394D01*
X0258259Y0177512D01*
X0257707Y0175031D01*
X0259361Y0174795D01*
X0259597Y0174756D01*
X0259873Y0174677D01*
X0260148Y0174638D01*
X0260385Y0174559D01*
X0260488Y0174866D02*
X0266076Y0174866D01*
X0265863Y0175165D02*
X0260590Y0175165D01*
X0257737Y0175165D01*
X0257032Y0175165D01*
X0257803Y0175463D02*
X0256200Y0175463D01*
X0255818Y0175463D02*
X0251211Y0175463D01*
X0251211Y0175165D02*
X0255818Y0175165D01*
X0255818Y0174866D02*
X0251211Y0174866D01*
X0251211Y0174568D02*
X0255818Y0174568D01*
X0255818Y0174269D02*
X0251211Y0174269D01*
X0251211Y0173971D02*
X0255818Y0173971D01*
X0255818Y0173672D02*
X0251211Y0173672D01*
X0251211Y0173374D02*
X0255818Y0173374D01*
X0255844Y0173075D02*
X0251211Y0173075D01*
X0251211Y0172777D02*
X0255909Y0172777D01*
X0255978Y0172478D02*
X0251211Y0172478D01*
X0251211Y0172180D02*
X0256065Y0172180D01*
X0256207Y0171881D02*
X0251211Y0171881D01*
X0251211Y0171583D02*
X0256403Y0171583D01*
X0256620Y0171284D02*
X0251211Y0171284D01*
X0251211Y0170986D02*
X0256908Y0170986D01*
X0257334Y0170687D02*
X0251176Y0170687D01*
X0251172Y0170389D02*
X0257944Y0170389D01*
X0256613Y0168299D02*
X0265306Y0168299D01*
X0265604Y0168598D02*
X0256194Y0168598D01*
X0257091Y0168001D02*
X0264859Y0168001D01*
X0264308Y0167702D02*
X0257727Y0167702D01*
X0258505Y0167403D02*
X0263603Y0167403D01*
X0262195Y0167105D02*
X0260161Y0167105D01*
X0269243Y0171016D02*
X0268692Y0172512D01*
X0268337Y0174087D01*
X0268219Y0175740D01*
X0272825Y0175858D01*
X0272865Y0176843D01*
X0273022Y0177827D01*
X0273298Y0178732D01*
X0273731Y0179559D01*
X0274243Y0180228D01*
X0274951Y0180780D01*
X0275818Y0181134D01*
X0276802Y0181252D01*
X0277865Y0181134D01*
X0278692Y0180780D01*
X0279400Y0180268D01*
X0279951Y0179559D01*
X0280345Y0178732D01*
X0280581Y0177827D01*
X0280739Y0176843D01*
X0280778Y0175858D01*
X0280739Y0174835D01*
X0280581Y0173890D01*
X0280306Y0172984D01*
X0279912Y0172197D01*
X0279361Y0171528D01*
X0278652Y0171016D01*
X0277825Y0170661D01*
X0276802Y0170543D01*
X0275739Y0170661D01*
X0274912Y0171016D01*
X0274203Y0171528D01*
X0273692Y0172197D01*
X0273298Y0172984D01*
X0269243Y0171016D01*
X0270070Y0169756D01*
X0271093Y0168654D01*
X0272353Y0167827D01*
X0273849Y0167276D01*
X0275542Y0167079D01*
X0276329Y0167157D01*
X0277038Y0167276D01*
X0277747Y0167472D01*
X0278416Y0167748D01*
X0279007Y0168102D01*
X0279597Y0168535D01*
X0280109Y0169047D01*
X0280581Y0169598D01*
X0280581Y0157591D01*
X0281172Y0158102D01*
X0281723Y0158614D01*
X0282904Y0159638D01*
X0283455Y0160150D01*
X0284046Y0160661D01*
X0284597Y0161173D01*
X0285188Y0161685D01*
X0285188Y0183457D01*
X0284636Y0183575D01*
X0284085Y0183654D01*
X0283534Y0183772D01*
X0282983Y0183850D01*
X0282471Y0183969D01*
X0281920Y0184047D01*
X0281369Y0184165D01*
X0280818Y0184244D01*
X0280818Y0182118D01*
X0280778Y0182118D01*
X0280345Y0182748D01*
X0279833Y0183299D01*
X0279282Y0183732D01*
X0278652Y0184087D01*
X0277983Y0184362D01*
X0277314Y0184559D01*
X0276566Y0184677D01*
X0275818Y0184717D01*
X0273967Y0184520D01*
X0272432Y0183969D01*
X0271133Y0183102D01*
X0270070Y0182000D01*
X0269243Y0180661D01*
X0268692Y0179126D01*
X0268337Y0177472D01*
X0268219Y0175740D01*
X0272825Y0175858D01*
X0272865Y0174835D01*
X0273022Y0173890D01*
X0273298Y0172984D01*
X0269243Y0171016D01*
X0269263Y0170986D02*
X0274982Y0170986D01*
X0274540Y0171284D02*
X0269796Y0171284D01*
X0269144Y0171284D01*
X0269034Y0171583D02*
X0270411Y0171583D01*
X0274161Y0171583D01*
X0273933Y0171881D02*
X0271026Y0171881D01*
X0268924Y0171881D01*
X0268814Y0172180D02*
X0271640Y0172180D01*
X0273705Y0172180D01*
X0273551Y0172478D02*
X0272255Y0172478D01*
X0268704Y0172478D01*
X0268632Y0172777D02*
X0272870Y0172777D01*
X0273402Y0172777D01*
X0273270Y0173075D02*
X0268565Y0173075D01*
X0268498Y0173374D02*
X0273179Y0173374D01*
X0273089Y0173672D02*
X0268430Y0173672D01*
X0268363Y0173971D02*
X0273009Y0173971D01*
X0272959Y0174269D02*
X0268324Y0174269D01*
X0268303Y0174568D02*
X0272909Y0174568D01*
X0272864Y0174866D02*
X0268282Y0174866D01*
X0268260Y0175165D02*
X0272852Y0175165D01*
X0272841Y0175463D02*
X0268239Y0175463D01*
X0268221Y0175762D02*
X0269064Y0175762D01*
X0272829Y0175762D01*
X0272834Y0176060D02*
X0268241Y0176060D01*
X0268261Y0176359D02*
X0272845Y0176359D01*
X0272857Y0176657D02*
X0268282Y0176657D01*
X0268302Y0176956D02*
X0272883Y0176956D01*
X0272931Y0177254D02*
X0268322Y0177254D01*
X0268355Y0177553D02*
X0272978Y0177553D01*
X0273030Y0177851D02*
X0268418Y0177851D01*
X0268482Y0178150D02*
X0273121Y0178150D01*
X0273211Y0178448D02*
X0268546Y0178448D01*
X0268610Y0178747D02*
X0273306Y0178747D01*
X0273462Y0179045D02*
X0268674Y0179045D01*
X0268770Y0179344D02*
X0273618Y0179344D01*
X0273795Y0179642D02*
X0268877Y0179642D01*
X0268984Y0179941D02*
X0274023Y0179941D01*
X0274257Y0180239D02*
X0269091Y0180239D01*
X0269198Y0180538D02*
X0274641Y0180538D01*
X0275091Y0180837D02*
X0269351Y0180837D01*
X0269535Y0181135D02*
X0275827Y0181135D01*
X0277854Y0181135D02*
X0285188Y0181135D01*
X0285188Y0180837D02*
X0278559Y0180837D01*
X0279026Y0180538D02*
X0285188Y0180538D01*
X0285188Y0180239D02*
X0279422Y0180239D01*
X0279654Y0179941D02*
X0285188Y0179941D01*
X0285188Y0179642D02*
X0279887Y0179642D01*
X0280054Y0179344D02*
X0285188Y0179344D01*
X0285188Y0179045D02*
X0280196Y0179045D01*
X0280338Y0178747D02*
X0285188Y0178747D01*
X0285188Y0178448D02*
X0280419Y0178448D01*
X0280497Y0178150D02*
X0285188Y0178150D01*
X0285188Y0177851D02*
X0280575Y0177851D01*
X0280625Y0177553D02*
X0285188Y0177553D01*
X0285188Y0177254D02*
X0280673Y0177254D01*
X0280721Y0176956D02*
X0285188Y0176956D01*
X0285188Y0176657D02*
X0280746Y0176657D01*
X0280758Y0176359D02*
X0285188Y0176359D01*
X0285188Y0176060D02*
X0280770Y0176060D01*
X0280775Y0175762D02*
X0285188Y0175762D01*
X0285188Y0175463D02*
X0280763Y0175463D01*
X0280752Y0175165D02*
X0285188Y0175165D01*
X0285188Y0174866D02*
X0280740Y0174866D01*
X0280694Y0174568D02*
X0285188Y0174568D01*
X0285188Y0174269D02*
X0280645Y0174269D01*
X0280595Y0173971D02*
X0285188Y0173971D01*
X0285188Y0173672D02*
X0280515Y0173672D01*
X0280424Y0173374D02*
X0285188Y0173374D01*
X0285188Y0173075D02*
X0280333Y0173075D01*
X0280202Y0172777D02*
X0285188Y0172777D01*
X0285188Y0172478D02*
X0280053Y0172478D01*
X0279898Y0172180D02*
X0285188Y0172180D01*
X0285188Y0171881D02*
X0279652Y0171881D01*
X0279406Y0171583D02*
X0285188Y0171583D01*
X0285188Y0171284D02*
X0279024Y0171284D01*
X0278582Y0170986D02*
X0285188Y0170986D01*
X0285188Y0170687D02*
X0277885Y0170687D01*
X0275679Y0170687D02*
X0269458Y0170687D01*
X0269654Y0170389D02*
X0285188Y0170389D01*
X0285188Y0170090D02*
X0269850Y0170090D01*
X0270046Y0169792D02*
X0285188Y0169792D01*
X0285188Y0169493D02*
X0280581Y0169493D01*
X0280491Y0169493D02*
X0270314Y0169493D01*
X0270591Y0169195D02*
X0280235Y0169195D01*
X0280581Y0169195D02*
X0285188Y0169195D01*
X0285188Y0168896D02*
X0280581Y0168896D01*
X0280581Y0168598D02*
X0285188Y0168598D01*
X0285188Y0168299D02*
X0280581Y0168299D01*
X0280581Y0168001D02*
X0285188Y0168001D01*
X0285188Y0167702D02*
X0280581Y0167702D01*
X0280581Y0167403D02*
X0285188Y0167403D01*
X0285188Y0167105D02*
X0280581Y0167105D01*
X0280581Y0166806D02*
X0285188Y0166806D01*
X0285188Y0166508D02*
X0280581Y0166508D01*
X0280581Y0166209D02*
X0285188Y0166209D01*
X0285188Y0165911D02*
X0280581Y0165911D01*
X0280581Y0165612D02*
X0285188Y0165612D01*
X0285188Y0165314D02*
X0280581Y0165314D01*
X0280581Y0165015D02*
X0285188Y0165015D01*
X0285188Y0164717D02*
X0280581Y0164717D01*
X0280581Y0164418D02*
X0285188Y0164418D01*
X0285188Y0164120D02*
X0280581Y0164120D01*
X0280581Y0163821D02*
X0285188Y0163821D01*
X0285188Y0163523D02*
X0280581Y0163523D01*
X0280581Y0163224D02*
X0285188Y0163224D01*
X0285188Y0162926D02*
X0280581Y0162926D01*
X0280581Y0162627D02*
X0285188Y0162627D01*
X0285188Y0162329D02*
X0280581Y0162329D01*
X0280581Y0162030D02*
X0285188Y0162030D01*
X0285188Y0161732D02*
X0280581Y0161732D01*
X0280581Y0161433D02*
X0284897Y0161433D01*
X0284556Y0161135D02*
X0280581Y0161135D01*
X0280581Y0160836D02*
X0284234Y0160836D01*
X0283903Y0160538D02*
X0280581Y0160538D01*
X0280581Y0160239D02*
X0283559Y0160239D01*
X0283230Y0159941D02*
X0280581Y0159941D01*
X0280581Y0159642D02*
X0282909Y0159642D01*
X0282565Y0159344D02*
X0280581Y0159344D01*
X0280581Y0159045D02*
X0282220Y0159045D01*
X0281876Y0158747D02*
X0280581Y0158747D01*
X0280581Y0158448D02*
X0281544Y0158448D01*
X0281223Y0158150D02*
X0280581Y0158150D01*
X0280581Y0157851D02*
X0280882Y0157851D01*
X0277498Y0167403D02*
X0273502Y0167403D01*
X0272692Y0167702D02*
X0278304Y0167702D01*
X0278837Y0168001D02*
X0272088Y0168001D01*
X0271633Y0168299D02*
X0279275Y0168299D01*
X0279659Y0168598D02*
X0271179Y0168598D01*
X0270868Y0168896D02*
X0279958Y0168896D01*
X0275804Y0167105D02*
X0275316Y0167105D01*
X0287235Y0171409D02*
X0287038Y0172906D01*
X0287156Y0173969D01*
X0287510Y0174874D01*
X0288022Y0175583D01*
X0288692Y0176173D01*
X0289479Y0176646D01*
X0290385Y0177039D01*
X0291369Y0177354D01*
X0292353Y0177591D01*
X0293298Y0177827D01*
X0294243Y0178024D01*
X0295148Y0178220D01*
X0295936Y0178457D01*
X0296605Y0178732D01*
X0297117Y0179087D01*
X0297432Y0179520D01*
X0297550Y0180071D01*
X0297471Y0180543D01*
X0297314Y0180898D01*
X0296999Y0181173D01*
X0296644Y0181370D01*
X0296251Y0181528D01*
X0295818Y0181567D01*
X0295385Y0181646D01*
X0294991Y0181646D01*
X0294400Y0181606D01*
X0293849Y0181528D01*
X0293298Y0181370D01*
X0292865Y0181173D01*
X0292471Y0180858D01*
X0292196Y0180465D01*
X0291959Y0179992D01*
X0291881Y0179362D01*
X0287510Y0179362D01*
X0287786Y0180780D01*
X0288298Y0181921D01*
X0289046Y0182866D01*
X0289951Y0183575D01*
X0291054Y0184087D01*
X0292235Y0184441D01*
X0293534Y0184638D01*
X0294873Y0184717D01*
X0296211Y0184638D01*
X0297510Y0184480D01*
X0298731Y0184126D01*
X0299833Y0183614D01*
X0300778Y0182906D01*
X0301487Y0181961D01*
X0301959Y0180780D01*
X0302117Y0179323D01*
X0301999Y0178299D01*
X0301684Y0177472D01*
X0301172Y0176803D01*
X0300503Y0176213D01*
X0299676Y0175780D01*
X0298810Y0175425D01*
X0297825Y0175110D01*
X0296841Y0174874D01*
X0295660Y0174638D01*
X0294636Y0174402D01*
X0293770Y0174126D01*
X0293022Y0173850D01*
X0292432Y0173535D01*
X0291999Y0173181D01*
X0291723Y0172787D01*
X0291644Y0172276D01*
X0291723Y0171724D01*
X0291920Y0171291D01*
X0292235Y0170898D01*
X0292668Y0170622D01*
X0293140Y0170425D01*
X0293613Y0170268D01*
X0294125Y0170189D01*
X0294636Y0170150D01*
X0295306Y0170189D01*
X0295936Y0170346D01*
X0296526Y0170543D01*
X0297077Y0170819D01*
X0297510Y0171213D01*
X0297865Y0171724D01*
X0298101Y0172276D01*
X0298180Y0172984D01*
X0302510Y0172984D01*
X0302314Y0171449D01*
X0301762Y0170189D01*
X0300975Y0169165D01*
X0299991Y0168378D01*
X0298810Y0167787D01*
X0297510Y0167394D01*
X0296133Y0167157D01*
X0294676Y0167079D01*
X0293259Y0167157D01*
X0291881Y0167394D01*
X0290621Y0167787D01*
X0289440Y0168339D01*
X0288455Y0169126D01*
X0287707Y0170150D01*
X0287235Y0171409D01*
X0287282Y0171284D02*
X0291926Y0171284D01*
X0291788Y0171583D02*
X0287212Y0171583D01*
X0287173Y0171881D02*
X0291701Y0171881D01*
X0291658Y0172180D02*
X0287134Y0172180D01*
X0287094Y0172478D02*
X0291676Y0172478D01*
X0291721Y0172777D02*
X0287055Y0172777D01*
X0287057Y0173075D02*
X0291925Y0173075D01*
X0292234Y0173374D02*
X0287090Y0173374D01*
X0287123Y0173672D02*
X0292688Y0173672D01*
X0293349Y0173971D02*
X0287157Y0173971D01*
X0287274Y0174269D02*
X0294221Y0174269D01*
X0295357Y0174568D02*
X0287391Y0174568D01*
X0287507Y0174866D02*
X0296803Y0174866D01*
X0297996Y0175165D02*
X0287720Y0175165D01*
X0287936Y0175463D02*
X0298903Y0175463D01*
X0299633Y0175762D02*
X0288225Y0175762D01*
X0288564Y0176060D02*
X0300212Y0176060D01*
X0300668Y0176359D02*
X0289001Y0176359D01*
X0289506Y0176657D02*
X0301007Y0176657D01*
X0301289Y0176956D02*
X0290192Y0176956D01*
X0291056Y0177254D02*
X0301517Y0177254D01*
X0301714Y0177553D02*
X0292196Y0177553D01*
X0293416Y0177851D02*
X0301828Y0177851D01*
X0301942Y0178150D02*
X0294824Y0178150D01*
X0295908Y0178448D02*
X0302016Y0178448D01*
X0302050Y0178747D02*
X0296626Y0178747D01*
X0297057Y0179045D02*
X0302085Y0179045D01*
X0302115Y0179344D02*
X0297304Y0179344D01*
X0297458Y0179642D02*
X0302082Y0179642D01*
X0302050Y0179941D02*
X0297522Y0179941D01*
X0297522Y0180239D02*
X0302018Y0180239D01*
X0301985Y0180538D02*
X0297472Y0180538D01*
X0297341Y0180837D02*
X0301937Y0180837D01*
X0301817Y0181135D02*
X0297042Y0181135D01*
X0296486Y0181434D02*
X0301698Y0181434D01*
X0301578Y0181732D02*
X0288213Y0181732D01*
X0288079Y0181434D02*
X0293520Y0181434D01*
X0292817Y0181135D02*
X0287945Y0181135D01*
X0287812Y0180837D02*
X0292456Y0180837D01*
X0292247Y0180538D02*
X0287739Y0180538D01*
X0287681Y0180239D02*
X0292083Y0180239D01*
X0291953Y0179941D02*
X0287623Y0179941D01*
X0287565Y0179642D02*
X0291916Y0179642D01*
X0288621Y0182329D02*
X0301211Y0182329D01*
X0301434Y0182031D02*
X0288384Y0182031D01*
X0288857Y0182628D02*
X0300987Y0182628D01*
X0300751Y0182926D02*
X0289123Y0182926D01*
X0289504Y0183225D02*
X0300353Y0183225D01*
X0299955Y0183523D02*
X0289885Y0183523D01*
X0290483Y0183822D02*
X0299387Y0183822D01*
X0298744Y0184120D02*
X0291166Y0184120D01*
X0292161Y0184419D02*
X0297723Y0184419D01*
X0285188Y0183225D02*
X0280818Y0183225D01*
X0280818Y0183523D02*
X0284878Y0183523D01*
X0285188Y0182926D02*
X0280818Y0182926D01*
X0280818Y0182628D02*
X0285188Y0182628D01*
X0285188Y0182329D02*
X0280818Y0182329D01*
X0280633Y0182329D02*
X0270387Y0182329D01*
X0270675Y0182628D02*
X0280428Y0182628D01*
X0280180Y0182926D02*
X0270963Y0182926D01*
X0271316Y0183225D02*
X0279903Y0183225D01*
X0279548Y0183523D02*
X0271764Y0183523D01*
X0272211Y0183822D02*
X0279123Y0183822D01*
X0278571Y0184120D02*
X0272854Y0184120D01*
X0273686Y0184419D02*
X0277791Y0184419D01*
X0280818Y0184120D02*
X0281580Y0184120D01*
X0280818Y0183822D02*
X0283184Y0183822D01*
X0285188Y0182031D02*
X0270099Y0182031D01*
X0269904Y0181732D02*
X0285188Y0181732D01*
X0285188Y0181434D02*
X0269720Y0181434D01*
X0266134Y0180538D02*
X0261325Y0180538D01*
X0261519Y0180239D02*
X0266200Y0180239D01*
X0266266Y0179941D02*
X0261620Y0179941D01*
X0261702Y0179642D02*
X0266310Y0179642D01*
X0266342Y0179344D02*
X0261770Y0179344D01*
X0261111Y0180837D02*
X0266023Y0180837D01*
X0265911Y0181135D02*
X0260747Y0181135D01*
X0260005Y0181434D02*
X0265758Y0181434D01*
X0265598Y0181732D02*
X0251561Y0181732D01*
X0251441Y0181434D02*
X0257189Y0181434D01*
X0256554Y0181135D02*
X0251347Y0181135D01*
X0251291Y0180837D02*
X0256230Y0180837D01*
X0256013Y0180538D02*
X0251246Y0180538D01*
X0251229Y0180239D02*
X0255928Y0180239D01*
X0255850Y0179941D02*
X0251213Y0179941D01*
X0251211Y0179642D02*
X0255818Y0179642D01*
X0255820Y0179344D02*
X0251211Y0179344D01*
X0251211Y0179045D02*
X0255857Y0179045D01*
X0255895Y0178747D02*
X0251211Y0178747D01*
X0251211Y0178448D02*
X0256086Y0178448D01*
X0256404Y0178150D02*
X0251211Y0178150D01*
X0251211Y0177851D02*
X0257027Y0177851D01*
X0258086Y0177553D02*
X0251211Y0177553D01*
X0251211Y0177254D02*
X0258201Y0177254D01*
X0260365Y0177254D01*
X0261196Y0176956D02*
X0258135Y0176956D01*
X0251211Y0176956D01*
X0251211Y0176657D02*
X0258069Y0176657D01*
X0261095Y0176657D01*
X0263372Y0176657D01*
X0264168Y0176359D02*
X0260994Y0176359D01*
X0258002Y0176359D01*
X0251211Y0176359D01*
X0251211Y0176060D02*
X0257936Y0176060D01*
X0260893Y0176060D01*
X0264738Y0176060D01*
X0265217Y0175762D02*
X0260792Y0175762D01*
X0257870Y0175762D01*
X0251211Y0175762D01*
X0257803Y0175463D02*
X0260691Y0175463D01*
X0265553Y0175463D01*
X0262331Y0176956D02*
X0261196Y0176956D01*
X0260488Y0174866D02*
X0258864Y0174866D01*
X0265376Y0182031D02*
X0251706Y0182031D01*
X0251867Y0182329D02*
X0265134Y0182329D01*
X0264836Y0182628D02*
X0252104Y0182628D01*
X0252374Y0182926D02*
X0264517Y0182926D01*
X0264148Y0183225D02*
X0252694Y0183225D01*
X0253151Y0183523D02*
X0263646Y0183523D01*
X0263055Y0183822D02*
X0253729Y0183822D01*
X0254501Y0184120D02*
X0262290Y0184120D01*
X0261193Y0184419D02*
X0255646Y0184419D01*
X0287394Y0170986D02*
X0292165Y0170986D01*
X0292566Y0170687D02*
X0287506Y0170687D01*
X0287618Y0170389D02*
X0293250Y0170389D01*
X0296062Y0170389D02*
X0301850Y0170389D01*
X0301980Y0170687D02*
X0296814Y0170687D01*
X0297261Y0170986D02*
X0302111Y0170986D01*
X0302242Y0171284D02*
X0297560Y0171284D01*
X0297767Y0171583D02*
X0302331Y0171583D01*
X0302369Y0171881D02*
X0297932Y0171881D01*
X0298060Y0172180D02*
X0302407Y0172180D01*
X0302446Y0172478D02*
X0298124Y0172478D01*
X0298157Y0172777D02*
X0302484Y0172777D01*
X0301686Y0170090D02*
X0287751Y0170090D01*
X0287969Y0169792D02*
X0301457Y0169792D01*
X0301227Y0169493D02*
X0288187Y0169493D01*
X0288405Y0169195D02*
X0300998Y0169195D01*
X0300638Y0168896D02*
X0288743Y0168896D01*
X0289116Y0168598D02*
X0300265Y0168598D01*
X0299833Y0168299D02*
X0289524Y0168299D01*
X0290164Y0168001D02*
X0299236Y0168001D01*
X0298528Y0167702D02*
X0290894Y0167702D01*
X0291849Y0167403D02*
X0297543Y0167403D01*
X0295161Y0167105D02*
X0294203Y0167105D01*
M02*
