G75*
%MOIN*%
%OFA0B0*%
%FSLAX25Y25*%
%IPPOS*%
%LPD*%
%AMOC8*
5,1,8,0,0,1.08239X$1,22.5*
%
%ADD10C,0.04737*%
%ADD11R,0.08674X0.05524*%
%ADD12R,0.06115X0.03162*%
%ADD13C,0.08200*%
%ADD14C,0.12800*%
%ADD15R,0.03300X0.05800*%
%ADD16C,0.00500*%
%ADD17R,0.04737X0.05131*%
%ADD18R,0.08800X0.08800*%
%ADD19C,0.08800*%
%ADD20R,0.03800X0.06800*%
%ADD21R,0.03162X0.06902*%
%ADD22R,0.05524X0.08674*%
%ADD23R,0.07099X0.07887*%
%ADD24C,0.05000*%
%ADD25C,0.06706*%
D10*
X0058696Y0244378D03*
X0058696Y0366457D03*
X0058696Y0488535D03*
X0058696Y0610614D03*
X0058696Y0732693D03*
X0060027Y0744644D03*
X0258736Y0621491D03*
X0258736Y0499412D03*
X0258736Y0377333D03*
X0258736Y0255254D03*
X0258736Y0133176D03*
X0261932Y0744644D03*
D11*
X0282495Y0702339D03*
X0282495Y0680291D03*
X0282495Y0668342D03*
X0282495Y0646294D03*
X0282495Y0580260D03*
X0282495Y0558213D03*
X0282495Y0546263D03*
X0282495Y0524216D03*
X0282495Y0458181D03*
X0282495Y0436134D03*
X0282495Y0424184D03*
X0282495Y0402137D03*
X0282495Y0336102D03*
X0282495Y0314055D03*
X0282495Y0302105D03*
X0282495Y0280058D03*
X0282495Y0214024D03*
X0282495Y0191976D03*
X0282495Y0180027D03*
X0282495Y0157979D03*
D12*
X0268026Y0163098D03*
X0268026Y0167035D03*
X0268026Y0170972D03*
X0268026Y0174909D03*
X0268027Y0197094D03*
X0268027Y0201031D03*
X0268027Y0204969D03*
X0268027Y0208906D03*
X0268026Y0285176D03*
X0268026Y0289113D03*
X0268026Y0293050D03*
X0268026Y0296987D03*
X0268027Y0319173D03*
X0268027Y0323110D03*
X0268027Y0327047D03*
X0268027Y0330984D03*
X0268026Y0407255D03*
X0268026Y0411192D03*
X0268026Y0415129D03*
X0268026Y0419066D03*
X0268027Y0441252D03*
X0268027Y0445189D03*
X0268027Y0449126D03*
X0268027Y0453063D03*
X0268026Y0529334D03*
X0268026Y0533271D03*
X0268026Y0537208D03*
X0268026Y0541145D03*
X0268027Y0563331D03*
X0268027Y0567268D03*
X0268027Y0571205D03*
X0268027Y0575142D03*
X0268026Y0651413D03*
X0268026Y0655350D03*
X0268026Y0659287D03*
X0268026Y0663224D03*
X0268027Y0685409D03*
X0268027Y0689346D03*
X0268027Y0693284D03*
X0268027Y0697221D03*
D13*
X0255980Y0715528D03*
X0255980Y0725528D03*
X0245980Y0725528D03*
X0235980Y0725528D03*
X0235980Y0715528D03*
X0245980Y0715528D03*
X0225980Y0715528D03*
X0225980Y0725528D03*
X0215980Y0725528D03*
X0215980Y0715528D03*
X0205980Y0715528D03*
X0205980Y0725528D03*
X0195980Y0725528D03*
X0185980Y0725528D03*
X0185980Y0715528D03*
X0195980Y0715528D03*
X0175980Y0715528D03*
X0175980Y0725528D03*
X0165980Y0725528D03*
X0165980Y0715528D03*
X0155980Y0715528D03*
X0155980Y0725528D03*
X0145980Y0725528D03*
X0145980Y0715528D03*
X0135980Y0715528D03*
X0135980Y0725528D03*
X0125980Y0725528D03*
X0125980Y0715528D03*
X0115980Y0715528D03*
X0115980Y0725528D03*
X0105980Y0725528D03*
X0105980Y0715528D03*
X0095980Y0715528D03*
X0095980Y0725528D03*
X0085980Y0725528D03*
X0075980Y0725528D03*
X0075980Y0715528D03*
X0085980Y0715528D03*
X0065980Y0715528D03*
X0065980Y0725528D03*
X0065980Y0603449D03*
X0065980Y0593449D03*
X0075980Y0593449D03*
X0075980Y0603449D03*
X0085980Y0603449D03*
X0085980Y0593449D03*
X0095980Y0593449D03*
X0095980Y0603449D03*
X0105980Y0603449D03*
X0105980Y0593449D03*
X0115980Y0593449D03*
X0115980Y0603449D03*
X0125980Y0603449D03*
X0125980Y0593449D03*
X0135980Y0593449D03*
X0135980Y0603449D03*
X0145980Y0603449D03*
X0145980Y0593449D03*
X0155980Y0593449D03*
X0155980Y0603449D03*
X0165980Y0603449D03*
X0165980Y0593449D03*
X0175980Y0593449D03*
X0175980Y0603449D03*
X0185980Y0603449D03*
X0185980Y0593449D03*
X0195980Y0593449D03*
X0195980Y0603449D03*
X0205980Y0603449D03*
X0205980Y0593449D03*
X0215980Y0593449D03*
X0215980Y0603449D03*
X0225980Y0603449D03*
X0225980Y0593449D03*
X0235980Y0593449D03*
X0235980Y0603449D03*
X0245980Y0603449D03*
X0245980Y0593449D03*
X0255980Y0593449D03*
X0255980Y0603449D03*
X0255980Y0481370D03*
X0255980Y0471370D03*
X0245980Y0471370D03*
X0245980Y0481370D03*
X0235980Y0481370D03*
X0235980Y0471370D03*
X0225980Y0471370D03*
X0225980Y0481370D03*
X0215980Y0481370D03*
X0215980Y0471370D03*
X0205980Y0471370D03*
X0205980Y0481370D03*
X0195980Y0481370D03*
X0195980Y0471370D03*
X0185980Y0471370D03*
X0185980Y0481370D03*
X0175980Y0481370D03*
X0175980Y0471370D03*
X0165980Y0471370D03*
X0165980Y0481370D03*
X0155980Y0481370D03*
X0155980Y0471370D03*
X0145980Y0471370D03*
X0145980Y0481370D03*
X0135980Y0481370D03*
X0135980Y0471370D03*
X0125980Y0471370D03*
X0125980Y0481370D03*
X0115980Y0481370D03*
X0115980Y0471370D03*
X0105980Y0471370D03*
X0105980Y0481370D03*
X0095980Y0481370D03*
X0095980Y0471370D03*
X0085980Y0471370D03*
X0085980Y0481370D03*
X0075980Y0481370D03*
X0075980Y0471370D03*
X0065980Y0471370D03*
X0065980Y0481370D03*
X0065980Y0359291D03*
X0065980Y0349291D03*
X0075980Y0349291D03*
X0075980Y0359291D03*
X0085980Y0359291D03*
X0085980Y0349291D03*
X0095980Y0349291D03*
X0095980Y0359291D03*
X0105980Y0359291D03*
X0105980Y0349291D03*
X0115980Y0349291D03*
X0115980Y0359291D03*
X0125980Y0359291D03*
X0125980Y0349291D03*
X0135980Y0349291D03*
X0135980Y0359291D03*
X0145980Y0359291D03*
X0145980Y0349291D03*
X0155980Y0349291D03*
X0155980Y0359291D03*
X0165980Y0359291D03*
X0165980Y0349291D03*
X0175980Y0349291D03*
X0175980Y0359291D03*
X0185980Y0359291D03*
X0185980Y0349291D03*
X0195980Y0349291D03*
X0195980Y0359291D03*
X0205980Y0359291D03*
X0205980Y0349291D03*
X0215980Y0349291D03*
X0215980Y0359291D03*
X0225980Y0359291D03*
X0225980Y0349291D03*
X0235980Y0349291D03*
X0235980Y0359291D03*
X0245980Y0359291D03*
X0245980Y0349291D03*
X0255980Y0349291D03*
X0255980Y0359291D03*
X0255980Y0237213D03*
X0255980Y0227213D03*
X0245980Y0227213D03*
X0245980Y0237213D03*
X0235980Y0237213D03*
X0235980Y0227213D03*
X0225980Y0227213D03*
X0225980Y0237213D03*
X0215980Y0237213D03*
X0215980Y0227213D03*
X0205980Y0227213D03*
X0205980Y0237213D03*
X0195980Y0237213D03*
X0195980Y0227213D03*
X0185980Y0227213D03*
X0185980Y0237213D03*
X0175980Y0237213D03*
X0175980Y0227213D03*
X0165980Y0227213D03*
X0165980Y0237213D03*
X0155980Y0237213D03*
X0155980Y0227213D03*
X0145980Y0227213D03*
X0145980Y0237213D03*
X0135980Y0237213D03*
X0135980Y0227213D03*
X0125980Y0227213D03*
X0125980Y0237213D03*
X0115980Y0237213D03*
X0115980Y0227213D03*
X0105980Y0227213D03*
X0105980Y0237213D03*
X0095980Y0237213D03*
X0095980Y0227213D03*
X0085980Y0227213D03*
X0085980Y0237213D03*
X0075980Y0237213D03*
X0075980Y0227213D03*
X0065980Y0227213D03*
X0065980Y0237213D03*
D14*
X0046806Y0232331D03*
X0046806Y0263858D03*
X0046806Y0354409D03*
X0046806Y0385937D03*
X0046806Y0476488D03*
X0046806Y0508016D03*
X0046806Y0598567D03*
X0046806Y0630095D03*
X0046806Y0720646D03*
X0126906Y0630095D03*
X0126906Y0508016D03*
X0126906Y0385937D03*
X0126906Y0263858D03*
X0126906Y0141780D03*
X0195053Y0141780D03*
X0195053Y0263858D03*
X0195053Y0385937D03*
X0195053Y0508016D03*
X0195053Y0630095D03*
X0275153Y0630095D03*
X0275153Y0598567D03*
X0275153Y0508016D03*
X0275153Y0476488D03*
X0275153Y0385937D03*
X0275153Y0354409D03*
X0275153Y0263858D03*
X0275153Y0232331D03*
X0275153Y0141780D03*
X0046806Y0141780D03*
X0275153Y0720646D03*
D15*
X0097020Y0669208D03*
X0093020Y0669208D03*
X0089020Y0669208D03*
X0089020Y0547129D03*
X0093020Y0547129D03*
X0097020Y0547129D03*
X0097020Y0425050D03*
X0093020Y0425050D03*
X0089020Y0425050D03*
X0089020Y0302972D03*
X0093020Y0302972D03*
X0097020Y0302972D03*
X0097020Y0180893D03*
X0093020Y0180893D03*
X0089020Y0180893D03*
D16*
X0090270Y0180842D02*
X0095770Y0180842D01*
X0095770Y0180393D02*
X0095770Y0181393D01*
X0090270Y0181393D01*
X0090270Y0180393D01*
X0095770Y0180393D01*
X0095770Y0181341D02*
X0090270Y0181341D01*
X0090270Y0302472D02*
X0090270Y0303472D01*
X0095770Y0303472D01*
X0095770Y0302472D01*
X0090270Y0302472D01*
X0090270Y0302479D02*
X0095770Y0302479D01*
X0095770Y0302977D02*
X0090270Y0302977D01*
X0090270Y0424550D02*
X0090270Y0425550D01*
X0095770Y0425550D01*
X0095770Y0424550D01*
X0090270Y0424550D01*
X0090270Y0424614D02*
X0095770Y0424614D01*
X0095770Y0425113D02*
X0090270Y0425113D01*
X0090270Y0546629D02*
X0090270Y0547629D01*
X0095770Y0547629D01*
X0095770Y0546629D01*
X0090270Y0546629D01*
X0090270Y0546750D02*
X0095770Y0546750D01*
X0095770Y0547248D02*
X0090270Y0547248D01*
X0090270Y0668708D02*
X0090270Y0669708D01*
X0095770Y0669708D01*
X0095770Y0668708D01*
X0090270Y0668708D01*
X0090270Y0668885D02*
X0095770Y0668885D01*
X0095770Y0669383D02*
X0090270Y0669383D01*
D17*
X0089071Y0660758D03*
X0089071Y0654065D03*
X0096397Y0654265D03*
X0096397Y0660958D03*
X0096397Y0538879D03*
X0096397Y0532186D03*
X0089071Y0531986D03*
X0089071Y0538679D03*
X0089071Y0416600D03*
X0089071Y0409907D03*
X0096397Y0410107D03*
X0096397Y0416800D03*
X0096397Y0294721D03*
X0096397Y0288028D03*
X0089071Y0287828D03*
X0089071Y0294521D03*
X0089071Y0172443D03*
X0089071Y0165750D03*
X0096397Y0165950D03*
X0096397Y0172643D03*
X0209027Y0209654D03*
X0209027Y0216346D03*
X0209027Y0331732D03*
X0209027Y0338425D03*
X0209027Y0453811D03*
X0209027Y0460504D03*
X0209027Y0575890D03*
X0209027Y0582583D03*
X0209027Y0697969D03*
X0209027Y0704661D03*
D18*
X0068027Y0691315D03*
X0048027Y0691315D03*
X0048027Y0569236D03*
X0068027Y0569236D03*
X0068027Y0447158D03*
X0048027Y0447158D03*
X0048027Y0325079D03*
X0068027Y0325079D03*
X0068027Y0203000D03*
X0048027Y0203000D03*
D19*
X0048027Y0189220D03*
X0068027Y0189220D03*
X0068027Y0311299D03*
X0048027Y0311299D03*
X0048027Y0433378D03*
X0068027Y0433378D03*
X0068027Y0555457D03*
X0048027Y0555457D03*
X0048027Y0677535D03*
X0068027Y0677535D03*
D20*
X0217527Y0682315D03*
X0217527Y0704315D03*
X0232527Y0704315D03*
X0232527Y0682315D03*
X0232527Y0582236D03*
X0232527Y0560236D03*
X0217527Y0560236D03*
X0217527Y0582236D03*
X0217527Y0460158D03*
X0217527Y0438158D03*
X0232527Y0438158D03*
X0232527Y0460158D03*
X0232527Y0338079D03*
X0232527Y0316079D03*
X0217527Y0316079D03*
X0217527Y0338079D03*
X0217527Y0216000D03*
X0217527Y0194000D03*
X0232527Y0194000D03*
X0232527Y0216000D03*
D21*
X0194019Y0182051D03*
X0190082Y0182051D03*
X0186145Y0182051D03*
X0182208Y0182051D03*
X0141019Y0182051D03*
X0137082Y0182051D03*
X0133145Y0182051D03*
X0129208Y0182051D03*
X0129208Y0304130D03*
X0133145Y0304130D03*
X0137082Y0304130D03*
X0141019Y0304130D03*
X0182208Y0304130D03*
X0186145Y0304130D03*
X0190082Y0304130D03*
X0194019Y0304130D03*
X0194019Y0426209D03*
X0190082Y0426209D03*
X0186145Y0426209D03*
X0182208Y0426209D03*
X0141019Y0426209D03*
X0137082Y0426209D03*
X0133145Y0426209D03*
X0129208Y0426209D03*
X0129208Y0548287D03*
X0133145Y0548287D03*
X0137082Y0548287D03*
X0141019Y0548287D03*
X0182208Y0548287D03*
X0186145Y0548287D03*
X0190082Y0548287D03*
X0194019Y0548287D03*
X0194019Y0670366D03*
X0190082Y0670366D03*
X0186145Y0670366D03*
X0182208Y0670366D03*
X0141019Y0670366D03*
X0137082Y0670366D03*
X0133145Y0670366D03*
X0129208Y0670366D03*
D22*
X0124090Y0679913D03*
X0146137Y0679913D03*
X0177090Y0679913D03*
X0199137Y0679913D03*
X0199137Y0557835D03*
X0177090Y0557835D03*
X0146137Y0557835D03*
X0124090Y0557835D03*
X0124090Y0435756D03*
X0146137Y0435756D03*
X0177090Y0435756D03*
X0199137Y0435756D03*
X0199137Y0313677D03*
X0177090Y0313677D03*
X0146137Y0313677D03*
X0124090Y0313677D03*
X0124090Y0191598D03*
X0146137Y0191598D03*
X0177090Y0191598D03*
X0199137Y0191598D03*
D23*
X0063539Y0215000D03*
X0052515Y0215000D03*
X0052515Y0337079D03*
X0063539Y0337079D03*
X0063539Y0459158D03*
X0052515Y0459158D03*
X0052515Y0581236D03*
X0063539Y0581236D03*
X0063539Y0703315D03*
X0052515Y0703315D03*
D24*
X0056462Y0119750D02*
X0056464Y0119869D01*
X0056470Y0119988D01*
X0056480Y0120107D01*
X0056494Y0120225D01*
X0056512Y0120343D01*
X0056533Y0120460D01*
X0056559Y0120576D01*
X0056589Y0120692D01*
X0056622Y0120806D01*
X0056659Y0120919D01*
X0056700Y0121031D01*
X0056745Y0121142D01*
X0056793Y0121251D01*
X0056845Y0121358D01*
X0056901Y0121463D01*
X0056960Y0121567D01*
X0057022Y0121668D01*
X0057088Y0121768D01*
X0057157Y0121865D01*
X0057229Y0121959D01*
X0057305Y0122052D01*
X0057383Y0122141D01*
X0057464Y0122228D01*
X0057549Y0122313D01*
X0057636Y0122394D01*
X0057725Y0122472D01*
X0057818Y0122548D01*
X0057912Y0122620D01*
X0058009Y0122689D01*
X0058109Y0122755D01*
X0058210Y0122817D01*
X0058314Y0122876D01*
X0058419Y0122932D01*
X0058526Y0122984D01*
X0058635Y0123032D01*
X0058746Y0123077D01*
X0058858Y0123118D01*
X0058971Y0123155D01*
X0059085Y0123188D01*
X0059201Y0123218D01*
X0059317Y0123244D01*
X0059434Y0123265D01*
X0059552Y0123283D01*
X0059670Y0123297D01*
X0059789Y0123307D01*
X0059908Y0123313D01*
X0060027Y0123315D01*
X0060146Y0123313D01*
X0060265Y0123307D01*
X0060384Y0123297D01*
X0060502Y0123283D01*
X0060620Y0123265D01*
X0060737Y0123244D01*
X0060853Y0123218D01*
X0060969Y0123188D01*
X0061083Y0123155D01*
X0061196Y0123118D01*
X0061308Y0123077D01*
X0061419Y0123032D01*
X0061528Y0122984D01*
X0061635Y0122932D01*
X0061740Y0122876D01*
X0061844Y0122817D01*
X0061945Y0122755D01*
X0062045Y0122689D01*
X0062142Y0122620D01*
X0062236Y0122548D01*
X0062329Y0122472D01*
X0062418Y0122394D01*
X0062505Y0122313D01*
X0062590Y0122228D01*
X0062671Y0122141D01*
X0062749Y0122052D01*
X0062825Y0121959D01*
X0062897Y0121865D01*
X0062966Y0121768D01*
X0063032Y0121668D01*
X0063094Y0121567D01*
X0063153Y0121463D01*
X0063209Y0121358D01*
X0063261Y0121251D01*
X0063309Y0121142D01*
X0063354Y0121031D01*
X0063395Y0120919D01*
X0063432Y0120806D01*
X0063465Y0120692D01*
X0063495Y0120576D01*
X0063521Y0120460D01*
X0063542Y0120343D01*
X0063560Y0120225D01*
X0063574Y0120107D01*
X0063584Y0119988D01*
X0063590Y0119869D01*
X0063592Y0119750D01*
X0063590Y0119631D01*
X0063584Y0119512D01*
X0063574Y0119393D01*
X0063560Y0119275D01*
X0063542Y0119157D01*
X0063521Y0119040D01*
X0063495Y0118924D01*
X0063465Y0118808D01*
X0063432Y0118694D01*
X0063395Y0118581D01*
X0063354Y0118469D01*
X0063309Y0118358D01*
X0063261Y0118249D01*
X0063209Y0118142D01*
X0063153Y0118037D01*
X0063094Y0117933D01*
X0063032Y0117832D01*
X0062966Y0117732D01*
X0062897Y0117635D01*
X0062825Y0117541D01*
X0062749Y0117448D01*
X0062671Y0117359D01*
X0062590Y0117272D01*
X0062505Y0117187D01*
X0062418Y0117106D01*
X0062329Y0117028D01*
X0062236Y0116952D01*
X0062142Y0116880D01*
X0062045Y0116811D01*
X0061945Y0116745D01*
X0061844Y0116683D01*
X0061740Y0116624D01*
X0061635Y0116568D01*
X0061528Y0116516D01*
X0061419Y0116468D01*
X0061308Y0116423D01*
X0061196Y0116382D01*
X0061083Y0116345D01*
X0060969Y0116312D01*
X0060853Y0116282D01*
X0060737Y0116256D01*
X0060620Y0116235D01*
X0060502Y0116217D01*
X0060384Y0116203D01*
X0060265Y0116193D01*
X0060146Y0116187D01*
X0060027Y0116185D01*
X0059908Y0116187D01*
X0059789Y0116193D01*
X0059670Y0116203D01*
X0059552Y0116217D01*
X0059434Y0116235D01*
X0059317Y0116256D01*
X0059201Y0116282D01*
X0059085Y0116312D01*
X0058971Y0116345D01*
X0058858Y0116382D01*
X0058746Y0116423D01*
X0058635Y0116468D01*
X0058526Y0116516D01*
X0058419Y0116568D01*
X0058314Y0116624D01*
X0058210Y0116683D01*
X0058109Y0116745D01*
X0058009Y0116811D01*
X0057912Y0116880D01*
X0057818Y0116952D01*
X0057725Y0117028D01*
X0057636Y0117106D01*
X0057549Y0117187D01*
X0057464Y0117272D01*
X0057383Y0117359D01*
X0057305Y0117448D01*
X0057229Y0117541D01*
X0057157Y0117635D01*
X0057088Y0117732D01*
X0057022Y0117832D01*
X0056960Y0117933D01*
X0056901Y0118037D01*
X0056845Y0118142D01*
X0056793Y0118249D01*
X0056745Y0118358D01*
X0056700Y0118469D01*
X0056659Y0118581D01*
X0056622Y0118694D01*
X0056589Y0118808D01*
X0056559Y0118924D01*
X0056533Y0119040D01*
X0056512Y0119157D01*
X0056494Y0119275D01*
X0056480Y0119393D01*
X0056470Y0119512D01*
X0056464Y0119631D01*
X0056462Y0119750D01*
D25*
X0060027Y0119750D03*
M02*
