G75*
%MOIN*%
%OFA0B0*%
%FSLAX25Y25*%
%IPPOS*%
%LPD*%
%AMOC8*
5,1,8,0,0,1.08239X$1,22.5*
%
%ADD10C,0.04737*%
%ADD11C,0.08200*%
%ADD12C,0.12800*%
%ADD13R,0.08800X0.08800*%
%ADD14C,0.08800*%
%ADD15R,0.05800X0.03300*%
D10*
X0115003Y0182378D03*
X0115003Y0304457D03*
X0115003Y0426535D03*
X0115003Y0548614D03*
X0115003Y0670693D03*
X0315042Y0559472D03*
X0315042Y0437394D03*
X0315042Y0315315D03*
X0315042Y0193236D03*
X0315042Y0071157D03*
D11*
X0312286Y0165213D03*
X0312286Y0175213D03*
X0302286Y0175213D03*
X0302286Y0165213D03*
X0292286Y0165213D03*
X0292286Y0175213D03*
X0282286Y0175213D03*
X0282286Y0165213D03*
X0272286Y0165213D03*
X0272286Y0175213D03*
X0262286Y0175213D03*
X0262286Y0165213D03*
X0252286Y0165213D03*
X0252286Y0175213D03*
X0242286Y0175213D03*
X0242286Y0165213D03*
X0232286Y0165213D03*
X0232286Y0175213D03*
X0222286Y0175213D03*
X0222286Y0165213D03*
X0212286Y0165213D03*
X0212286Y0175213D03*
X0202286Y0175213D03*
X0202286Y0165213D03*
X0192286Y0165213D03*
X0192286Y0175213D03*
X0182286Y0175213D03*
X0182286Y0165213D03*
X0172286Y0165213D03*
X0172286Y0175213D03*
X0162286Y0175213D03*
X0162286Y0165213D03*
X0152286Y0165213D03*
X0152286Y0175213D03*
X0142286Y0175213D03*
X0142286Y0165213D03*
X0132286Y0165213D03*
X0132286Y0175213D03*
X0122286Y0175213D03*
X0122286Y0165213D03*
X0122286Y0287291D03*
X0132286Y0287291D03*
X0142286Y0287291D03*
X0152286Y0287291D03*
X0152286Y0297291D03*
X0142286Y0297291D03*
X0132286Y0297291D03*
X0122286Y0297291D03*
X0162286Y0297291D03*
X0162286Y0287291D03*
X0172286Y0287291D03*
X0182286Y0287291D03*
X0192286Y0287291D03*
X0192286Y0297291D03*
X0182286Y0297291D03*
X0172286Y0297291D03*
X0202286Y0297291D03*
X0202286Y0287291D03*
X0212286Y0287291D03*
X0222286Y0287291D03*
X0232286Y0287291D03*
X0232286Y0297291D03*
X0222286Y0297291D03*
X0212286Y0297291D03*
X0242286Y0297291D03*
X0242286Y0287291D03*
X0252286Y0287291D03*
X0262286Y0287291D03*
X0272286Y0287291D03*
X0282286Y0287291D03*
X0282286Y0297291D03*
X0272286Y0297291D03*
X0262286Y0297291D03*
X0252286Y0297291D03*
X0292286Y0297291D03*
X0292286Y0287291D03*
X0302286Y0287291D03*
X0312286Y0287291D03*
X0312286Y0297291D03*
X0302286Y0297291D03*
X0302286Y0409370D03*
X0302286Y0419370D03*
X0292286Y0419370D03*
X0292286Y0409370D03*
X0282286Y0409370D03*
X0282286Y0419370D03*
X0272286Y0419370D03*
X0272286Y0409370D03*
X0262286Y0409370D03*
X0262286Y0419370D03*
X0252286Y0419370D03*
X0252286Y0409370D03*
X0242286Y0409370D03*
X0242286Y0419370D03*
X0232286Y0419370D03*
X0232286Y0409370D03*
X0222286Y0409370D03*
X0222286Y0419370D03*
X0212286Y0419370D03*
X0212286Y0409370D03*
X0202286Y0409370D03*
X0202286Y0419370D03*
X0192286Y0419370D03*
X0192286Y0409370D03*
X0182286Y0409370D03*
X0182286Y0419370D03*
X0172286Y0419370D03*
X0172286Y0409370D03*
X0162286Y0409370D03*
X0162286Y0419370D03*
X0152286Y0419370D03*
X0152286Y0409370D03*
X0142286Y0409370D03*
X0142286Y0419370D03*
X0132286Y0419370D03*
X0132286Y0409370D03*
X0122286Y0409370D03*
X0122286Y0419370D03*
X0122286Y0531449D03*
X0122286Y0541449D03*
X0132286Y0541449D03*
X0132286Y0531449D03*
X0142286Y0531449D03*
X0142286Y0541449D03*
X0152286Y0541449D03*
X0152286Y0531449D03*
X0162286Y0531449D03*
X0162286Y0541449D03*
X0172286Y0541449D03*
X0172286Y0531449D03*
X0182286Y0531449D03*
X0182286Y0541449D03*
X0192286Y0541449D03*
X0192286Y0531449D03*
X0202286Y0531449D03*
X0202286Y0541449D03*
X0212286Y0541449D03*
X0212286Y0531449D03*
X0222286Y0531449D03*
X0222286Y0541449D03*
X0232286Y0541449D03*
X0232286Y0531449D03*
X0242286Y0531449D03*
X0242286Y0541449D03*
X0252286Y0541449D03*
X0252286Y0531449D03*
X0262286Y0531449D03*
X0262286Y0541449D03*
X0272286Y0541449D03*
X0272286Y0531449D03*
X0282286Y0531449D03*
X0282286Y0541449D03*
X0292286Y0541449D03*
X0292286Y0531449D03*
X0302286Y0531449D03*
X0302286Y0541449D03*
X0312286Y0541449D03*
X0312286Y0531449D03*
X0312286Y0419370D03*
X0312286Y0409370D03*
X0312286Y0653528D03*
X0312286Y0663528D03*
X0302286Y0663528D03*
X0292286Y0663528D03*
X0292286Y0653528D03*
X0302286Y0653528D03*
X0282286Y0653528D03*
X0282286Y0663528D03*
X0272286Y0663528D03*
X0262286Y0663528D03*
X0252286Y0663528D03*
X0242286Y0663528D03*
X0242286Y0653528D03*
X0252286Y0653528D03*
X0262286Y0653528D03*
X0272286Y0653528D03*
X0232286Y0653528D03*
X0232286Y0663528D03*
X0222286Y0663528D03*
X0212286Y0663528D03*
X0202286Y0663528D03*
X0202286Y0653528D03*
X0212286Y0653528D03*
X0222286Y0653528D03*
X0192286Y0653528D03*
X0192286Y0663528D03*
X0182286Y0663528D03*
X0172286Y0663528D03*
X0162286Y0663528D03*
X0162286Y0653528D03*
X0172286Y0653528D03*
X0182286Y0653528D03*
X0152286Y0653528D03*
X0152286Y0663528D03*
X0142286Y0663528D03*
X0132286Y0663528D03*
X0122286Y0663528D03*
X0122286Y0653528D03*
X0132286Y0653528D03*
X0142286Y0653528D03*
D12*
X0103113Y0079780D03*
X0103113Y0170331D03*
X0103113Y0201858D03*
X0103113Y0292409D03*
X0103113Y0323937D03*
X0103113Y0414488D03*
X0103113Y0446016D03*
X0103113Y0536567D03*
X0103113Y0568095D03*
X0103113Y0658646D03*
X0183213Y0568095D03*
X0251359Y0568095D03*
X0251359Y0446016D03*
X0183213Y0446016D03*
X0183213Y0323937D03*
X0251359Y0323937D03*
X0251359Y0201858D03*
X0183213Y0201858D03*
X0183213Y0079780D03*
X0251359Y0079780D03*
X0331459Y0079780D03*
X0331459Y0170331D03*
X0331459Y0201858D03*
X0331459Y0292409D03*
X0331459Y0323937D03*
X0331459Y0414488D03*
X0331459Y0446016D03*
X0331459Y0536567D03*
X0331459Y0568095D03*
X0331459Y0658646D03*
D13*
X0124333Y0629315D03*
X0104333Y0629315D03*
X0104333Y0507236D03*
X0124333Y0507236D03*
X0124333Y0385158D03*
X0104333Y0385158D03*
X0104333Y0263079D03*
X0124333Y0263079D03*
X0124333Y0141000D03*
X0104333Y0141000D03*
D14*
X0104333Y0127220D03*
X0124333Y0127220D03*
X0124333Y0249299D03*
X0104333Y0249299D03*
X0104333Y0371378D03*
X0124333Y0371378D03*
X0124333Y0493457D03*
X0104333Y0493457D03*
X0104333Y0615535D03*
X0124333Y0615535D03*
D15*
X0114033Y0639215D03*
X0114033Y0642415D03*
X0114033Y0520336D03*
X0114033Y0517136D03*
X0114033Y0398258D03*
X0114033Y0395058D03*
X0114033Y0276179D03*
X0114033Y0272979D03*
X0114033Y0154100D03*
X0114033Y0150900D03*
M02*
