%
M48
M72
T01C0.0150
T02C0.0200
T03C0.0400
T04C0.0472
T05C0.1200
%
T01
X27352Y16795
X27683Y17104
X27354Y20168
X27685Y20487
X27352Y29003
X27683Y29312
X27354Y32376
X27685Y32695
X27352Y41211
X27683Y41520
X27354Y44584
X27685Y44903
X27352Y53419
X27683Y53728
X27354Y56792
X27685Y57111
X27352Y65627
X27683Y65936
X27354Y69000
X27685Y69319
T02
X26503Y67331
X25253Y68431
X25203Y69931
X24826Y65822
X20903Y68081
X20403Y70531
X18803Y69631
X19008Y66431
X19392Y64821
X16220Y64369
X16303Y67281
X14103Y64821
X13708Y66431
X13653Y69581
X10878Y67254
X10137Y66019
X10133Y65221
X8413Y65591
X10503Y69581
X5903Y69631
X4603Y70241
X4603Y58034
X5903Y57424
X8413Y53384
X10133Y53014
X10137Y53811
X10878Y55046
X10503Y57374
X13653Y57374
X13708Y54224
X14103Y52614
X16220Y52161
X16303Y55074
X18803Y57424
X19008Y54224
X19392Y52614
X20903Y55874
X20403Y58324
X24826Y53615
X25253Y56224
X25203Y57724
X26503Y55124
X25203Y45516
X25253Y44016
X26503Y42916
X24826Y41407
X20903Y43666
X20403Y46116
X18803Y45216
X19008Y42016
X19392Y40406
X16220Y39954
X16303Y42866
X14103Y40406
X13708Y42016
X13653Y45166
X10878Y42838
X10137Y41604
X10133Y40806
X8413Y41176
X10503Y45166
X5903Y45216
X4603Y45826
X4603Y33618
X5903Y33008
X8413Y28968
X10133Y28598
X10137Y29396
X10878Y30630
X10503Y32958
X13653Y32958
X13708Y29808
X14103Y28198
X16220Y27746
X16303Y30658
X18803Y33008
X19008Y29808
X19392Y28198
X20903Y31458
X20403Y33908
X24826Y29199
X25253Y31808
X25203Y33308
X26503Y30708
X25203Y21100
X25253Y19600
X26503Y18500
X24826Y16991
X20903Y19250
X20403Y21700
X18803Y20800
X19008Y17600
X19392Y15990
X16220Y15538
X16303Y18450
X14103Y15990
X13708Y17600
X13653Y20750
X10878Y18422
X10137Y17188
X10133Y16390
X8413Y16760
X10503Y20750
X5903Y20800
X4603Y21410
T03
X6598Y22721
X6598Y23721
X7598Y23721
X7598Y22721
X8598Y22721
X8598Y23721
X9598Y23721
X9598Y22721
X10598Y22721
X10598Y23721
X11598Y23721
X11598Y22721
X12598Y22721
X12598Y23721
X13598Y23721
X13598Y22721
X14598Y22721
X14598Y23721
X15598Y23721
X15598Y22721
X16598Y22721
X16598Y23721
X17598Y23721
X17598Y22721
X18598Y22721
X18598Y23721
X19598Y23721
X19598Y22721
X20598Y22721
X20598Y23721
X21598Y23721
X21598Y22721
X22598Y22721
X22598Y23721
X23598Y23721
X23598Y22721
X24598Y22721
X24598Y23721
X25598Y23721
X25598Y22721
X25598Y34929
X25598Y35929
X24598Y35929
X24598Y34929
X23598Y34929
X23598Y35929
X22598Y35929
X22598Y34929
X21598Y34929
X21598Y35929
X20598Y35929
X20598Y34929
X19598Y34929
X19598Y35929
X18598Y35929
X18598Y34929
X17598Y34929
X17598Y35929
X16598Y35929
X16598Y34929
X15598Y34929
X15598Y35929
X14598Y35929
X14598Y34929
X13598Y34929
X13598Y35929
X12598Y35929
X12598Y34929
X11598Y34929
X11598Y35929
X10598Y35929
X10598Y34929
X9598Y34929
X9598Y35929
X8598Y35929
X8598Y34929
X7598Y34929
X7598Y35929
X6598Y35929
X6598Y34929
X6598Y47137
X6598Y48137
X7598Y48137
X7598Y47137
X8598Y47137
X8598Y48137
X9598Y48137
X9598Y47137
X10598Y47137
X10598Y48137
X11598Y48137
X11598Y47137
X12598Y47137
X12598Y48137
X13598Y48137
X13598Y47137
X14598Y47137
X14598Y48137
X15598Y48137
X15598Y47137
X16598Y47137
X16598Y48137
X17598Y48137
X17598Y47137
X18598Y47137
X18598Y48137
X19598Y48137
X19598Y47137
X20598Y47137
X20598Y48137
X21598Y48137
X21598Y47137
X22598Y47137
X22598Y48137
X23598Y48137
X23598Y47137
X24598Y47137
X24598Y48137
X25598Y48137
X25598Y47137
X25598Y59345
X25598Y60345
X24598Y60345
X24598Y59345
X23598Y59345
X23598Y60345
X22598Y60345
X22598Y59345
X21598Y59345
X21598Y60345
X20598Y60345
X20598Y59345
X19598Y59345
X19598Y60345
X18598Y60345
X18598Y59345
X17598Y59345
X17598Y60345
X16598Y60345
X16598Y59345
X15598Y59345
X15598Y60345
X14598Y60345
X14598Y59345
X13598Y59345
X13598Y60345
X12598Y60345
X12598Y59345
X11598Y59345
X11598Y60345
X10598Y60345
X10598Y59345
X9598Y59345
X9598Y60345
X8598Y60345
X8598Y59345
X7598Y59345
X7598Y60345
X6598Y60345
X6598Y59345
X6598Y71553
X6598Y72553
X7598Y72553
X8598Y72553
X8598Y71553
X7598Y71553
X9598Y71553
X9598Y72553
X10598Y72553
X11598Y72553
X11598Y71553
X10598Y71553
X12598Y71553
X12598Y72553
X13598Y72553
X13598Y71553
X14598Y71553
X14598Y72553
X15598Y72553
X15598Y71553
X16598Y71553
X16598Y72553
X17598Y72553
X17598Y71553
X18598Y71553
X18598Y72553
X19598Y72553
X19598Y71553
X20598Y71553
X20598Y72553
X21598Y72553
X22598Y72553
X22598Y71553
X21598Y71553
X23598Y71553
X23598Y72553
X24598Y72553
X24598Y71553
X25598Y71553
X25598Y72553
T04
X6803Y69131
X6803Y67754
X4803Y67754
X4803Y69131
X4803Y56924
X4803Y55546
X6803Y55546
X6803Y56924
X6803Y44716
X6803Y43338
X4803Y43338
X4803Y44716
X4803Y32508
X4803Y31130
X6803Y31130
X6803Y32508
X6803Y20300
X6803Y18922
X4803Y18922
X4803Y20300
T05
X4681Y14178
X4681Y23233
X4681Y26386
X4681Y35441
X4681Y38594
X4681Y47649
X4681Y50802
X4681Y59857
X4681Y63009
X4681Y72065
X12691Y63009
X12691Y50802
X12691Y38594
X12691Y26386
X12691Y14178
X19505Y14178
X19505Y26386
X19505Y38594
X19505Y50802
X19505Y63009
X27515Y63009
X27515Y59857
X27515Y50802
X27515Y47649
X27515Y38594
X27515Y35441
X27515Y26386
X27515Y23233
X27515Y14178
X27515Y72065
M30
