%
M48
M72
T01C0.0150
T02C0.0200
T03C0.0400
T04C0.0472
T05C0.1200
%
T01
X35183Y16795
X35514Y17104
X35185Y20168
X35516Y20487
T02
X33033Y21100
X33083Y19600
X34333Y18500
X32657Y16991
X28733Y19250
X26633Y20800
X28233Y21700
X24133Y18450
X21539Y17600
X21933Y15990
X24051Y15538
X26839Y17600
X27223Y15990
X21483Y20750
X18333Y20750
X18709Y18422
X17167Y17188
X17163Y16390
X15443Y16760
T03
X15429Y22721
X14429Y22721
X14429Y23721
X15429Y23721
X16429Y23721
X17429Y23721
X18429Y23721
X19429Y23721
X20429Y23721
X21429Y23721
X22429Y23721
X23429Y23721
X24429Y23721
X25429Y23721
X26429Y23721
X27429Y23721
X28429Y23721
X29429Y23721
X30429Y23721
X31429Y23721
X32429Y23721
X33429Y23721
X33429Y22721
X32429Y22721
X31429Y22721
X30429Y22721
X29429Y22721
X28429Y22721
X27429Y22721
X26429Y22721
X25429Y22721
X24429Y22721
X23429Y22721
X22429Y22721
X21429Y22721
X20429Y22721
X19429Y22721
X18429Y22721
X17429Y22721
X16429Y22721
T04
X14533Y20900
X12633Y20900
X12633Y19522
X14533Y19522
T05
X12511Y14178
X20521Y14178
X27336Y14178
X35346Y14178
X35346Y23233
X12511Y23233
M30
