G75*
%MOIN*%
%OFA0B0*%
%FSLAX25Y25*%
%IPPOS*%
%LPD*%
%AMOC8*
5,1,8,0,0,1.08239X$1,22.5*
%
%ADD10C,0.04737*%
%ADD11C,0.08200*%
%ADD12C,0.12800*%
%ADD13R,0.08800X0.08800*%
%ADD14C,0.08800*%
D10*
X0337042Y0133157D03*
X0137003Y0244378D03*
D11*
X0144286Y0237213D03*
X0154286Y0237213D03*
X0164286Y0237213D03*
X0174286Y0237213D03*
X0184286Y0237213D03*
X0194286Y0237213D03*
X0204286Y0237213D03*
X0214286Y0237213D03*
X0224286Y0237213D03*
X0234286Y0237213D03*
X0244286Y0237213D03*
X0254286Y0237213D03*
X0264286Y0237213D03*
X0274286Y0237213D03*
X0284286Y0237213D03*
X0294286Y0237213D03*
X0304286Y0237213D03*
X0314286Y0237213D03*
X0324286Y0237213D03*
X0334286Y0237213D03*
X0334286Y0227213D03*
X0324286Y0227213D03*
X0314286Y0227213D03*
X0304286Y0227213D03*
X0294286Y0227213D03*
X0284286Y0227213D03*
X0274286Y0227213D03*
X0264286Y0227213D03*
X0254286Y0227213D03*
X0244286Y0227213D03*
X0234286Y0227213D03*
X0224286Y0227213D03*
X0214286Y0227213D03*
X0204286Y0227213D03*
X0194286Y0227213D03*
X0184286Y0227213D03*
X0174286Y0227213D03*
X0164286Y0227213D03*
X0154286Y0227213D03*
X0144286Y0227213D03*
D12*
X0125113Y0141780D03*
X0205213Y0141780D03*
X0273359Y0141780D03*
X0353459Y0141780D03*
X0353459Y0232331D03*
X0125113Y0232331D03*
D13*
X0126333Y0209000D03*
X0145333Y0209000D03*
D14*
X0145333Y0195220D03*
X0126333Y0195220D03*
M02*
