G75*
%MOIN*%
%OFA0B0*%
%FSLAX25Y25*%
%IPPOS*%
%LPD*%
%AMOC8*
5,1,8,0,0,1.08239X$1,22.5*
%
%ADD10C,0.03937*%
%ADD11R,0.07874X0.04724*%
%ADD12R,0.05315X0.02362*%
%ADD13C,0.07400*%
%ADD14R,0.02500X0.05000*%
%ADD15R,0.01600X0.01000*%
%ADD16R,0.03937X0.04331*%
%ADD17R,0.08000X0.08000*%
%ADD18C,0.08000*%
%ADD19R,0.03000X0.06000*%
%ADD20R,0.02362X0.06102*%
%ADD21R,0.04724X0.07874*%
%ADD22C,0.01000*%
%ADD23C,0.04000*%
%ADD24C,0.02000*%
%ADD25C,0.03500*%
%ADD26C,0.05000*%
D10*
X0337042Y0133176D03*
X0137003Y0244378D03*
D11*
X0360802Y0214024D03*
X0360802Y0191976D03*
X0360801Y0180027D03*
X0360801Y0157979D03*
D12*
X0346333Y0163098D03*
X0346333Y0167035D03*
X0346333Y0170972D03*
X0346333Y0174909D03*
X0346333Y0197094D03*
X0346333Y0201031D03*
X0346333Y0204969D03*
X0346333Y0208906D03*
D13*
X0334286Y0227213D03*
X0324286Y0227213D03*
X0314286Y0227213D03*
X0314286Y0237213D03*
X0324286Y0237213D03*
X0334286Y0237213D03*
X0304286Y0237213D03*
X0294286Y0237213D03*
X0284286Y0237213D03*
X0274286Y0237213D03*
X0264286Y0237213D03*
X0254286Y0237213D03*
X0244286Y0237213D03*
X0234286Y0237213D03*
X0224286Y0237213D03*
X0214286Y0237213D03*
X0204286Y0237213D03*
X0194286Y0237213D03*
X0184286Y0237213D03*
X0174286Y0237213D03*
X0164286Y0237213D03*
X0154286Y0237213D03*
X0144286Y0237213D03*
X0144286Y0227213D03*
X0154286Y0227213D03*
X0164286Y0227213D03*
X0174286Y0227213D03*
X0184286Y0227213D03*
X0194286Y0227213D03*
X0204286Y0227213D03*
X0214286Y0227213D03*
X0224286Y0227213D03*
X0234286Y0227213D03*
X0244286Y0227213D03*
X0254286Y0227213D03*
X0264286Y0227213D03*
X0274286Y0227213D03*
X0284286Y0227213D03*
X0294286Y0227213D03*
X0304286Y0227213D03*
D14*
X0167326Y0180893D03*
X0163326Y0180893D03*
X0159326Y0180893D03*
D15*
X0161326Y0180893D03*
X0165326Y0180893D03*
D16*
X0166703Y0172643D03*
X0159377Y0172443D03*
X0159377Y0165750D03*
X0166703Y0165950D03*
X0287333Y0209654D03*
X0287333Y0216346D03*
D17*
X0145333Y0209000D03*
X0126333Y0209000D03*
D18*
X0126333Y0195220D03*
X0145333Y0195220D03*
D19*
X0295833Y0194000D03*
X0310833Y0194000D03*
X0310833Y0216000D03*
X0295833Y0216000D03*
D20*
X0272325Y0182051D03*
X0268388Y0182051D03*
X0264451Y0182051D03*
X0260514Y0182051D03*
X0219325Y0182051D03*
X0215388Y0182051D03*
X0211451Y0182051D03*
X0207514Y0182051D03*
D21*
X0202396Y0191598D03*
X0224444Y0191598D03*
X0255396Y0191598D03*
X0277444Y0191598D03*
D22*
X0133771Y0130495D02*
X0133086Y0130100D01*
X0197376Y0130100D01*
X0196691Y0130495D01*
X0194065Y0133121D01*
X0192209Y0136337D01*
X0191248Y0139923D01*
X0191248Y0143636D01*
X0192209Y0147223D01*
X0194065Y0150438D01*
X0196691Y0153064D01*
X0199906Y0154920D01*
X0203493Y0155881D01*
X0207206Y0155881D01*
X0210792Y0154920D01*
X0214008Y0153064D01*
X0216633Y0150438D01*
X0218490Y0147223D01*
X0219451Y0143636D01*
X0219451Y0139923D01*
X0218490Y0136337D01*
X0216633Y0133121D01*
X0214008Y0130495D01*
X0213323Y0130100D01*
X0265457Y0130100D01*
X0264840Y0130456D01*
X0262215Y0133082D01*
X0260358Y0136297D01*
X0259397Y0139884D01*
X0259397Y0143597D01*
X0260358Y0147183D01*
X0262215Y0150399D01*
X0264840Y0153024D01*
X0268056Y0154881D01*
X0271642Y0155842D01*
X0275355Y0155842D01*
X0278942Y0154881D01*
X0282157Y0153024D01*
X0284783Y0150399D01*
X0286639Y0147183D01*
X0287600Y0143597D01*
X0287600Y0139884D01*
X0286639Y0136297D01*
X0284783Y0133082D01*
X0282157Y0130456D01*
X0281540Y0130100D01*
X0334930Y0130100D01*
X0333932Y0131098D01*
X0333373Y0132446D01*
X0333373Y0133905D01*
X0333932Y0135254D01*
X0334964Y0136286D01*
X0336312Y0136844D01*
X0337772Y0136844D01*
X0339120Y0136286D01*
X0340152Y0135254D01*
X0340710Y0133905D01*
X0340710Y0132446D01*
X0340152Y0131098D01*
X0339154Y0130100D01*
X0345486Y0130100D01*
X0344801Y0130495D01*
X0342175Y0133121D01*
X0340319Y0136337D01*
X0339358Y0139923D01*
X0339358Y0143636D01*
X0340319Y0147223D01*
X0342175Y0150438D01*
X0344801Y0153064D01*
X0348016Y0154920D01*
X0351603Y0155881D01*
X0355164Y0155881D01*
X0355164Y0161046D01*
X0356160Y0162042D01*
X0365139Y0162042D01*
X0365139Y0175964D01*
X0356160Y0175964D01*
X0355164Y0176960D01*
X0355164Y0183093D01*
X0356160Y0184089D01*
X0365139Y0184089D01*
X0365139Y0187914D01*
X0356161Y0187914D01*
X0355165Y0188910D01*
X0355165Y0195043D01*
X0356161Y0196039D01*
X0365139Y0196039D01*
X0365139Y0209961D01*
X0356161Y0209961D01*
X0355165Y0210957D01*
X0355165Y0217090D01*
X0356161Y0218086D01*
X0365139Y0218086D01*
X0365139Y0224357D01*
X0364743Y0223672D01*
X0362118Y0221047D01*
X0358902Y0219190D01*
X0355316Y0218229D01*
X0351603Y0218229D01*
X0348016Y0219190D01*
X0344801Y0221047D01*
X0342175Y0223672D01*
X0340319Y0226888D01*
X0339358Y0230474D01*
X0339358Y0234187D01*
X0340319Y0237774D01*
X0342175Y0240989D01*
X0344801Y0243615D01*
X0348016Y0245471D01*
X0349910Y0245979D01*
X0140310Y0245979D01*
X0140671Y0245108D01*
X0140671Y0243648D01*
X0140113Y0242300D01*
X0139081Y0241268D01*
X0137732Y0240709D01*
X0136558Y0240709D01*
X0138253Y0237774D01*
X0138840Y0235585D01*
X0139035Y0235780D01*
X0138886Y0236138D01*
X0138886Y0238287D01*
X0139708Y0240271D01*
X0141227Y0241790D01*
X0143212Y0242613D01*
X0145360Y0242613D01*
X0147345Y0241790D01*
X0147723Y0241413D01*
X0150849Y0241413D01*
X0151227Y0241790D01*
X0153212Y0242613D01*
X0155360Y0242613D01*
X0157345Y0241790D01*
X0158864Y0240271D01*
X0159395Y0238988D01*
X0159467Y0239209D01*
X0159839Y0239938D01*
X0160320Y0240600D01*
X0160899Y0241179D01*
X0161561Y0241660D01*
X0162290Y0242032D01*
X0163068Y0242285D01*
X0163786Y0242398D01*
X0163786Y0237713D01*
X0164786Y0237713D01*
X0164786Y0242398D01*
X0165504Y0242285D01*
X0166282Y0242032D01*
X0167011Y0241660D01*
X0167674Y0241179D01*
X0168252Y0240600D01*
X0168734Y0239938D01*
X0169105Y0239209D01*
X0169177Y0238988D01*
X0169708Y0240271D01*
X0171227Y0241790D01*
X0173212Y0242613D01*
X0175360Y0242613D01*
X0177345Y0241790D01*
X0178864Y0240271D01*
X0179286Y0239252D01*
X0179708Y0240271D01*
X0181227Y0241790D01*
X0183212Y0242613D01*
X0185360Y0242613D01*
X0187345Y0241790D01*
X0188864Y0240271D01*
X0189286Y0239252D01*
X0189708Y0240271D01*
X0191227Y0241790D01*
X0193212Y0242613D01*
X0195360Y0242613D01*
X0197345Y0241790D01*
X0198864Y0240271D01*
X0199395Y0238988D01*
X0199467Y0239209D01*
X0199839Y0239938D01*
X0200320Y0240600D01*
X0200899Y0241179D01*
X0201561Y0241660D01*
X0202290Y0242032D01*
X0203068Y0242285D01*
X0203786Y0242398D01*
X0203786Y0237713D01*
X0204786Y0237713D01*
X0204786Y0242398D01*
X0205504Y0242285D01*
X0206282Y0242032D01*
X0207011Y0241660D01*
X0207674Y0241179D01*
X0208252Y0240600D01*
X0208734Y0239938D01*
X0209105Y0239209D01*
X0209177Y0238988D01*
X0209708Y0240271D01*
X0211227Y0241790D01*
X0213212Y0242613D01*
X0215360Y0242613D01*
X0217345Y0241790D01*
X0218864Y0240271D01*
X0219286Y0239252D01*
X0219708Y0240271D01*
X0221227Y0241790D01*
X0223212Y0242613D01*
X0225360Y0242613D01*
X0227345Y0241790D01*
X0228864Y0240271D01*
X0229395Y0238988D01*
X0229467Y0239209D01*
X0229839Y0239938D01*
X0230320Y0240600D01*
X0230899Y0241179D01*
X0231561Y0241660D01*
X0232290Y0242032D01*
X0233068Y0242285D01*
X0233786Y0242398D01*
X0233786Y0237713D01*
X0234786Y0237713D01*
X0234786Y0242398D01*
X0235504Y0242285D01*
X0236282Y0242032D01*
X0237011Y0241660D01*
X0237674Y0241179D01*
X0238252Y0240600D01*
X0238734Y0239938D01*
X0239105Y0239209D01*
X0239177Y0238988D01*
X0239708Y0240271D01*
X0241227Y0241790D01*
X0243212Y0242613D01*
X0245360Y0242613D01*
X0247345Y0241790D01*
X0248864Y0240271D01*
X0249286Y0239252D01*
X0249708Y0240271D01*
X0251227Y0241790D01*
X0253212Y0242613D01*
X0255360Y0242613D01*
X0257345Y0241790D01*
X0258864Y0240271D01*
X0259286Y0239252D01*
X0259708Y0240271D01*
X0261227Y0241790D01*
X0263212Y0242613D01*
X0265360Y0242613D01*
X0267345Y0241790D01*
X0268864Y0240271D01*
X0269286Y0239252D01*
X0269708Y0240271D01*
X0271227Y0241790D01*
X0273212Y0242613D01*
X0275360Y0242613D01*
X0277345Y0241790D01*
X0278864Y0240271D01*
X0279395Y0238988D01*
X0279467Y0239209D01*
X0279839Y0239938D01*
X0280320Y0240600D01*
X0280899Y0241179D01*
X0281561Y0241660D01*
X0282290Y0242032D01*
X0283068Y0242285D01*
X0283786Y0242398D01*
X0283786Y0237713D01*
X0284786Y0237713D01*
X0284786Y0242398D01*
X0285504Y0242285D01*
X0286282Y0242032D01*
X0287011Y0241660D01*
X0287674Y0241179D01*
X0288252Y0240600D01*
X0288734Y0239938D01*
X0289105Y0239209D01*
X0289177Y0238988D01*
X0289708Y0240271D01*
X0291227Y0241790D01*
X0293212Y0242613D01*
X0295360Y0242613D01*
X0297345Y0241790D01*
X0298864Y0240271D01*
X0299395Y0238988D01*
X0299467Y0239209D01*
X0299839Y0239938D01*
X0300320Y0240600D01*
X0300899Y0241179D01*
X0301561Y0241660D01*
X0302290Y0242032D01*
X0303068Y0242285D01*
X0303786Y0242398D01*
X0303786Y0237713D01*
X0304786Y0237713D01*
X0304786Y0242398D01*
X0305504Y0242285D01*
X0306282Y0242032D01*
X0307011Y0241660D01*
X0307674Y0241179D01*
X0308252Y0240600D01*
X0308734Y0239938D01*
X0309105Y0239209D01*
X0309177Y0238988D01*
X0309708Y0240271D01*
X0311227Y0241790D01*
X0313212Y0242613D01*
X0315360Y0242613D01*
X0317345Y0241790D01*
X0318864Y0240271D01*
X0319286Y0239252D01*
X0319708Y0240271D01*
X0321227Y0241790D01*
X0323212Y0242613D01*
X0325360Y0242613D01*
X0327345Y0241790D01*
X0328864Y0240271D01*
X0329286Y0239252D01*
X0329708Y0240271D01*
X0331227Y0241790D01*
X0333212Y0242613D01*
X0335360Y0242613D01*
X0337345Y0241790D01*
X0338864Y0240271D01*
X0339686Y0238287D01*
X0339686Y0236138D01*
X0338864Y0234154D01*
X0337345Y0232635D01*
X0336062Y0232103D01*
X0336282Y0232032D01*
X0337011Y0231660D01*
X0337674Y0231179D01*
X0338252Y0230600D01*
X0338734Y0229938D01*
X0339105Y0229209D01*
X0339358Y0228430D01*
X0339472Y0227713D01*
X0334786Y0227713D01*
X0334786Y0226713D01*
X0339472Y0226713D01*
X0339358Y0225995D01*
X0339105Y0225216D01*
X0338734Y0224487D01*
X0338252Y0223825D01*
X0337674Y0223246D01*
X0337011Y0222765D01*
X0336282Y0222394D01*
X0335504Y0222141D01*
X0334786Y0222027D01*
X0334786Y0226713D01*
X0333786Y0226713D01*
X0333786Y0222027D01*
X0333068Y0222141D01*
X0332290Y0222394D01*
X0331561Y0222765D01*
X0330899Y0223246D01*
X0330320Y0223825D01*
X0329839Y0224487D01*
X0329467Y0225216D01*
X0329395Y0225437D01*
X0328864Y0224154D01*
X0327345Y0222635D01*
X0325360Y0221813D01*
X0323212Y0221813D01*
X0321227Y0222635D01*
X0319708Y0224154D01*
X0319286Y0225173D01*
X0318864Y0224154D01*
X0317345Y0222635D01*
X0315360Y0221813D01*
X0313212Y0221813D01*
X0311227Y0222635D01*
X0309708Y0224154D01*
X0309286Y0225173D01*
X0308864Y0224154D01*
X0307345Y0222635D01*
X0305360Y0221813D01*
X0303212Y0221813D01*
X0301227Y0222635D01*
X0299708Y0224154D01*
X0299286Y0225173D01*
X0298864Y0224154D01*
X0297345Y0222635D01*
X0295360Y0221813D01*
X0293212Y0221813D01*
X0291227Y0222635D01*
X0289708Y0224154D01*
X0289286Y0225173D01*
X0288864Y0224154D01*
X0287345Y0222635D01*
X0285360Y0221813D01*
X0283212Y0221813D01*
X0281227Y0222635D01*
X0279708Y0224154D01*
X0279286Y0225173D01*
X0278864Y0224154D01*
X0277345Y0222635D01*
X0275360Y0221813D01*
X0273212Y0221813D01*
X0271227Y0222635D01*
X0269708Y0224154D01*
X0269177Y0225437D01*
X0269105Y0225216D01*
X0268734Y0224487D01*
X0268252Y0223825D01*
X0267674Y0223246D01*
X0267011Y0222765D01*
X0266282Y0222394D01*
X0265504Y0222141D01*
X0264786Y0222027D01*
X0264786Y0226713D01*
X0263786Y0226713D01*
X0263786Y0222027D01*
X0263068Y0222141D01*
X0262290Y0222394D01*
X0261561Y0222765D01*
X0260899Y0223246D01*
X0260320Y0223825D01*
X0259839Y0224487D01*
X0259467Y0225216D01*
X0259395Y0225437D01*
X0258864Y0224154D01*
X0257345Y0222635D01*
X0255360Y0221813D01*
X0253212Y0221813D01*
X0251227Y0222635D01*
X0249708Y0224154D01*
X0249286Y0225173D01*
X0248864Y0224154D01*
X0247345Y0222635D01*
X0245360Y0221813D01*
X0243212Y0221813D01*
X0241227Y0222635D01*
X0239708Y0224154D01*
X0239286Y0225173D01*
X0238864Y0224154D01*
X0237345Y0222635D01*
X0235360Y0221813D01*
X0233212Y0221813D01*
X0231227Y0222635D01*
X0229708Y0224154D01*
X0229286Y0225173D01*
X0228864Y0224154D01*
X0227345Y0222635D01*
X0226986Y0222486D01*
X0226986Y0203731D01*
X0285133Y0203731D01*
X0285133Y0205788D01*
X0284661Y0205788D01*
X0283665Y0206784D01*
X0283665Y0212523D01*
X0284142Y0213000D01*
X0283665Y0213477D01*
X0283665Y0213547D01*
X0283069Y0213300D01*
X0281597Y0213300D01*
X0280237Y0213863D01*
X0279197Y0214904D01*
X0278633Y0216264D01*
X0278633Y0217736D01*
X0279197Y0219096D01*
X0280237Y0220137D01*
X0281597Y0220700D01*
X0283069Y0220700D01*
X0284429Y0220137D01*
X0284507Y0220059D01*
X0284661Y0220212D01*
X0290006Y0220212D01*
X0291002Y0219216D01*
X0291002Y0218546D01*
X0292633Y0218546D01*
X0292633Y0219704D01*
X0293629Y0220700D01*
X0298037Y0220700D01*
X0299033Y0219704D01*
X0299033Y0212296D01*
X0298037Y0211300D01*
X0293629Y0211300D01*
X0292633Y0212296D01*
X0292633Y0214146D01*
X0291002Y0214146D01*
X0291002Y0213477D01*
X0290525Y0213000D01*
X0291002Y0212523D01*
X0291002Y0206784D01*
X0290006Y0205788D01*
X0289533Y0205788D01*
X0289533Y0203731D01*
X0341976Y0203731D01*
X0341976Y0206854D01*
X0342059Y0206937D01*
X0341976Y0207020D01*
X0341976Y0210791D01*
X0342972Y0211787D01*
X0349695Y0211787D01*
X0350376Y0211105D01*
X0352035Y0211105D01*
X0353324Y0209817D01*
X0354819Y0208322D01*
X0355844Y0208322D01*
X0357112Y0207796D01*
X0358082Y0206826D01*
X0358608Y0205558D01*
X0358608Y0204185D01*
X0358082Y0202917D01*
X0357112Y0201947D01*
X0355844Y0201422D01*
X0355298Y0201422D01*
X0355298Y0200996D01*
X0354773Y0199728D01*
X0353803Y0198758D01*
X0352535Y0198233D01*
X0351162Y0198233D01*
X0350479Y0198515D01*
X0350491Y0198473D01*
X0350491Y0197185D01*
X0346424Y0197185D01*
X0346424Y0197004D01*
X0350491Y0197004D01*
X0350491Y0195716D01*
X0350389Y0195334D01*
X0350191Y0194992D01*
X0349912Y0194713D01*
X0349570Y0194516D01*
X0349188Y0194413D01*
X0346424Y0194413D01*
X0346424Y0197004D01*
X0346243Y0197004D01*
X0346243Y0194413D01*
X0343478Y0194413D01*
X0343097Y0194516D01*
X0342755Y0194713D01*
X0342476Y0194992D01*
X0342278Y0195334D01*
X0342176Y0195716D01*
X0342176Y0197004D01*
X0346243Y0197004D01*
X0346243Y0197185D01*
X0342176Y0197185D01*
X0342176Y0198331D01*
X0339133Y0198331D01*
X0339133Y0171018D01*
X0340417Y0169735D01*
X0341975Y0169735D01*
X0341975Y0172857D01*
X0342059Y0172940D01*
X0341975Y0173023D01*
X0341975Y0176794D01*
X0342971Y0177790D01*
X0349695Y0177790D01*
X0350376Y0177109D01*
X0352183Y0177109D01*
X0354798Y0174494D01*
X0355823Y0174494D01*
X0357091Y0173969D01*
X0358061Y0172998D01*
X0358586Y0171730D01*
X0358586Y0170358D01*
X0358061Y0169090D01*
X0357091Y0168119D01*
X0355823Y0167594D01*
X0355277Y0167594D01*
X0355277Y0167266D01*
X0354752Y0165998D01*
X0353781Y0165027D01*
X0352513Y0164502D01*
X0351141Y0164502D01*
X0350401Y0164808D01*
X0350490Y0164476D01*
X0350490Y0163188D01*
X0346423Y0163188D01*
X0346423Y0163007D01*
X0346423Y0160416D01*
X0349188Y0160416D01*
X0349569Y0160519D01*
X0349911Y0160716D01*
X0350191Y0160995D01*
X0350388Y0161337D01*
X0350490Y0161719D01*
X0350490Y0163007D01*
X0346423Y0163007D01*
X0346242Y0163007D01*
X0342175Y0163007D01*
X0342175Y0161719D01*
X0342278Y0161337D01*
X0342475Y0160995D01*
X0342754Y0160716D01*
X0343096Y0160519D01*
X0343478Y0160416D01*
X0346242Y0160416D01*
X0346242Y0163007D01*
X0346242Y0163188D01*
X0342175Y0163188D01*
X0342175Y0164335D01*
X0338762Y0164335D01*
X0337769Y0164746D01*
X0334144Y0168371D01*
X0333733Y0169363D01*
X0333733Y0198331D01*
X0313406Y0198331D01*
X0314033Y0197704D01*
X0314033Y0190296D01*
X0313037Y0189300D01*
X0308629Y0189300D01*
X0307633Y0190296D01*
X0307633Y0197704D01*
X0308261Y0198331D01*
X0298406Y0198331D01*
X0299033Y0197704D01*
X0299033Y0190296D01*
X0298037Y0189300D01*
X0293629Y0189300D01*
X0292633Y0190296D01*
X0292633Y0197704D01*
X0293261Y0198331D01*
X0267151Y0198331D01*
X0267151Y0186802D01*
X0270274Y0186802D01*
X0270357Y0186719D01*
X0270440Y0186802D01*
X0273536Y0186802D01*
X0273381Y0186957D01*
X0273381Y0196240D01*
X0274377Y0197235D01*
X0280510Y0197235D01*
X0281506Y0196240D01*
X0281506Y0186957D01*
X0280510Y0185961D01*
X0275052Y0185961D01*
X0275207Y0185807D01*
X0275207Y0178296D01*
X0274525Y0177615D01*
X0274525Y0162833D01*
X0275362Y0161996D01*
X0275925Y0160636D01*
X0275925Y0159164D01*
X0275362Y0157804D01*
X0274321Y0156763D01*
X0272961Y0156200D01*
X0271489Y0156200D01*
X0270130Y0156763D01*
X0269089Y0157804D01*
X0268525Y0159164D01*
X0268525Y0160636D01*
X0269089Y0161996D01*
X0270125Y0163033D01*
X0270125Y0172715D01*
X0269124Y0172300D01*
X0267652Y0172300D01*
X0266293Y0172863D01*
X0265252Y0173904D01*
X0264688Y0175264D01*
X0264688Y0176736D01*
X0264922Y0177300D01*
X0262566Y0177300D01*
X0262266Y0177600D01*
X0261893Y0177500D01*
X0260605Y0177500D01*
X0260605Y0181961D01*
X0260424Y0181961D01*
X0257833Y0181961D01*
X0257833Y0178803D01*
X0257936Y0178421D01*
X0258133Y0178079D01*
X0258412Y0177800D01*
X0258754Y0177602D01*
X0259136Y0177500D01*
X0260424Y0177500D01*
X0260424Y0181961D01*
X0260424Y0182142D01*
X0260424Y0186602D01*
X0259136Y0186602D01*
X0259092Y0186591D01*
X0259459Y0186957D01*
X0259459Y0196240D01*
X0258463Y0197235D01*
X0252330Y0197235D01*
X0251334Y0196240D01*
X0251334Y0186957D01*
X0252330Y0185961D01*
X0258097Y0185961D01*
X0257936Y0185681D01*
X0257833Y0185300D01*
X0257833Y0182142D01*
X0260424Y0182142D01*
X0260605Y0182142D01*
X0260605Y0186602D01*
X0261751Y0186602D01*
X0261751Y0198331D01*
X0214151Y0198331D01*
X0214151Y0186802D01*
X0217274Y0186802D01*
X0217357Y0186719D01*
X0217440Y0186802D01*
X0220536Y0186802D01*
X0220381Y0186957D01*
X0220381Y0196240D01*
X0221377Y0197235D01*
X0227510Y0197235D01*
X0228506Y0196240D01*
X0228506Y0186957D01*
X0227510Y0185961D01*
X0222052Y0185961D01*
X0222207Y0185807D01*
X0222207Y0178296D01*
X0221525Y0177615D01*
X0221525Y0162940D01*
X0222470Y0161996D01*
X0223033Y0160636D01*
X0223033Y0159164D01*
X0222470Y0157804D01*
X0221429Y0156763D01*
X0220069Y0156200D01*
X0218597Y0156200D01*
X0217237Y0156763D01*
X0216197Y0157804D01*
X0215633Y0159164D01*
X0215633Y0160636D01*
X0216197Y0161996D01*
X0217125Y0162925D01*
X0217125Y0172715D01*
X0216124Y0172300D01*
X0214652Y0172300D01*
X0213293Y0172863D01*
X0212252Y0173904D01*
X0211688Y0175264D01*
X0211688Y0176736D01*
X0211922Y0177300D01*
X0209566Y0177300D01*
X0209266Y0177600D01*
X0208893Y0177500D01*
X0207605Y0177500D01*
X0207605Y0181961D01*
X0207424Y0181961D01*
X0204833Y0181961D01*
X0204833Y0178803D01*
X0204936Y0178421D01*
X0205133Y0178079D01*
X0205412Y0177800D01*
X0205754Y0177602D01*
X0206136Y0177500D01*
X0207424Y0177500D01*
X0207424Y0181961D01*
X0207424Y0182142D01*
X0207424Y0186602D01*
X0206136Y0186602D01*
X0206092Y0186591D01*
X0206459Y0186957D01*
X0206459Y0196240D01*
X0205463Y0197235D01*
X0199330Y0197235D01*
X0198334Y0196240D01*
X0198334Y0186957D01*
X0199330Y0185961D01*
X0205097Y0185961D01*
X0204936Y0185681D01*
X0204833Y0185300D01*
X0204833Y0182142D01*
X0207424Y0182142D01*
X0207605Y0182142D01*
X0207605Y0186602D01*
X0208751Y0186602D01*
X0208751Y0198331D01*
X0178826Y0198331D01*
X0166026Y0185531D01*
X0166026Y0185093D01*
X0169280Y0185093D01*
X0170276Y0184097D01*
X0170276Y0177689D01*
X0169280Y0176693D01*
X0168903Y0176693D01*
X0168903Y0176508D01*
X0169376Y0176508D01*
X0170372Y0175512D01*
X0170372Y0175345D01*
X0170936Y0175578D01*
X0172408Y0175578D01*
X0173768Y0175015D01*
X0174809Y0173974D01*
X0175372Y0172614D01*
X0175372Y0171142D01*
X0174809Y0169782D01*
X0173872Y0168846D01*
X0173872Y0166894D01*
X0174770Y0165996D01*
X0175333Y0164636D01*
X0175333Y0163164D01*
X0174770Y0161804D01*
X0173729Y0160763D01*
X0172369Y0160200D01*
X0170897Y0160200D01*
X0169537Y0160763D01*
X0168497Y0161804D01*
X0168381Y0162084D01*
X0164031Y0162084D01*
X0163046Y0163069D01*
X0163046Y0162880D01*
X0162050Y0161884D01*
X0156705Y0161884D01*
X0155709Y0162880D01*
X0155709Y0163550D01*
X0155372Y0163550D01*
X0155022Y0163900D01*
X0153697Y0163900D01*
X0152337Y0164463D01*
X0151297Y0165504D01*
X0150733Y0166864D01*
X0150733Y0168336D01*
X0151297Y0169696D01*
X0152337Y0170737D01*
X0153697Y0171300D01*
X0155169Y0171300D01*
X0155709Y0171076D01*
X0155709Y0175312D01*
X0156705Y0176308D01*
X0157126Y0176308D01*
X0157126Y0176939D01*
X0156376Y0177689D01*
X0156376Y0184097D01*
X0157372Y0185093D01*
X0160626Y0185093D01*
X0160626Y0187187D01*
X0161037Y0188179D01*
X0161797Y0188939D01*
X0176179Y0203320D01*
X0177171Y0203731D01*
X0221586Y0203731D01*
X0221586Y0222486D01*
X0221227Y0222635D01*
X0219708Y0224154D01*
X0219286Y0225173D01*
X0218864Y0224154D01*
X0217345Y0222635D01*
X0215360Y0221813D01*
X0213212Y0221813D01*
X0211227Y0222635D01*
X0209708Y0224154D01*
X0209286Y0225173D01*
X0208864Y0224154D01*
X0207345Y0222635D01*
X0205360Y0221813D01*
X0203212Y0221813D01*
X0201227Y0222635D01*
X0199708Y0224154D01*
X0199286Y0225173D01*
X0198864Y0224154D01*
X0197345Y0222635D01*
X0195360Y0221813D01*
X0193212Y0221813D01*
X0191227Y0222635D01*
X0189708Y0224154D01*
X0189177Y0225437D01*
X0189105Y0225216D01*
X0188734Y0224487D01*
X0188252Y0223825D01*
X0187674Y0223246D01*
X0187011Y0222765D01*
X0186282Y0222394D01*
X0185504Y0222141D01*
X0184786Y0222027D01*
X0184786Y0226713D01*
X0183786Y0226713D01*
X0183786Y0222027D01*
X0183068Y0222141D01*
X0182290Y0222394D01*
X0181561Y0222765D01*
X0180899Y0223246D01*
X0180320Y0223825D01*
X0179839Y0224487D01*
X0179467Y0225216D01*
X0179395Y0225437D01*
X0178864Y0224154D01*
X0177345Y0222635D01*
X0175360Y0221813D01*
X0173212Y0221813D01*
X0171227Y0222635D01*
X0169708Y0224154D01*
X0169286Y0225173D01*
X0168864Y0224154D01*
X0167345Y0222635D01*
X0165360Y0221813D01*
X0163212Y0221813D01*
X0161227Y0222635D01*
X0159708Y0224154D01*
X0159286Y0225173D01*
X0158864Y0224154D01*
X0157345Y0222635D01*
X0155360Y0221813D01*
X0153212Y0221813D01*
X0151227Y0222635D01*
X0149708Y0224154D01*
X0149286Y0225173D01*
X0148864Y0224154D01*
X0147345Y0222635D01*
X0145360Y0221813D01*
X0143212Y0221813D01*
X0141414Y0222557D01*
X0141414Y0214700D01*
X0150037Y0214700D01*
X0151033Y0213704D01*
X0151033Y0204296D01*
X0150037Y0203300D01*
X0140629Y0203300D01*
X0139633Y0204296D01*
X0139633Y0206300D01*
X0132033Y0206300D01*
X0132033Y0204296D01*
X0131037Y0203300D01*
X0121629Y0203300D01*
X0120633Y0204296D01*
X0120633Y0213704D01*
X0121629Y0214700D01*
X0131037Y0214700D01*
X0132033Y0213704D01*
X0132033Y0211700D01*
X0136014Y0211700D01*
X0136014Y0223290D01*
X0133771Y0221047D01*
X0130556Y0219190D01*
X0126969Y0218229D01*
X0123256Y0218229D01*
X0119670Y0219190D01*
X0116454Y0221047D01*
X0113829Y0223672D01*
X0113433Y0224357D01*
X0113433Y0149753D01*
X0113829Y0150438D01*
X0116454Y0153064D01*
X0119670Y0154920D01*
X0123256Y0155881D01*
X0126969Y0155881D01*
X0130556Y0154920D01*
X0133771Y0153064D01*
X0136397Y0150438D01*
X0138253Y0147223D01*
X0139214Y0143636D01*
X0139214Y0139923D01*
X0138253Y0136337D01*
X0136397Y0133121D01*
X0133771Y0130495D01*
X0134271Y0130996D02*
X0196190Y0130996D01*
X0195192Y0131994D02*
X0135270Y0131994D01*
X0136269Y0132993D02*
X0194193Y0132993D01*
X0193563Y0133991D02*
X0136899Y0133991D01*
X0137476Y0134990D02*
X0192986Y0134990D01*
X0192410Y0135988D02*
X0138052Y0135988D01*
X0138428Y0136987D02*
X0192034Y0136987D01*
X0191767Y0137985D02*
X0138695Y0137985D01*
X0138963Y0138984D02*
X0191499Y0138984D01*
X0191248Y0139982D02*
X0139214Y0139982D01*
X0139214Y0140981D02*
X0191248Y0140981D01*
X0191248Y0141979D02*
X0139214Y0141979D01*
X0139214Y0142978D02*
X0191248Y0142978D01*
X0191339Y0143976D02*
X0139123Y0143976D01*
X0138856Y0144975D02*
X0191606Y0144975D01*
X0191874Y0145973D02*
X0138588Y0145973D01*
X0138321Y0146972D02*
X0192141Y0146972D01*
X0192640Y0147970D02*
X0137822Y0147970D01*
X0137245Y0148969D02*
X0193217Y0148969D01*
X0193793Y0149967D02*
X0136669Y0149967D01*
X0135869Y0150966D02*
X0194593Y0150966D01*
X0195591Y0151964D02*
X0134871Y0151964D01*
X0133872Y0152963D02*
X0196590Y0152963D01*
X0198245Y0153961D02*
X0132217Y0153961D01*
X0130408Y0154960D02*
X0200054Y0154960D01*
X0210644Y0154960D02*
X0268351Y0154960D01*
X0266463Y0153961D02*
X0212453Y0153961D01*
X0214108Y0152963D02*
X0264779Y0152963D01*
X0263780Y0151964D02*
X0215107Y0151964D01*
X0216105Y0150966D02*
X0262782Y0150966D01*
X0261966Y0149967D02*
X0216905Y0149967D01*
X0217481Y0148969D02*
X0261389Y0148969D01*
X0260813Y0147970D02*
X0218058Y0147970D01*
X0218557Y0146972D02*
X0260301Y0146972D01*
X0260034Y0145973D02*
X0218824Y0145973D01*
X0219092Y0144975D02*
X0259766Y0144975D01*
X0259499Y0143976D02*
X0219359Y0143976D01*
X0219451Y0142978D02*
X0259397Y0142978D01*
X0259397Y0141979D02*
X0219451Y0141979D01*
X0219451Y0140981D02*
X0259397Y0140981D01*
X0259397Y0139982D02*
X0219451Y0139982D01*
X0219199Y0138984D02*
X0259638Y0138984D01*
X0259906Y0137985D02*
X0218931Y0137985D01*
X0218664Y0136987D02*
X0260173Y0136987D01*
X0260537Y0135988D02*
X0218288Y0135988D01*
X0217712Y0134990D02*
X0261113Y0134990D01*
X0261690Y0133991D02*
X0217135Y0133991D01*
X0216505Y0132993D02*
X0262304Y0132993D01*
X0263302Y0131994D02*
X0215506Y0131994D01*
X0214508Y0130996D02*
X0264301Y0130996D01*
X0282697Y0130996D02*
X0334034Y0130996D01*
X0333561Y0131994D02*
X0283695Y0131994D01*
X0284694Y0132993D02*
X0333373Y0132993D01*
X0333409Y0133991D02*
X0285308Y0133991D01*
X0285884Y0134990D02*
X0333823Y0134990D01*
X0334666Y0135988D02*
X0286461Y0135988D01*
X0286824Y0136987D02*
X0340145Y0136987D01*
X0339877Y0137985D02*
X0287092Y0137985D01*
X0287359Y0138984D02*
X0339609Y0138984D01*
X0339358Y0139982D02*
X0287600Y0139982D01*
X0287600Y0140981D02*
X0339358Y0140981D01*
X0339358Y0141979D02*
X0287600Y0141979D01*
X0287600Y0142978D02*
X0339358Y0142978D01*
X0339449Y0143976D02*
X0287499Y0143976D01*
X0287231Y0144975D02*
X0339716Y0144975D01*
X0339984Y0145973D02*
X0286963Y0145973D01*
X0286696Y0146972D02*
X0340252Y0146972D01*
X0340750Y0147970D02*
X0286185Y0147970D01*
X0285608Y0148969D02*
X0341327Y0148969D01*
X0341903Y0149967D02*
X0285032Y0149967D01*
X0284216Y0150966D02*
X0342703Y0150966D01*
X0343701Y0151964D02*
X0283217Y0151964D01*
X0282219Y0152963D02*
X0344700Y0152963D01*
X0346356Y0153961D02*
X0280534Y0153961D01*
X0278647Y0154960D02*
X0348165Y0154960D01*
X0346423Y0160951D02*
X0346242Y0160951D01*
X0346242Y0161949D02*
X0346423Y0161949D01*
X0346423Y0162948D02*
X0346242Y0162948D01*
X0342175Y0162948D02*
X0274525Y0162948D01*
X0274525Y0163946D02*
X0342175Y0163946D01*
X0342175Y0161949D02*
X0275381Y0161949D01*
X0275795Y0160951D02*
X0342520Y0160951D01*
X0337570Y0164945D02*
X0274525Y0164945D01*
X0274525Y0165943D02*
X0336572Y0165943D01*
X0335573Y0166942D02*
X0274525Y0166942D01*
X0274525Y0167940D02*
X0334574Y0167940D01*
X0333909Y0168939D02*
X0274525Y0168939D01*
X0274525Y0169937D02*
X0333733Y0169937D01*
X0333733Y0170936D02*
X0274525Y0170936D01*
X0274525Y0171934D02*
X0333733Y0171934D01*
X0333733Y0172933D02*
X0274525Y0172933D01*
X0274525Y0173932D02*
X0333733Y0173932D01*
X0333733Y0174930D02*
X0274525Y0174930D01*
X0274525Y0175929D02*
X0333733Y0175929D01*
X0333733Y0176927D02*
X0274525Y0176927D01*
X0274836Y0177926D02*
X0333733Y0177926D01*
X0333733Y0178924D02*
X0275207Y0178924D01*
X0275207Y0179923D02*
X0333733Y0179923D01*
X0333733Y0180921D02*
X0275207Y0180921D01*
X0275207Y0181920D02*
X0333733Y0181920D01*
X0333733Y0182918D02*
X0275207Y0182918D01*
X0275207Y0183917D02*
X0333733Y0183917D01*
X0333733Y0184915D02*
X0275207Y0184915D01*
X0275099Y0185914D02*
X0333733Y0185914D01*
X0333733Y0186912D02*
X0281461Y0186912D01*
X0281506Y0187911D02*
X0333733Y0187911D01*
X0333733Y0188909D02*
X0281506Y0188909D01*
X0281506Y0189908D02*
X0293021Y0189908D01*
X0292633Y0190906D02*
X0281506Y0190906D01*
X0281506Y0191905D02*
X0292633Y0191905D01*
X0292633Y0192903D02*
X0281506Y0192903D01*
X0281506Y0193902D02*
X0292633Y0193902D01*
X0292633Y0194900D02*
X0281506Y0194900D01*
X0281506Y0195899D02*
X0292633Y0195899D01*
X0292633Y0196897D02*
X0280848Y0196897D01*
X0274039Y0196897D02*
X0267151Y0196897D01*
X0267151Y0195899D02*
X0273381Y0195899D01*
X0273381Y0194900D02*
X0267151Y0194900D01*
X0267151Y0193902D02*
X0273381Y0193902D01*
X0273381Y0192903D02*
X0267151Y0192903D01*
X0267151Y0191905D02*
X0273381Y0191905D01*
X0273381Y0190906D02*
X0267151Y0190906D01*
X0267151Y0189908D02*
X0273381Y0189908D01*
X0273381Y0188909D02*
X0267151Y0188909D01*
X0267151Y0187911D02*
X0273381Y0187911D01*
X0273426Y0186912D02*
X0267151Y0186912D01*
X0268388Y0182051D02*
X0268388Y0176000D01*
X0264688Y0175929D02*
X0221525Y0175929D01*
X0221525Y0176927D02*
X0264768Y0176927D01*
X0264827Y0174930D02*
X0221525Y0174930D01*
X0221525Y0173932D02*
X0265240Y0173932D01*
X0266223Y0172933D02*
X0221525Y0172933D01*
X0221525Y0171934D02*
X0270125Y0171934D01*
X0270125Y0170936D02*
X0221525Y0170936D01*
X0221525Y0169937D02*
X0270125Y0169937D01*
X0270125Y0168939D02*
X0221525Y0168939D01*
X0221525Y0167940D02*
X0270125Y0167940D01*
X0270125Y0166942D02*
X0221525Y0166942D01*
X0221525Y0165943D02*
X0270125Y0165943D01*
X0270125Y0164945D02*
X0221525Y0164945D01*
X0221525Y0163946D02*
X0270125Y0163946D01*
X0270041Y0162948D02*
X0221525Y0162948D01*
X0222489Y0161949D02*
X0269069Y0161949D01*
X0268656Y0160951D02*
X0222903Y0160951D01*
X0223033Y0159952D02*
X0268525Y0159952D01*
X0268613Y0158954D02*
X0222946Y0158954D01*
X0222533Y0157955D02*
X0269026Y0157955D01*
X0269936Y0156957D02*
X0221623Y0156957D01*
X0219333Y0159900D02*
X0219325Y0159908D01*
X0219325Y0182051D01*
X0222207Y0181920D02*
X0257833Y0181920D01*
X0257833Y0182918D02*
X0222207Y0182918D01*
X0222207Y0183917D02*
X0257833Y0183917D01*
X0257833Y0184915D02*
X0222207Y0184915D01*
X0222099Y0185914D02*
X0258070Y0185914D01*
X0259413Y0186912D02*
X0261751Y0186912D01*
X0261751Y0187911D02*
X0259459Y0187911D01*
X0259459Y0188909D02*
X0261751Y0188909D01*
X0261751Y0189908D02*
X0259459Y0189908D01*
X0259459Y0190906D02*
X0261751Y0190906D01*
X0261751Y0191905D02*
X0259459Y0191905D01*
X0259459Y0192903D02*
X0261751Y0192903D01*
X0261751Y0193902D02*
X0259459Y0193902D01*
X0259459Y0194900D02*
X0261751Y0194900D01*
X0261751Y0195899D02*
X0259459Y0195899D01*
X0258801Y0196897D02*
X0261751Y0196897D01*
X0261751Y0197896D02*
X0214151Y0197896D01*
X0214151Y0196897D02*
X0221039Y0196897D01*
X0220381Y0195899D02*
X0214151Y0195899D01*
X0214151Y0194900D02*
X0220381Y0194900D01*
X0220381Y0193902D02*
X0214151Y0193902D01*
X0214151Y0192903D02*
X0220381Y0192903D01*
X0220381Y0191905D02*
X0214151Y0191905D01*
X0214151Y0190906D02*
X0220381Y0190906D01*
X0220381Y0189908D02*
X0214151Y0189908D01*
X0214151Y0188909D02*
X0220381Y0188909D01*
X0220381Y0187911D02*
X0214151Y0187911D01*
X0214151Y0186912D02*
X0220426Y0186912D01*
X0222207Y0180921D02*
X0257833Y0180921D01*
X0257833Y0179923D02*
X0222207Y0179923D01*
X0222207Y0178924D02*
X0257833Y0178924D01*
X0258286Y0177926D02*
X0221836Y0177926D01*
X0215388Y0176000D02*
X0215388Y0182051D01*
X0211768Y0176927D02*
X0169515Y0176927D01*
X0169955Y0175929D02*
X0211688Y0175929D01*
X0211827Y0174930D02*
X0173853Y0174930D01*
X0174826Y0173932D02*
X0212240Y0173932D01*
X0213223Y0172933D02*
X0175240Y0172933D01*
X0175372Y0171934D02*
X0217125Y0171934D01*
X0217125Y0170936D02*
X0175286Y0170936D01*
X0174873Y0169937D02*
X0217125Y0169937D01*
X0217125Y0168939D02*
X0173965Y0168939D01*
X0173872Y0167940D02*
X0217125Y0167940D01*
X0217125Y0166942D02*
X0173872Y0166942D01*
X0174792Y0165943D02*
X0217125Y0165943D01*
X0217125Y0164945D02*
X0175205Y0164945D01*
X0175333Y0163946D02*
X0217125Y0163946D01*
X0217125Y0162948D02*
X0175244Y0162948D01*
X0174830Y0161949D02*
X0216177Y0161949D01*
X0215764Y0160951D02*
X0173917Y0160951D01*
X0171633Y0163900D02*
X0171672Y0163939D01*
X0171672Y0166000D01*
X0171622Y0165950D01*
X0166703Y0165950D01*
X0168436Y0161949D02*
X0162115Y0161949D01*
X0163046Y0162948D02*
X0163167Y0162948D01*
X0159377Y0165750D02*
X0156284Y0165750D01*
X0154433Y0167600D01*
X0151856Y0164945D02*
X0113433Y0164945D01*
X0113433Y0165943D02*
X0151115Y0165943D01*
X0150733Y0166942D02*
X0113433Y0166942D01*
X0113433Y0167940D02*
X0150733Y0167940D01*
X0150983Y0168939D02*
X0113433Y0168939D01*
X0113433Y0169937D02*
X0151538Y0169937D01*
X0152819Y0170936D02*
X0113433Y0170936D01*
X0113433Y0171934D02*
X0155709Y0171934D01*
X0155709Y0172933D02*
X0113433Y0172933D01*
X0113433Y0173932D02*
X0155709Y0173932D01*
X0155709Y0174930D02*
X0113433Y0174930D01*
X0113433Y0175929D02*
X0156325Y0175929D01*
X0157126Y0176927D02*
X0113433Y0176927D01*
X0113433Y0177926D02*
X0156376Y0177926D01*
X0156376Y0178924D02*
X0113433Y0178924D01*
X0113433Y0179923D02*
X0156376Y0179923D01*
X0156376Y0180921D02*
X0113433Y0180921D01*
X0113433Y0181920D02*
X0156376Y0181920D01*
X0156376Y0182918D02*
X0113433Y0182918D01*
X0113433Y0183917D02*
X0156376Y0183917D01*
X0157194Y0184915D02*
X0113433Y0184915D01*
X0113433Y0185914D02*
X0160626Y0185914D01*
X0160626Y0186912D02*
X0113433Y0186912D01*
X0113433Y0187911D02*
X0160926Y0187911D01*
X0161767Y0188909D02*
X0113433Y0188909D01*
X0113433Y0189908D02*
X0124886Y0189908D01*
X0125045Y0189856D02*
X0124222Y0190123D01*
X0123451Y0190516D01*
X0122750Y0191025D01*
X0122138Y0191637D01*
X0121629Y0192338D01*
X0121236Y0193109D01*
X0120969Y0193933D01*
X0120844Y0194720D01*
X0125833Y0194720D01*
X0126833Y0194720D01*
X0126833Y0189731D01*
X0127621Y0189856D01*
X0128445Y0190123D01*
X0129216Y0190516D01*
X0129916Y0191025D01*
X0130528Y0191637D01*
X0131037Y0192338D01*
X0131430Y0193109D01*
X0131698Y0193933D01*
X0131823Y0194720D01*
X0126833Y0194720D01*
X0126833Y0195720D01*
X0131823Y0195720D01*
X0131698Y0196508D01*
X0131430Y0197332D01*
X0131037Y0198103D01*
X0130528Y0198803D01*
X0129916Y0199416D01*
X0129216Y0199924D01*
X0128445Y0200318D01*
X0127621Y0200585D01*
X0126833Y0200710D01*
X0126833Y0195721D01*
X0125833Y0195721D01*
X0125833Y0200710D01*
X0125045Y0200585D01*
X0124222Y0200318D01*
X0123451Y0199924D01*
X0122750Y0199416D01*
X0122138Y0198803D01*
X0121629Y0198103D01*
X0121236Y0197332D01*
X0120969Y0196508D01*
X0120844Y0195720D01*
X0125833Y0195720D01*
X0125833Y0194720D01*
X0125833Y0189731D01*
X0125045Y0189856D01*
X0125833Y0189908D02*
X0126833Y0189908D01*
X0127781Y0189908D02*
X0143886Y0189908D01*
X0144045Y0189856D02*
X0143222Y0190123D01*
X0142451Y0190516D01*
X0141750Y0191025D01*
X0141138Y0191637D01*
X0140629Y0192338D01*
X0140236Y0193109D01*
X0139969Y0193933D01*
X0139844Y0194720D01*
X0144833Y0194720D01*
X0145833Y0194720D01*
X0145833Y0189731D01*
X0146621Y0189856D01*
X0147445Y0190123D01*
X0148216Y0190516D01*
X0148916Y0191025D01*
X0149528Y0191637D01*
X0150037Y0192338D01*
X0150430Y0193109D01*
X0150698Y0193933D01*
X0150823Y0194720D01*
X0145833Y0194720D01*
X0145833Y0195720D01*
X0150823Y0195720D01*
X0150698Y0196508D01*
X0150430Y0197332D01*
X0150037Y0198103D01*
X0149528Y0198803D01*
X0148916Y0199416D01*
X0148216Y0199924D01*
X0147445Y0200318D01*
X0146621Y0200585D01*
X0145833Y0200710D01*
X0145833Y0195721D01*
X0144833Y0195721D01*
X0144833Y0200710D01*
X0144045Y0200585D01*
X0143222Y0200318D01*
X0142451Y0199924D01*
X0141750Y0199416D01*
X0141138Y0198803D01*
X0140629Y0198103D01*
X0140236Y0197332D01*
X0139969Y0196508D01*
X0139844Y0195720D01*
X0144833Y0195720D01*
X0144833Y0194720D01*
X0144833Y0189731D01*
X0144045Y0189856D01*
X0144833Y0189908D02*
X0145833Y0189908D01*
X0146781Y0189908D02*
X0162766Y0189908D01*
X0163764Y0190906D02*
X0148752Y0190906D01*
X0149723Y0191905D02*
X0164763Y0191905D01*
X0165761Y0192903D02*
X0150325Y0192903D01*
X0150688Y0193902D02*
X0166760Y0193902D01*
X0167758Y0194900D02*
X0145833Y0194900D01*
X0145833Y0193902D02*
X0144833Y0193902D01*
X0144833Y0194900D02*
X0126833Y0194900D01*
X0126833Y0193902D02*
X0125833Y0193902D01*
X0125833Y0194900D02*
X0113433Y0194900D01*
X0113433Y0193902D02*
X0120979Y0193902D01*
X0121341Y0192903D02*
X0113433Y0192903D01*
X0113433Y0191905D02*
X0121944Y0191905D01*
X0122914Y0190906D02*
X0113433Y0190906D01*
X0113433Y0195899D02*
X0120872Y0195899D01*
X0121095Y0196897D02*
X0113433Y0196897D01*
X0113433Y0197896D02*
X0121524Y0197896D01*
X0122229Y0198894D02*
X0113433Y0198894D01*
X0113433Y0199893D02*
X0123407Y0199893D01*
X0125833Y0199893D02*
X0126833Y0199893D01*
X0126833Y0198894D02*
X0125833Y0198894D01*
X0125833Y0197896D02*
X0126833Y0197896D01*
X0126833Y0196897D02*
X0125833Y0196897D01*
X0125833Y0195899D02*
X0126833Y0195899D01*
X0126833Y0192903D02*
X0125833Y0192903D01*
X0125833Y0191905D02*
X0126833Y0191905D01*
X0126833Y0190906D02*
X0125833Y0190906D01*
X0129752Y0190906D02*
X0141914Y0190906D01*
X0140944Y0191905D02*
X0130723Y0191905D01*
X0131325Y0192903D02*
X0140341Y0192903D01*
X0139979Y0193902D02*
X0131688Y0193902D01*
X0131794Y0195899D02*
X0139872Y0195899D01*
X0140095Y0196897D02*
X0131572Y0196897D01*
X0131143Y0197896D02*
X0140524Y0197896D01*
X0141229Y0198894D02*
X0130438Y0198894D01*
X0129260Y0199893D02*
X0142407Y0199893D01*
X0144833Y0199893D02*
X0145833Y0199893D01*
X0145833Y0198894D02*
X0144833Y0198894D01*
X0144833Y0197896D02*
X0145833Y0197896D01*
X0145833Y0196897D02*
X0144833Y0196897D01*
X0144833Y0195899D02*
X0145833Y0195899D01*
X0145833Y0192903D02*
X0144833Y0192903D01*
X0144833Y0191905D02*
X0145833Y0191905D01*
X0145833Y0190906D02*
X0144833Y0190906D01*
X0150794Y0195899D02*
X0168757Y0195899D01*
X0169755Y0196897D02*
X0150572Y0196897D01*
X0150143Y0197896D02*
X0170754Y0197896D01*
X0171752Y0198894D02*
X0149438Y0198894D01*
X0148260Y0199893D02*
X0172751Y0199893D01*
X0173749Y0200891D02*
X0113433Y0200891D01*
X0113433Y0201890D02*
X0174748Y0201890D01*
X0175746Y0202888D02*
X0113433Y0202888D01*
X0113433Y0203887D02*
X0121042Y0203887D01*
X0120633Y0204885D02*
X0113433Y0204885D01*
X0113433Y0205884D02*
X0120633Y0205884D01*
X0120633Y0206882D02*
X0113433Y0206882D01*
X0113433Y0207881D02*
X0120633Y0207881D01*
X0120633Y0208879D02*
X0113433Y0208879D01*
X0113433Y0209878D02*
X0120633Y0209878D01*
X0120633Y0210876D02*
X0113433Y0210876D01*
X0113433Y0211875D02*
X0120633Y0211875D01*
X0120633Y0212873D02*
X0113433Y0212873D01*
X0113433Y0213872D02*
X0120801Y0213872D01*
X0120885Y0218865D02*
X0113433Y0218865D01*
X0113433Y0219863D02*
X0118504Y0219863D01*
X0116775Y0220862D02*
X0113433Y0220862D01*
X0113433Y0221860D02*
X0115641Y0221860D01*
X0114642Y0222859D02*
X0113433Y0222859D01*
X0113433Y0223857D02*
X0113722Y0223857D01*
X0113433Y0217866D02*
X0136014Y0217866D01*
X0136014Y0216868D02*
X0113433Y0216868D01*
X0113433Y0215869D02*
X0136014Y0215869D01*
X0136014Y0214870D02*
X0113433Y0214870D01*
X0129341Y0218865D02*
X0136014Y0218865D01*
X0136014Y0219863D02*
X0131721Y0219863D01*
X0133451Y0220862D02*
X0136014Y0220862D01*
X0136014Y0221860D02*
X0134585Y0221860D01*
X0135583Y0222859D02*
X0136014Y0222859D01*
X0141414Y0221860D02*
X0143097Y0221860D01*
X0141414Y0220862D02*
X0221586Y0220862D01*
X0221586Y0221860D02*
X0215475Y0221860D01*
X0217569Y0222859D02*
X0221003Y0222859D01*
X0220005Y0223857D02*
X0218567Y0223857D01*
X0219155Y0224856D02*
X0219417Y0224856D01*
X0226986Y0221860D02*
X0233097Y0221860D01*
X0231003Y0222859D02*
X0227569Y0222859D01*
X0228567Y0223857D02*
X0230005Y0223857D01*
X0229417Y0224856D02*
X0229155Y0224856D01*
X0226986Y0220862D02*
X0345121Y0220862D01*
X0343987Y0221860D02*
X0325475Y0221860D01*
X0327569Y0222859D02*
X0331432Y0222859D01*
X0330296Y0223857D02*
X0328567Y0223857D01*
X0329155Y0224856D02*
X0329651Y0224856D01*
X0333786Y0224856D02*
X0334786Y0224856D01*
X0334786Y0225854D02*
X0333786Y0225854D01*
X0334786Y0226853D02*
X0340339Y0226853D01*
X0340061Y0227851D02*
X0339450Y0227851D01*
X0339222Y0228850D02*
X0339793Y0228850D01*
X0339525Y0229848D02*
X0338779Y0229848D01*
X0339358Y0230847D02*
X0338006Y0230847D01*
X0339358Y0231845D02*
X0336648Y0231845D01*
X0337554Y0232844D02*
X0339358Y0232844D01*
X0339358Y0233842D02*
X0338552Y0233842D01*
X0339149Y0234841D02*
X0339533Y0234841D01*
X0339562Y0235839D02*
X0339800Y0235839D01*
X0339686Y0236838D02*
X0340068Y0236838D01*
X0340355Y0237836D02*
X0339686Y0237836D01*
X0339459Y0238835D02*
X0340931Y0238835D01*
X0341508Y0239833D02*
X0339045Y0239833D01*
X0338304Y0240832D02*
X0342084Y0240832D01*
X0343016Y0241830D02*
X0337249Y0241830D01*
X0331323Y0241830D02*
X0327249Y0241830D01*
X0328304Y0240832D02*
X0330269Y0240832D01*
X0329527Y0239833D02*
X0329045Y0239833D01*
X0321323Y0241830D02*
X0317249Y0241830D01*
X0318304Y0240832D02*
X0320269Y0240832D01*
X0319527Y0239833D02*
X0319045Y0239833D01*
X0311323Y0241830D02*
X0306677Y0241830D01*
X0308021Y0240832D02*
X0310269Y0240832D01*
X0309527Y0239833D02*
X0308787Y0239833D01*
X0304786Y0239833D02*
X0303786Y0239833D01*
X0303786Y0238835D02*
X0304786Y0238835D01*
X0304786Y0237836D02*
X0303786Y0237836D01*
X0303786Y0240832D02*
X0304786Y0240832D01*
X0304786Y0241830D02*
X0303786Y0241830D01*
X0301895Y0241830D02*
X0297249Y0241830D01*
X0298304Y0240832D02*
X0300551Y0240832D01*
X0299785Y0239833D02*
X0299045Y0239833D01*
X0291323Y0241830D02*
X0286677Y0241830D01*
X0288021Y0240832D02*
X0290269Y0240832D01*
X0289527Y0239833D02*
X0288787Y0239833D01*
X0284786Y0239833D02*
X0283786Y0239833D01*
X0283786Y0238835D02*
X0284786Y0238835D01*
X0284786Y0237836D02*
X0283786Y0237836D01*
X0283786Y0240832D02*
X0284786Y0240832D01*
X0284786Y0241830D02*
X0283786Y0241830D01*
X0281895Y0241830D02*
X0277249Y0241830D01*
X0278304Y0240832D02*
X0280551Y0240832D01*
X0279785Y0239833D02*
X0279045Y0239833D01*
X0271323Y0241830D02*
X0267249Y0241830D01*
X0268304Y0240832D02*
X0270269Y0240832D01*
X0269527Y0239833D02*
X0269045Y0239833D01*
X0261323Y0241830D02*
X0257249Y0241830D01*
X0258304Y0240832D02*
X0260269Y0240832D01*
X0259527Y0239833D02*
X0259045Y0239833D01*
X0251323Y0241830D02*
X0247249Y0241830D01*
X0248304Y0240832D02*
X0250269Y0240832D01*
X0249527Y0239833D02*
X0249045Y0239833D01*
X0241323Y0241830D02*
X0236677Y0241830D01*
X0238021Y0240832D02*
X0240269Y0240832D01*
X0239527Y0239833D02*
X0238787Y0239833D01*
X0234786Y0239833D02*
X0233786Y0239833D01*
X0233786Y0238835D02*
X0234786Y0238835D01*
X0234786Y0237836D02*
X0233786Y0237836D01*
X0233786Y0240832D02*
X0234786Y0240832D01*
X0234786Y0241830D02*
X0233786Y0241830D01*
X0231895Y0241830D02*
X0227249Y0241830D01*
X0228304Y0240832D02*
X0230551Y0240832D01*
X0229785Y0239833D02*
X0229045Y0239833D01*
X0221323Y0241830D02*
X0217249Y0241830D01*
X0218304Y0240832D02*
X0220269Y0240832D01*
X0219527Y0239833D02*
X0219045Y0239833D01*
X0211323Y0241830D02*
X0206677Y0241830D01*
X0208021Y0240832D02*
X0210269Y0240832D01*
X0209527Y0239833D02*
X0208787Y0239833D01*
X0204786Y0239833D02*
X0203786Y0239833D01*
X0203786Y0238835D02*
X0204786Y0238835D01*
X0204786Y0237836D02*
X0203786Y0237836D01*
X0203786Y0240832D02*
X0204786Y0240832D01*
X0204786Y0241830D02*
X0203786Y0241830D01*
X0201895Y0241830D02*
X0197249Y0241830D01*
X0198304Y0240832D02*
X0200551Y0240832D01*
X0199785Y0239833D02*
X0199045Y0239833D01*
X0191323Y0241830D02*
X0187249Y0241830D01*
X0188304Y0240832D02*
X0190269Y0240832D01*
X0189527Y0239833D02*
X0189045Y0239833D01*
X0181323Y0241830D02*
X0177249Y0241830D01*
X0178304Y0240832D02*
X0180269Y0240832D01*
X0179527Y0239833D02*
X0179045Y0239833D01*
X0171323Y0241830D02*
X0166677Y0241830D01*
X0168021Y0240832D02*
X0170269Y0240832D01*
X0169527Y0239833D02*
X0168787Y0239833D01*
X0164786Y0239833D02*
X0163786Y0239833D01*
X0163786Y0238835D02*
X0164786Y0238835D01*
X0164786Y0237836D02*
X0163786Y0237836D01*
X0163786Y0240832D02*
X0164786Y0240832D01*
X0164786Y0241830D02*
X0163786Y0241830D01*
X0161895Y0241830D02*
X0157249Y0241830D01*
X0158304Y0240832D02*
X0160551Y0240832D01*
X0159785Y0239833D02*
X0159045Y0239833D01*
X0151323Y0241830D02*
X0147249Y0241830D01*
X0141323Y0241830D02*
X0139643Y0241830D01*
X0140269Y0240832D02*
X0138028Y0240832D01*
X0137064Y0239833D02*
X0139527Y0239833D01*
X0139113Y0238835D02*
X0137641Y0238835D01*
X0138217Y0237836D02*
X0138886Y0237836D01*
X0138886Y0236838D02*
X0138504Y0236838D01*
X0138772Y0235839D02*
X0139010Y0235839D01*
X0140332Y0242829D02*
X0344015Y0242829D01*
X0345169Y0243827D02*
X0140671Y0243827D01*
X0140671Y0244826D02*
X0346898Y0244826D01*
X0349334Y0245824D02*
X0140374Y0245824D01*
X0149155Y0224856D02*
X0149417Y0224856D01*
X0150005Y0223857D02*
X0148567Y0223857D01*
X0147569Y0222859D02*
X0151003Y0222859D01*
X0153097Y0221860D02*
X0145475Y0221860D01*
X0141414Y0219863D02*
X0221586Y0219863D01*
X0221586Y0218865D02*
X0141414Y0218865D01*
X0141414Y0217866D02*
X0221586Y0217866D01*
X0221586Y0216868D02*
X0141414Y0216868D01*
X0141414Y0215869D02*
X0221586Y0215869D01*
X0221586Y0214870D02*
X0141414Y0214870D01*
X0136014Y0213872D02*
X0131866Y0213872D01*
X0132033Y0212873D02*
X0136014Y0212873D01*
X0136014Y0211875D02*
X0132033Y0211875D01*
X0132033Y0205884D02*
X0139633Y0205884D01*
X0139633Y0204885D02*
X0132033Y0204885D01*
X0131624Y0203887D02*
X0140042Y0203887D01*
X0150624Y0203887D02*
X0221586Y0203887D01*
X0221586Y0204885D02*
X0151033Y0204885D01*
X0151033Y0205884D02*
X0221586Y0205884D01*
X0221586Y0206882D02*
X0151033Y0206882D01*
X0151033Y0207881D02*
X0221586Y0207881D01*
X0221586Y0208879D02*
X0151033Y0208879D01*
X0151033Y0209878D02*
X0221586Y0209878D01*
X0221586Y0210876D02*
X0151033Y0210876D01*
X0151033Y0211875D02*
X0221586Y0211875D01*
X0221586Y0212873D02*
X0151033Y0212873D01*
X0150866Y0213872D02*
X0221586Y0213872D01*
X0226986Y0213872D02*
X0280229Y0213872D01*
X0279230Y0214870D02*
X0226986Y0214870D01*
X0226986Y0215869D02*
X0278797Y0215869D01*
X0278633Y0216868D02*
X0226986Y0216868D01*
X0226986Y0217866D02*
X0278687Y0217866D01*
X0279101Y0218865D02*
X0226986Y0218865D01*
X0226986Y0219863D02*
X0279964Y0219863D01*
X0281003Y0222859D02*
X0277569Y0222859D01*
X0278567Y0223857D02*
X0280005Y0223857D01*
X0279417Y0224856D02*
X0279155Y0224856D01*
X0275475Y0221860D02*
X0283097Y0221860D01*
X0285475Y0221860D02*
X0293097Y0221860D01*
X0292792Y0219863D02*
X0290355Y0219863D01*
X0291002Y0218865D02*
X0292633Y0218865D01*
X0295487Y0216346D02*
X0295833Y0216000D01*
X0295487Y0216346D02*
X0287333Y0216346D01*
X0282987Y0216346D01*
X0282333Y0217000D01*
X0284015Y0212873D02*
X0226986Y0212873D01*
X0226986Y0211875D02*
X0283665Y0211875D01*
X0283665Y0210876D02*
X0226986Y0210876D01*
X0226986Y0209878D02*
X0283665Y0209878D01*
X0283665Y0208879D02*
X0226986Y0208879D01*
X0226986Y0207881D02*
X0283665Y0207881D01*
X0283665Y0206882D02*
X0226986Y0206882D01*
X0226986Y0205884D02*
X0284565Y0205884D01*
X0285133Y0204885D02*
X0226986Y0204885D01*
X0226986Y0203887D02*
X0285133Y0203887D01*
X0287333Y0201031D02*
X0287333Y0209654D01*
X0291002Y0209878D02*
X0341976Y0209878D01*
X0341976Y0208879D02*
X0291002Y0208879D01*
X0291002Y0207881D02*
X0341976Y0207881D01*
X0342004Y0206882D02*
X0291002Y0206882D01*
X0290102Y0205884D02*
X0341976Y0205884D01*
X0341976Y0204885D02*
X0289533Y0204885D01*
X0289533Y0203887D02*
X0341976Y0203887D01*
X0346333Y0204969D02*
X0348562Y0204969D01*
X0351848Y0201683D01*
X0353939Y0198894D02*
X0365139Y0198894D01*
X0365139Y0197896D02*
X0350491Y0197896D01*
X0350491Y0196897D02*
X0365139Y0196897D01*
X0365139Y0199893D02*
X0354841Y0199893D01*
X0355255Y0200891D02*
X0365139Y0200891D01*
X0365139Y0201890D02*
X0356974Y0201890D01*
X0358053Y0202888D02*
X0365139Y0202888D01*
X0365139Y0203887D02*
X0358484Y0203887D01*
X0358608Y0204885D02*
X0365139Y0204885D01*
X0365139Y0205884D02*
X0358473Y0205884D01*
X0358026Y0206882D02*
X0365139Y0206882D01*
X0365139Y0207881D02*
X0356908Y0207881D01*
X0354261Y0208879D02*
X0365139Y0208879D01*
X0365139Y0209878D02*
X0353263Y0209878D01*
X0352264Y0210876D02*
X0355246Y0210876D01*
X0355165Y0211875D02*
X0313330Y0211875D01*
X0313254Y0211800D02*
X0313534Y0212079D01*
X0313731Y0212421D01*
X0313833Y0212803D01*
X0313833Y0215750D01*
X0311083Y0215750D01*
X0311083Y0211500D01*
X0312531Y0211500D01*
X0312912Y0211602D01*
X0313254Y0211800D01*
X0313833Y0212873D02*
X0355165Y0212873D01*
X0355165Y0213872D02*
X0313833Y0213872D01*
X0313833Y0214870D02*
X0355165Y0214870D01*
X0355165Y0215869D02*
X0311083Y0215869D01*
X0311083Y0215750D02*
X0311083Y0216250D01*
X0310583Y0216250D01*
X0310583Y0215750D01*
X0307833Y0215750D01*
X0307833Y0212803D01*
X0307936Y0212421D01*
X0308133Y0212079D01*
X0308412Y0211800D01*
X0308754Y0211602D01*
X0309136Y0211500D01*
X0310583Y0211500D01*
X0310583Y0215750D01*
X0311083Y0215750D01*
X0311083Y0216250D02*
X0313833Y0216250D01*
X0313833Y0219197D01*
X0313731Y0219579D01*
X0313534Y0219921D01*
X0313254Y0220200D01*
X0312912Y0220398D01*
X0312531Y0220500D01*
X0311083Y0220500D01*
X0311083Y0216250D01*
X0310583Y0216250D02*
X0310583Y0220500D01*
X0309136Y0220500D01*
X0308754Y0220398D01*
X0308412Y0220200D01*
X0308133Y0219921D01*
X0307936Y0219579D01*
X0307833Y0219197D01*
X0307833Y0216250D01*
X0310583Y0216250D01*
X0310583Y0215869D02*
X0299033Y0215869D01*
X0299033Y0216868D02*
X0307833Y0216868D01*
X0307833Y0217866D02*
X0299033Y0217866D01*
X0299033Y0218865D02*
X0307833Y0218865D01*
X0308100Y0219863D02*
X0298874Y0219863D01*
X0297569Y0222859D02*
X0301003Y0222859D01*
X0300005Y0223857D02*
X0298567Y0223857D01*
X0299155Y0224856D02*
X0299417Y0224856D01*
X0303097Y0221860D02*
X0295475Y0221860D01*
X0291003Y0222859D02*
X0287569Y0222859D01*
X0288567Y0223857D02*
X0290005Y0223857D01*
X0289417Y0224856D02*
X0289155Y0224856D01*
X0299033Y0214870D02*
X0307833Y0214870D01*
X0307833Y0213872D02*
X0299033Y0213872D01*
X0299033Y0212873D02*
X0307833Y0212873D01*
X0308337Y0211875D02*
X0298612Y0211875D01*
X0293054Y0211875D02*
X0291002Y0211875D01*
X0291002Y0210876D02*
X0342062Y0210876D01*
X0346333Y0208906D02*
X0351124Y0208906D01*
X0355158Y0204872D01*
X0356021Y0195899D02*
X0350491Y0195899D01*
X0350099Y0194900D02*
X0355165Y0194900D01*
X0355165Y0193902D02*
X0339133Y0193902D01*
X0339133Y0194900D02*
X0342568Y0194900D01*
X0342176Y0195899D02*
X0339133Y0195899D01*
X0339133Y0196897D02*
X0342176Y0196897D01*
X0342176Y0197896D02*
X0339133Y0197896D01*
X0333733Y0197896D02*
X0313842Y0197896D01*
X0314033Y0196897D02*
X0333733Y0196897D01*
X0333733Y0195899D02*
X0314033Y0195899D01*
X0314033Y0194900D02*
X0333733Y0194900D01*
X0333733Y0193902D02*
X0314033Y0193902D01*
X0314033Y0192903D02*
X0333733Y0192903D01*
X0333733Y0191905D02*
X0314033Y0191905D01*
X0314033Y0190906D02*
X0333733Y0190906D01*
X0333733Y0189908D02*
X0313645Y0189908D01*
X0308021Y0189908D02*
X0298645Y0189908D01*
X0299033Y0190906D02*
X0307633Y0190906D01*
X0307633Y0191905D02*
X0299033Y0191905D01*
X0299033Y0192903D02*
X0307633Y0192903D01*
X0307633Y0193902D02*
X0299033Y0193902D01*
X0299033Y0194900D02*
X0307633Y0194900D01*
X0307633Y0195899D02*
X0299033Y0195899D01*
X0299033Y0196897D02*
X0307633Y0196897D01*
X0307825Y0197896D02*
X0298842Y0197896D01*
X0292825Y0197896D02*
X0267151Y0197896D01*
X0251992Y0196897D02*
X0227848Y0196897D01*
X0228506Y0195899D02*
X0251334Y0195899D01*
X0251334Y0194900D02*
X0228506Y0194900D01*
X0228506Y0193902D02*
X0251334Y0193902D01*
X0251334Y0192903D02*
X0228506Y0192903D01*
X0228506Y0191905D02*
X0251334Y0191905D01*
X0251334Y0190906D02*
X0228506Y0190906D01*
X0228506Y0189908D02*
X0251334Y0189908D01*
X0251334Y0188909D02*
X0228506Y0188909D01*
X0228506Y0187911D02*
X0251334Y0187911D01*
X0251379Y0186912D02*
X0228461Y0186912D01*
X0208751Y0186912D02*
X0206413Y0186912D01*
X0206459Y0187911D02*
X0208751Y0187911D01*
X0208751Y0188909D02*
X0206459Y0188909D01*
X0206459Y0189908D02*
X0208751Y0189908D01*
X0208751Y0190906D02*
X0206459Y0190906D01*
X0206459Y0191905D02*
X0208751Y0191905D01*
X0208751Y0192903D02*
X0206459Y0192903D01*
X0206459Y0193902D02*
X0208751Y0193902D01*
X0208751Y0194900D02*
X0206459Y0194900D01*
X0206459Y0195899D02*
X0208751Y0195899D01*
X0208751Y0196897D02*
X0205801Y0196897D01*
X0208751Y0197896D02*
X0178391Y0197896D01*
X0177392Y0196897D02*
X0198992Y0196897D01*
X0198334Y0195899D02*
X0176394Y0195899D01*
X0175395Y0194900D02*
X0198334Y0194900D01*
X0198334Y0193902D02*
X0174397Y0193902D01*
X0173398Y0192903D02*
X0198334Y0192903D01*
X0198334Y0191905D02*
X0172400Y0191905D01*
X0171401Y0190906D02*
X0198334Y0190906D01*
X0198334Y0189908D02*
X0170403Y0189908D01*
X0169404Y0188909D02*
X0198334Y0188909D01*
X0198334Y0187911D02*
X0168406Y0187911D01*
X0167407Y0186912D02*
X0198379Y0186912D01*
X0204833Y0184915D02*
X0169458Y0184915D01*
X0170276Y0183917D02*
X0204833Y0183917D01*
X0204833Y0182918D02*
X0170276Y0182918D01*
X0170276Y0181920D02*
X0204833Y0181920D01*
X0204833Y0180921D02*
X0170276Y0180921D01*
X0170276Y0179923D02*
X0204833Y0179923D01*
X0204833Y0178924D02*
X0170276Y0178924D01*
X0170276Y0177926D02*
X0205286Y0177926D01*
X0207424Y0177926D02*
X0207605Y0177926D01*
X0207605Y0178924D02*
X0207424Y0178924D01*
X0207424Y0179923D02*
X0207605Y0179923D01*
X0207605Y0180921D02*
X0207424Y0180921D01*
X0207424Y0181920D02*
X0207605Y0181920D01*
X0207605Y0182918D02*
X0207424Y0182918D01*
X0207424Y0183917D02*
X0207605Y0183917D01*
X0207605Y0184915D02*
X0207424Y0184915D01*
X0207424Y0185914D02*
X0207605Y0185914D01*
X0205070Y0185914D02*
X0166408Y0185914D01*
X0167326Y0180893D02*
X0166703Y0180270D01*
X0166703Y0172643D01*
X0171672Y0171878D02*
X0171672Y0166000D01*
X0169350Y0160951D02*
X0113433Y0160951D01*
X0113433Y0161949D02*
X0156640Y0161949D01*
X0155709Y0162948D02*
X0113433Y0162948D01*
X0113433Y0163946D02*
X0153585Y0163946D01*
X0159377Y0172443D02*
X0159326Y0172494D01*
X0159326Y0180893D01*
X0119818Y0154960D02*
X0113433Y0154960D01*
X0113433Y0155958D02*
X0355164Y0155958D01*
X0355164Y0156957D02*
X0274515Y0156957D01*
X0275425Y0157955D02*
X0355164Y0157955D01*
X0355164Y0158954D02*
X0275838Y0158954D01*
X0275925Y0159952D02*
X0355164Y0159952D01*
X0355164Y0160951D02*
X0350146Y0160951D01*
X0350490Y0161949D02*
X0356068Y0161949D01*
X0353583Y0164945D02*
X0365139Y0164945D01*
X0365139Y0165943D02*
X0354698Y0165943D01*
X0355143Y0166942D02*
X0365139Y0166942D01*
X0365139Y0167940D02*
X0356659Y0167940D01*
X0357910Y0168939D02*
X0365139Y0168939D01*
X0365139Y0169937D02*
X0358412Y0169937D01*
X0358586Y0170936D02*
X0365139Y0170936D01*
X0365139Y0171934D02*
X0358502Y0171934D01*
X0358088Y0172933D02*
X0365139Y0172933D01*
X0365139Y0173932D02*
X0357128Y0173932D01*
X0354362Y0174930D02*
X0365139Y0174930D01*
X0365139Y0175929D02*
X0353363Y0175929D01*
X0352365Y0176927D02*
X0355198Y0176927D01*
X0355164Y0177926D02*
X0339133Y0177926D01*
X0339133Y0178924D02*
X0355164Y0178924D01*
X0355164Y0179923D02*
X0339133Y0179923D01*
X0339133Y0180921D02*
X0355164Y0180921D01*
X0355164Y0181920D02*
X0339133Y0181920D01*
X0339133Y0182918D02*
X0355164Y0182918D01*
X0355988Y0183917D02*
X0339133Y0183917D01*
X0339133Y0184915D02*
X0365139Y0184915D01*
X0365139Y0185914D02*
X0339133Y0185914D01*
X0339133Y0186912D02*
X0365139Y0186912D01*
X0365139Y0187911D02*
X0339133Y0187911D01*
X0339133Y0188909D02*
X0355166Y0188909D01*
X0355165Y0189908D02*
X0339133Y0189908D01*
X0339133Y0190906D02*
X0355165Y0190906D01*
X0355165Y0191905D02*
X0339133Y0191905D01*
X0339133Y0192903D02*
X0355165Y0192903D01*
X0346424Y0194900D02*
X0346243Y0194900D01*
X0346243Y0195899D02*
X0346424Y0195899D01*
X0346424Y0196897D02*
X0346243Y0196897D01*
X0342109Y0176927D02*
X0339133Y0176927D01*
X0339133Y0175929D02*
X0341975Y0175929D01*
X0341975Y0174930D02*
X0339133Y0174930D01*
X0339133Y0173932D02*
X0341975Y0173932D01*
X0342052Y0172933D02*
X0339133Y0172933D01*
X0339133Y0171934D02*
X0341975Y0171934D01*
X0341975Y0170936D02*
X0339216Y0170936D01*
X0340214Y0169937D02*
X0341975Y0169937D01*
X0346333Y0170972D02*
X0348807Y0170972D01*
X0351827Y0167952D01*
X0350490Y0163946D02*
X0365139Y0163946D01*
X0365139Y0162948D02*
X0350490Y0162948D01*
X0355136Y0171044D02*
X0351272Y0174909D01*
X0346333Y0174909D01*
X0311083Y0211875D02*
X0310583Y0211875D01*
X0310583Y0212873D02*
X0311083Y0212873D01*
X0311083Y0213872D02*
X0310583Y0213872D01*
X0310583Y0214870D02*
X0311083Y0214870D01*
X0311083Y0216868D02*
X0310583Y0216868D01*
X0310583Y0217866D02*
X0311083Y0217866D01*
X0311083Y0218865D02*
X0310583Y0218865D01*
X0310583Y0219863D02*
X0311083Y0219863D01*
X0313567Y0219863D02*
X0346851Y0219863D01*
X0349231Y0218865D02*
X0313833Y0218865D01*
X0313833Y0217866D02*
X0355941Y0217866D01*
X0355165Y0216868D02*
X0313833Y0216868D01*
X0313097Y0221860D02*
X0305475Y0221860D01*
X0307569Y0222859D02*
X0311003Y0222859D01*
X0310005Y0223857D02*
X0308567Y0223857D01*
X0309155Y0224856D02*
X0309417Y0224856D01*
X0315475Y0221860D02*
X0323097Y0221860D01*
X0321003Y0222859D02*
X0317569Y0222859D01*
X0318567Y0223857D02*
X0320005Y0223857D01*
X0319417Y0224856D02*
X0319155Y0224856D01*
X0333786Y0223857D02*
X0334786Y0223857D01*
X0334786Y0222859D02*
X0333786Y0222859D01*
X0337140Y0222859D02*
X0342989Y0222859D01*
X0342068Y0223857D02*
X0338276Y0223857D01*
X0338921Y0224856D02*
X0341492Y0224856D01*
X0340915Y0225854D02*
X0339312Y0225854D01*
X0357687Y0218865D02*
X0365139Y0218865D01*
X0365139Y0219863D02*
X0360068Y0219863D01*
X0361797Y0220862D02*
X0365139Y0220862D01*
X0365139Y0221860D02*
X0362931Y0221860D01*
X0363930Y0222859D02*
X0365139Y0222859D01*
X0365139Y0223857D02*
X0364850Y0223857D01*
X0292633Y0213872D02*
X0291002Y0213872D01*
X0290651Y0212873D02*
X0292633Y0212873D01*
X0273097Y0221860D02*
X0255475Y0221860D01*
X0257569Y0222859D02*
X0261432Y0222859D01*
X0260296Y0223857D02*
X0258567Y0223857D01*
X0259155Y0224856D02*
X0259651Y0224856D01*
X0263786Y0224856D02*
X0264786Y0224856D01*
X0264786Y0225854D02*
X0263786Y0225854D01*
X0263786Y0223857D02*
X0264786Y0223857D01*
X0264786Y0222859D02*
X0263786Y0222859D01*
X0267140Y0222859D02*
X0271003Y0222859D01*
X0270005Y0223857D02*
X0268276Y0223857D01*
X0268921Y0224856D02*
X0269417Y0224856D01*
X0253097Y0221860D02*
X0245475Y0221860D01*
X0247569Y0222859D02*
X0251003Y0222859D01*
X0250005Y0223857D02*
X0248567Y0223857D01*
X0249155Y0224856D02*
X0249417Y0224856D01*
X0243097Y0221860D02*
X0235475Y0221860D01*
X0237569Y0222859D02*
X0241003Y0222859D01*
X0240005Y0223857D02*
X0238567Y0223857D01*
X0239155Y0224856D02*
X0239417Y0224856D01*
X0213097Y0221860D02*
X0205475Y0221860D01*
X0207569Y0222859D02*
X0211003Y0222859D01*
X0210005Y0223857D02*
X0208567Y0223857D01*
X0209155Y0224856D02*
X0209417Y0224856D01*
X0203097Y0221860D02*
X0195475Y0221860D01*
X0197569Y0222859D02*
X0201003Y0222859D01*
X0200005Y0223857D02*
X0198567Y0223857D01*
X0199155Y0224856D02*
X0199417Y0224856D01*
X0193097Y0221860D02*
X0175475Y0221860D01*
X0177569Y0222859D02*
X0181432Y0222859D01*
X0180296Y0223857D02*
X0178567Y0223857D01*
X0179155Y0224856D02*
X0179651Y0224856D01*
X0183786Y0224856D02*
X0184786Y0224856D01*
X0184786Y0225854D02*
X0183786Y0225854D01*
X0183786Y0223857D02*
X0184786Y0223857D01*
X0184786Y0222859D02*
X0183786Y0222859D01*
X0187140Y0222859D02*
X0191003Y0222859D01*
X0190005Y0223857D02*
X0188276Y0223857D01*
X0188921Y0224856D02*
X0189417Y0224856D01*
X0173097Y0221860D02*
X0165475Y0221860D01*
X0167569Y0222859D02*
X0171003Y0222859D01*
X0170005Y0223857D02*
X0168567Y0223857D01*
X0169155Y0224856D02*
X0169417Y0224856D01*
X0163097Y0221860D02*
X0155475Y0221860D01*
X0157569Y0222859D02*
X0161003Y0222859D01*
X0160005Y0223857D02*
X0158567Y0223857D01*
X0159155Y0224856D02*
X0159417Y0224856D01*
X0113433Y0159952D02*
X0215633Y0159952D01*
X0215720Y0158954D02*
X0113433Y0158954D01*
X0113433Y0157955D02*
X0216134Y0157955D01*
X0217044Y0156957D02*
X0113433Y0156957D01*
X0113433Y0153961D02*
X0118009Y0153961D01*
X0116353Y0152963D02*
X0113433Y0152963D01*
X0113433Y0151964D02*
X0115355Y0151964D01*
X0114356Y0150966D02*
X0113433Y0150966D01*
X0113433Y0149967D02*
X0113557Y0149967D01*
X0260424Y0177926D02*
X0260605Y0177926D01*
X0260605Y0178924D02*
X0260424Y0178924D01*
X0260424Y0179923D02*
X0260605Y0179923D01*
X0260605Y0180921D02*
X0260424Y0180921D01*
X0260424Y0181920D02*
X0260605Y0181920D01*
X0260605Y0182918D02*
X0260424Y0182918D01*
X0260424Y0183917D02*
X0260605Y0183917D01*
X0260605Y0184915D02*
X0260424Y0184915D01*
X0260424Y0185914D02*
X0260605Y0185914D01*
X0272325Y0182051D02*
X0272325Y0160000D01*
X0272225Y0159900D01*
X0339418Y0135988D02*
X0340520Y0135988D01*
X0340261Y0134990D02*
X0341096Y0134990D01*
X0340675Y0133991D02*
X0341673Y0133991D01*
X0342304Y0132993D02*
X0340710Y0132993D01*
X0340523Y0131994D02*
X0343302Y0131994D01*
X0344301Y0130996D02*
X0340050Y0130996D01*
D23*
X0326570Y0169909D03*
X0343333Y0185000D03*
X0330833Y0196000D03*
X0330333Y0211000D03*
X0287333Y0192500D03*
X0266333Y0208000D03*
X0282333Y0217000D03*
X0241333Y0184500D03*
X0215388Y0176000D03*
X0219333Y0159900D03*
X0240510Y0155378D03*
X0268388Y0176000D03*
X0272225Y0159900D03*
X0214833Y0207500D03*
X0183333Y0207500D03*
X0187089Y0184224D03*
X0171672Y0171878D03*
X0171633Y0163900D03*
X0154433Y0167600D03*
D24*
X0163326Y0180893D02*
X0163326Y0186650D01*
X0177708Y0201031D01*
X0211451Y0201031D01*
X0211451Y0182051D01*
X0211451Y0201031D02*
X0224333Y0201031D01*
X0224286Y0201079D01*
X0224286Y0227213D01*
X0224333Y0201031D02*
X0264451Y0201031D01*
X0264451Y0182051D01*
X0264451Y0201031D02*
X0287333Y0201031D01*
X0336433Y0201031D01*
X0346333Y0201031D01*
X0336433Y0201031D02*
X0336433Y0169900D01*
X0339299Y0167035D01*
X0346333Y0167035D01*
X0145333Y0209000D02*
X0138333Y0209000D01*
X0138714Y0209381D01*
X0138714Y0223980D01*
X0138714Y0225000D01*
X0138714Y0231641D01*
X0144286Y0237213D01*
X0138333Y0209000D02*
X0126333Y0209000D01*
D25*
X0351848Y0201683D03*
X0355158Y0204872D03*
X0355136Y0171044D03*
X0351827Y0167952D03*
D26*
X0154286Y0237213D02*
X0144286Y0237213D01*
M02*
